STARTFONT 2.1
FONT -FreeType-TeX Gyre Adventor-Medium-R-Normal--40-380-75-75-P-256-ISO10646-1
SIZE 38 75 75
FONTBOUNDINGBOX 95 69 -33 -20
COMMENT "Generated by fontforge, http://fontforge.sourceforge.net"
COMMENT "Copyright 2007-2018 for TeX Gyre extensions by B. Jackowski, J.M. Nowacki, et al. (on behalf of TeX USERS GROUPS). Vietnamese characters were added by Han The Thanh."
STARTPROPERTIES 32
FOUNDRY "FreeType"
FAMILY_NAME "TeX Gyre Adventor"
WEIGHT_NAME "Medium"
SLANT "R"
SETWIDTH_NAME "Normal"
ADD_STYLE_NAME ""
PIXEL_SIZE 40
POINT_SIZE 380
RESOLUTION_X 75
RESOLUTION_Y 75
SPACING "P"
AVERAGE_WIDTH 256
CHARSET_REGISTRY "ISO10646"
CHARSET_ENCODING "1"
FONTNAME_REGISTRY ""
CHARSET_COLLECTIONS "ISO8859-2 ISO8859-9 ISO8859-4 ISO10646-1"
FONT_NAME "TeXGyreAdventorMedium"
FACE_NAME "TeX Gyre Adventor Medium"
COPYRIGHT "Copyright 2007-2018 for TeX Gyre extensions by B. Jackowski, J.M. Nowacki, et al. (on behalf of TeX USERS GROUPS). Vietnamese characters were added by Han The Thanh."
FONT_VERSION "001.000"
FONT_ASCENT 28
FONT_DESCENT 12
UNDERLINE_POSITION -4
UNDERLINE_THICKNESS 2
X_HEIGHT 22
CAP_HEIGHT 29
RAW_ASCENT 703
RAW_DESCENT 297
NORM_SPACE 11
FIGURE_WIDTH 23
AVG_LOWERCASE_WIDTH 227
AVG_UPPERCASE_WIDTH 265
ENDPROPERTIES
CHARS 1199
STARTCHAR $0020
ENCODING 32
SWIDTH 259 0
DWIDTH 11 0
BBX 0 0 0 0
BITMAP
ENDCHAR
STARTCHAR $0021
ENCODING 33
SWIDTH 296 0
DWIDTH 12 0
BBX 3 30 4 0
BITMAP
E0
E0
E0
E0
E0
E0
E0
E0
E0
E0
E0
E0
E0
E0
E0
E0
E0
E0
E0
E0
E0
E0
00
00
00
E0
E0
E0
E0
E0
ENDCHAR
STARTCHAR $0022
ENCODING 34
SWIDTH 296 0
DWIDTH 12 0
BBX 6 9 3 21
BITMAP
8C
8C
8C
8C
8C
8C
8C
8C
84
ENDCHAR
STARTCHAR $0023
ENCODING 35
SWIDTH 555 0
DWIDTH 23 0
BBX 22 30 0 0
BITMAP
01C0E0
01C0E0
01C0E0
01C0E0
0180E0
0180E0
0380C0
0381C0
0381C0
7FFFFC
7FFFFC
3FFFFC
0381C0
0301C0
0201C0
0E0100
0E0300
0F0700
FFFFF8
FFFFF8
FFFFF8
0C0700
1C0600
1C0600
1C0E00
1C0E00
1C0E00
1C0E00
180E00
100E00
ENDCHAR
STARTCHAR $0024
ENCODING 36
SWIDTH 555 0
DWIDTH 23 0
BBX 16 34 3 0
BITMAP
0180
0180
0180
03C0
1FF8
1FF8
7C0E
7807
7007
7007
7000
7000
7000
7C00
3C00
1FC0
03F8
03F8
003E
000F
000F
0007
0007
0007
E007
E007
E007
700E
7FF8
3FF8
0FF0
0180
0180
0180
ENDCHAR
STARTCHAR $0025
ENCODING 37
SWIDTH 777 0
DWIDTH 32 0
BBX 30 30 0 0
BITMAP
0FC00700
1FF80E00
1FF81C00
70381C00
E01C3800
E00E3800
E00E3800
E00E7000
E00EE000
7038E000
1FF8C000
1FF8C000
0FC1C000
0001C000
0001C000
00070000
000707C0
000707E0
000E3FF0
000EF878
000EF87C
0038E01C
0038E01C
0038E01C
0070E01C
0070F81C
00707838
00703FF0
01C01FE0
00C00FC0
ENDCHAR
STARTCHAR $0026
ENCODING 38
SWIDTH 740 0
DWIDTH 30 0
BBX 27 30 3 0
BITMAP
01F80000
07FC0000
0FFE0000
1E070000
1C070000
1C070000
1C010000
1C030000
1C070000
0E0F0000
0FFE0600
07FE0700
03F01F00
1FF01C00
1FF01C00
7C783C00
F83E3800
F01E3800
E00FF800
E001E000
E001E000
E001E000
E001FC00
E001FC00
E0071F00
700F0780
380F0780
1FFE03E0
0FF00080
07F00080
ENDCHAR
STARTCHAR $0027
ENCODING 39
SWIDTH 185 0
DWIDTH 8 0
BBX 1 9 3 21
BITMAP
80
80
80
80
80
80
80
80
80
ENDCHAR
STARTCHAR $0028
ENCODING 40
SWIDTH 370 0
DWIDTH 15 0
BBX 10 37 3 -6
BITMAP
01C0
03C0
03C0
0F80
0F00
0E00
1C00
3C00
7C00
7000
7000
7000
7000
E000
E000
E000
E000
E000
E000
E000
E000
E000
F000
F000
7000
7000
7000
7000
1C00
1C00
1C00
0E00
0700
0380
03C0
03C0
0040
ENDCHAR
STARTCHAR $0029
ENCODING 41
SWIDTH 370 0
DWIDTH 15 0
BBX 10 37 1 -6
BITMAP
E000
F000
F000
7C00
1C00
1C00
0E00
0F80
0780
0380
0380
0380
0380
03C0
03C0
01C0
01C0
01C0
01C0
01C0
01C0
01C0
03C0
03C0
0380
0380
0380
0380
0600
0E00
0E00
1C00
1C00
7000
E000
E000
8000
ENDCHAR
STARTCHAR $002A
ENCODING 42
SWIDTH 444 0
DWIDTH 18 0
BBX 15 15 1 15
BITMAP
0380
0380
0380
E3B8
FFFC
FFFE
1FF0
1FE0
1FC0
FFF8
FBB8
F3B8
0380
0380
0380
ENDCHAR
STARTCHAR $002B
ENCODING 43
SWIDTH 703 0
DWIDTH 29 0
BBX 22 24 3 -1
BITMAP
003800
003800
003800
003800
003800
003800
003800
003800
003800
003800
FFFFFC
FFFFFC
FFFFFC
003C00
003800
003800
003800
003800
003800
003800
003800
003800
003800
001800
ENDCHAR
STARTCHAR $002C
ENCODING 44
SWIDTH 259 0
DWIDTH 11 0
BBX 6 7 4 -2
BITMAP
7C
78
70
70
E0
E0
E0
ENDCHAR
STARTCHAR $002D
ENCODING 45
SWIDTH 333 0
DWIDTH 14 0
BBX 10 3 1 9
BITMAP
FFC0
FFC0
FFC0
ENDCHAR
STARTCHAR $002E
ENCODING 46
SWIDTH 259 0
DWIDTH 11 0
BBX 3 4 4 1
BITMAP
E0
E0
E0
E0
ENDCHAR
STARTCHAR $002F
ENCODING 47
SWIDTH 518 0
DWIDTH 21 0
BBX 15 33 3 -6
BITMAP
000E
001C
0038
0038
0038
0038
0070
0070
0070
0070
00E0
01C0
01C0
03C0
03C0
0380
0380
0380
0F80
0F00
0E00
0E00
1E00
1E00
1C00
1C00
1C00
7000
7000
7000
7000
E000
E000
ENDCHAR
STARTCHAR $0030
ENCODING 48
SWIDTH 555 0
DWIDTH 23 0
BBX 19 30 1 0
BITMAP
03F800
1FFF00
1FFF00
7C07C0
7803E0
7001E0
E000E0
E000E0
E000E0
E000E0
E000E0
E000E0
E000E0
E000E0
E000E0
E000E0
E000E0
E000E0
E000E0
E000E0
E000E0
E000E0
E000E0
E000E0
7001E0
7C07C0
3C07C0
1FFF00
03FE00
03FE00
ENDCHAR
STARTCHAR $0031
ENCODING 49
SWIDTH 555 0
DWIDTH 23 0
BBX 9 30 6 0
BITMAP
FF80
FF80
FF80
0380
0380
0380
0380
0380
0380
0380
0380
0380
0380
0380
0380
0380
0380
0380
0380
0380
0380
0380
0380
0380
0380
0380
0380
0380
0380
0380
ENDCHAR
STARTCHAR $0032
ENCODING 50
SWIDTH 555 0
DWIDTH 23 0
BBX 19 30 1 0
BITMAP
03F800
1FFF00
1FFF00
7C07C0
7803C0
7001C0
E001E0
E000E0
E000E0
E000E0
0001C0
0001C0
0001C0
000380
000700
000F00
001E00
003E00
007800
00F000
01F000
03C000
070000
0E0000
1C0000
380000
780000
FFFFE0
FFFFE0
FFFFE0
ENDCHAR
STARTCHAR $0033
ENCODING 51
SWIDTH 555 0
DWIDTH 23 0
BBX 19 30 1 0
BITMAP
03F800
07FC00
0FFE00
1C0F00
380700
700700
700700
000700
000700
000700
000F00
000F00
01FE00
01FE00
00FE00
000700
0001C0
0001C0
0001C0
0000E0
0000E0
E000E0
E001C0
E001C0
F001C0
7C0700
3C0700
1FFE00
03F800
03F800
ENDCHAR
STARTCHAR $0034
ENCODING 52
SWIDTH 555 0
DWIDTH 23 0
BBX 21 30 0 0
BITMAP
0001C0
0003C0
0007C0
000FC0
000FC0
000FC0
0039C0
0079C0
0079C0
0071C0
00E1C0
01C1C0
0381C0
0381C0
0381C0
0E01C0
1C01C0
1C01C0
7C01C0
7801C0
7801C0
FFFFF8
FFFFF8
FFFFF8
0001C0
0001C0
0001C0
0001C0
0001C0
000180
ENDCHAR
STARTCHAR $0035
ENCODING 53
SWIDTH 555 0
DWIDTH 23 0
BBX 19 30 1 0
BITMAP
1FFFC0
1FFFC0
1FFFC0
1C0000
1C0000
1C0000
1C0000
180000
100000
71F800
7FFF00
7FFF00
7C07C0
7801C0
3001C0
0000E0
0000E0
0000E0
0000E0
E000E0
E000E0
E000E0
E000E0
E000E0
7001C0
7C07C0
3C07C0
1FFF00
03F800
03F800
ENDCHAR
STARTCHAR $0036
ENCODING 54
SWIDTH 555 0
DWIDTH 23 0
BBX 19 30 1 0
BITMAP
003800
007000
007000
01F000
01E000
01C000
038000
070000
0E0000
0FF800
1FFF00
1FFF00
7C07C0
7801C0
7001C0
E000E0
E000E0
E000E0
E000E0
E000E0
E000E0
E000E0
E000E0
E000E0
F001C0
7C07C0
3C07C0
1FFF00
03F800
03F800
ENDCHAR
STARTCHAR $0037
ENCODING 55
SWIDTH 555 0
DWIDTH 23 0
BBX 16 30 3 0
BITMAP
FFFF
FFFF
FFFF
0007
000E
000E
000E
000E
000E
0038
0038
0038
0070
0070
0070
01C0
01C0
01C0
0380
0380
0380
0F80
0F00
0E00
0E00
1C00
1C00
1C00
3800
3000
ENDCHAR
STARTCHAR $0038
ENCODING 56
SWIDTH 555 0
DWIDTH 23 0
BBX 19 30 1 0
BITMAP
03F800
07FC00
0FFE00
1C0700
380780
7007C0
7001C0
7001C0
7801C0
7C07C0
1E0F80
1E0F00
0FFE00
1FFF00
1FFF00
7C07C0
7801C0
7001C0
E000E0
E000E0
E000E0
E000E0
E000E0
E000E0
7001C0
7C07C0
3C07C0
1FFF00
03F800
03F800
ENDCHAR
STARTCHAR $0039
ENCODING 57
SWIDTH 555 0
DWIDTH 23 0
BBX 19 30 1 0
BITMAP
03F800
1FFF00
1FFF00
7C07C0
7803E0
7001E0
E000E0
E000E0
E000E0
E000E0
E000E0
E000E0
E000E0
E000E0
E000E0
7001C0
7C03C0
3C07C0
1FFF00
03FE00
03FE00
003E00
003800
003800
007000
00F000
01F000
01C000
038000
038000
ENDCHAR
STARTCHAR $003A
ENCODING 58
SWIDTH 259 0
DWIDTH 11 0
BBX 3 19 4 1
BITMAP
E0
E0
E0
E0
00
00
00
00
00
00
00
00
00
00
00
E0
E0
E0
E0
ENDCHAR
STARTCHAR $003B
ENCODING 59
SWIDTH 259 0
DWIDTH 11 0
BBX 6 22 1 -2
BITMAP
1C
1C
1C
1C
00
00
00
00
00
00
00
00
00
00
00
1C
1C
1C
70
70
70
E0
ENDCHAR
STARTCHAR $003C
ENCODING 60
SWIDTH 740 0
DWIDTH 30 0
BBX 24 28 3 -3
BITMAP
000007
00003F
00003F
0001FC
0003F0
0007E0
003F00
00FC00
01F800
0FC000
1F8000
1F8000
FC0000
F80000
F80000
7E0000
1F8000
1F8000
03F000
007E00
007E00
000FC0
0001F8
0001F8
0000FC
00001F
00000F
000003
ENDCHAR
STARTCHAR $003D
ENCODING 61
SWIDTH 703 0
DWIDTH 29 0
BBX 22 12 3 4
BITMAP
FFFFFC
FFFFFC
FFFFFC
000000
000000
000000
000000
000000
000000
FFFFFC
FFFFFC
FFFFFC
ENDCHAR
STARTCHAR $003E
ENCODING 62
SWIDTH 740 0
DWIDTH 30 0
BBX 24 28 3 -3
BITMAP
E00000
F00000
F00000
7E0000
0FC000
0FC000
01F800
007F00
007F00
000FC0
0001F0
0001F8
00003F
00001F
00001F
0000FC
0003E0
0007E0
003FC0
007E00
007E00
03F000
1F8000
1F8000
FC0000
F80000
F00000
800000
ENDCHAR
STARTCHAR $003F
ENCODING 63
SWIDTH 592 0
DWIDTH 24 0
BBX 18 30 3 0
BITMAP
0FF800
1FFC00
1FFE00
700F00
E00380
E001C0
E001C0
E001C0
E001C0
E001C0
0001C0
0001C0
000700
000F00
000F00
003800
007000
007000
007000
00E000
01C000
01C000
000000
000000
000000
00C000
01C000
01C000
01C000
00C000
ENDCHAR
STARTCHAR $0040
ENCODING 64
SWIDTH 851 0
DWIDTH 35 0
BBX 30 30 3 0
BITMAP
003FE000
00FCFE00
01F8FF00
0F800380
1C0001C0
1C0000E0
100FE070
301EE430
703EE410
60703C10
E0E01C10
E1C01C10
81C0381C
83803810
83803810
83803810
83806070
C380E070
E380E060
6381E0E0
6381E0C0
71FFE780
107EFC00
187E7C00
1C000080
0F800380
07800380
01F83F00
003FE000
001FE000
ENDCHAR
STARTCHAR $0041
ENCODING 65
SWIDTH 740 0
DWIDTH 30 0
BBX 27 30 1 0
BITMAP
000E0000
001F0000
003F0000
003F0000
00738000
0071C000
0071C000
00F1C000
01F1C000
01C0E000
01C0E000
01C0E000
03803800
03803800
03803800
0E003C00
0FFFFC00
0FFFFC00
1FFFFC00
1C000700
1C000700
1C000700
38000380
70000380
70000380
E00003E0
E00003E0
E00000E0
E00000E0
E00000C0
ENDCHAR
STARTCHAR $0042
ENCODING 66
SWIDTH 592 0
DWIDTH 24 0
BBX 19 30 3 0
BITMAP
FFF000
FFFC00
FFFE00
E00F00
E00700
E00700
E007C0
E003C0
E001C0
E00700
E00700
E00700
E00F00
FFFE00
FFFE00
FFFF00
E007C0
E007C0
E001C0
E000E0
E000E0
E000E0
E000E0
E000E0
E001C0
E007C0
E007C0
FFFF00
FFF800
FFF800
ENDCHAR
STARTCHAR $0043
ENCODING 67
SWIDTH 814 0
DWIDTH 33 0
BBX 30 30 1 0
BITMAP
003FF800
00FFFE00
01FFFF00
0FC007E0
1F0001F0
1E0000F0
1C000070
38000000
70000000
70000000
F0000000
F0000000
E0000000
E0000000
E0000000
E0000000
E0000000
E0000000
70000000
70000000
78000000
7C00001C
1E000070
1F000070
0F8000E0
03C00780
03E00F80
01FFFF00
003FF800
001FF000
ENDCHAR
STARTCHAR $0044
ENCODING 68
SWIDTH 740 0
DWIDTH 30 0
BBX 25 30 3 0
BITMAP
FFFE0000
FFFF8000
FFFFC000
E001F800
E0007C00
E0003C00
E0001C00
E0000E00
E0000700
E0000700
E0000380
E0000380
E0000380
E0000380
E0000380
E0000380
E0000380
E0000380
E0000380
E0000700
E0000700
E0000700
E0001C00
E0001C00
E0003C00
E001F800
E001F000
FFFFC000
FFFE0000
FFFE0000
ENDCHAR
STARTCHAR $0045
ENCODING 69
SWIDTH 518 0
DWIDTH 21 0
BBX 16 30 3 0
BITMAP
FFFF
FFFF
FFFF
E000
E000
E000
E000
E000
E000
E000
E000
E000
E000
FFFF
FFFF
FFFF
E000
E000
E000
E000
E000
E000
E000
E000
E000
E000
E000
FFFF
FFFF
FFFF
ENDCHAR
STARTCHAR $0046
ENCODING 70
SWIDTH 481 0
DWIDTH 20 0
BBX 15 30 3 0
BITMAP
FFFE
FFFE
FFFE
E000
E000
E000
E000
E000
E000
E000
E000
E000
E000
FFFE
FFFE
FFFE
E000
E000
E000
E000
E000
E000
E000
E000
E000
E000
E000
E000
E000
E000
ENDCHAR
STARTCHAR $0047
ENCODING 71
SWIDTH 888 0
DWIDTH 36 0
BBX 31 30 1 0
BITMAP
000FF800
00FFFF80
01FFFF80
03C007E0
078001F0
0F8000F0
1C00007C
3C00003C
7C00001C
70000000
70000000
70000000
E0000000
E0000000
E0000000
E0000000
E00FFFFE
E00FFFFE
F00FFFFE
7000000E
7800000E
7C00001C
1C00001C
1C000038
0F8000F0
03C003E0
03E003C0
01FFFF80
000FF800
000FF000
ENDCHAR
STARTCHAR $0048
ENCODING 72
SWIDTH 666 0
DWIDTH 27 0
BBX 21 30 3 0
BITMAP
E00038
E00038
E00038
E00038
E00038
E00038
E00038
E00038
E00038
E00038
E00038
E00038
E00038
FFFFF8
FFFFF8
FFFFF8
E00038
E00038
E00038
E00038
E00038
E00038
E00038
E00038
E00038
E00038
E00038
E00038
E00038
E00030
ENDCHAR
STARTCHAR $0049
ENCODING 73
SWIDTH 222 0
DWIDTH 9 0
BBX 3 30 3 0
BITMAP
E0
E0
E0
E0
E0
E0
E0
E0
E0
E0
E0
E0
E0
E0
E0
E0
E0
E0
E0
E0
E0
E0
E0
E0
E0
E0
E0
E0
E0
E0
ENDCHAR
STARTCHAR $004A
ENCODING 74
SWIDTH 481 0
DWIDTH 20 0
BBX 16 30 0 0
BITMAP
0007
0007
0007
0007
0007
0007
0007
0007
0007
0007
0007
0007
0007
0007
0007
0007
0007
0007
0007
0007
0007
0007
E007
E007
700F
7C0E
3C0E
1FF8
0FF0
07F0
ENDCHAR
STARTCHAR $004B
ENCODING 75
SWIDTH 592 0
DWIDTH 24 0
BBX 19 30 3 0
BITMAP
E000E0
E001E0
E001E0
E007C0
E00F80
E00F00
E00E00
E01C00
E03800
E07800
E0F000
E1F000
E3C000
E38000
E38000
EF8000
FDC000
FCE000
FC7000
F87800
F07C00
E03E00
E00E00
E00E00
E00700
E007C0
E003C0
E001E0
E000E0
E00060
ENDCHAR
STARTCHAR $004C
ENCODING 76
SWIDTH 444 0
DWIDTH 18 0
BBX 15 30 3 0
BITMAP
E000
E000
E000
E000
E000
E000
E000
E000
E000
E000
E000
E000
E000
E000
E000
E000
E000
E000
E000
E000
E000
E000
E000
E000
E000
E000
E000
FFFE
FFFE
FFFE
ENDCHAR
STARTCHAR $004D
ENCODING 77
SWIDTH 925 0
DWIDTH 38 0
BBX 31 30 3 0
BITMAP
F000007E
F800007E
FC00007E
FC00007E
EE0000EE
EE0000EE
EE0000EE
EE0001CE
E600038E
E380038E
E380078E
E380078E
E1C0070E
E1C0070E
E0C0070E
E0701C0E
E0701C0E
E0701C0E
E070380E
E038380E
E038380E
E038F80E
E00EE00E
E00EE00E
E00EE00E
E00FC00E
E00FC00E
E007C00E
E007000E
E003000E
ENDCHAR
STARTCHAR $004E
ENCODING 78
SWIDTH 740 0
DWIDTH 30 0
BBX 24 30 3 0
BITMAP
F00007
F80007
FC0007
FC0007
EE0007
EE0007
EF8007
E38007
E38007
E1C007
E1F007
E1F007
E07007
E03807
E03807
E03E07
E00F07
E00F07
E00707
E001C7
E001C7
E001E7
E000E7
E00067
E0003F
E0003F
E0003F
E0001F
E00007
E00006
ENDCHAR
STARTCHAR $004F
ENCODING 79
SWIDTH 851 0
DWIDTH 35 0
BBX 31 30 1 0
BITMAP
000FF800
00FFFE00
01FFFF00
03C007E0
078001F0
0F8000F0
1C00007C
3C00003C
7C00001C
7000001E
7000000E
7000000E
E000000E
E000000E
E000000E
E000000E
E000000E
E000000E
7000000E
7000001E
7800001E
7C00001C
1E00007C
1F000078
0F8000F0
03C007E0
03E00FC0
01FFFF00
003FF800
001FF000
ENDCHAR
STARTCHAR $0050
ENCODING 80
SWIDTH 592 0
DWIDTH 24 0
BBX 19 30 3 0
BITMAP
FFFE00
FFFF80
FFFFC0
E001C0
E000E0
E000E0
E000E0
E000E0
E000E0
E000E0
E000E0
E000E0
E000E0
E003C0
E007C0
FFFF00
FFFC00
FFF800
E00000
E00000
E00000
E00000
E00000
E00000
E00000
E00000
E00000
E00000
E00000
E00000
ENDCHAR
STARTCHAR $0051
ENCODING 81
SWIDTH 888 0
DWIDTH 36 0
BBX 33 30 1 0
BITMAP
000FFC0000
00FFFF8000
01FFFF8000
03C007E000
078001F000
0F8000F000
1E00007C00
3C00003E00
7C00001E00
7000000E00
7000000E00
7000000E00
E000000F80
E000000780
E000000380
E000000380
E000000380
E000000700
EFFF000E00
7FFFE00E00
7FFFE00E00
7000FC1E00
1C001F1C00
1C001F3800
0F8007F000
03F003F000
03F003F000
01FFFFFE00
003FF80E00
001FF00E00
ENDCHAR
STARTCHAR $0052
ENCODING 82
SWIDTH 592 0
DWIDTH 24 0
BBX 21 30 3 0
BITMAP
FFF800
FFFF00
FFFF00
E007C0
E000E0
E000E0
E000E0
E000F0
E000F8
E00038
E00078
E000F8
E000E0
E000E0
E000E0
E007C0
E3FF80
E3FF00
E1F000
E07000
E07000
E03800
E03E00
E01E00
E00F00
E00700
E00380
E001C0
E001E0
E001E0
ENDCHAR
STARTCHAR $0053
ENCODING 83
SWIDTH 481 0
DWIDTH 20 0
BBX 18 30 1 0
BITMAP
0FF000
1FFC00
1FFE00
7C0F00
780700
700700
E00700
E00000
E00000
F00000
7C0000
3C0000
1F8000
0FF800
07F800
007E00
000F00
000F00
0007C0
0001C0
0001C0
E001C0
E001C0
E001C0
F00700
7C0F00
3C0F00
1FFE00
0FF000
07F000
ENDCHAR
STARTCHAR $0054
ENCODING 84
SWIDTH 444 0
DWIDTH 18 0
BBX 16 30 0 0
BITMAP
FFFF
FFFF
FFFF
01C0
01C0
01C0
01C0
01C0
01C0
01C0
01C0
01C0
01C0
01C0
01C0
01C0
01C0
01C0
01C0
01C0
01C0
01C0
01C0
01C0
01C0
01C0
01C0
01C0
01C0
00C0
ENDCHAR
STARTCHAR $0055
ENCODING 85
SWIDTH 666 0
DWIDTH 27 0
BBX 21 30 3 0
BITMAP
E00038
E00038
E00038
E00038
E00038
E00038
E00038
E00038
E00038
E00038
E00038
E00038
E00038
E00038
E00038
E00038
E00038
E00038
E00038
E00038
E00038
E000E0
F000E0
F000E0
7000E0
7C01C0
3C01C0
1FFF00
03FE00
03FE00
ENDCHAR
STARTCHAR $0056
ENCODING 86
SWIDTH 703 0
DWIDTH 29 0
BBX 27 30 0 0
BITMAP
F00000E0
700000E0
700000E0
700000E0
1C0001C0
1C000380
1C000380
0E000700
0E000700
0E000700
0E000F00
06001F00
03801C00
03801C00
03801C00
01C03800
01C03800
01C03800
01C0F800
0070E000
0070E000
0070E000
0039C000
0039C000
0039C000
003F0000
001F0000
000F0000
000F0000
000F0000
ENDCHAR
STARTCHAR $0057
ENCODING 87
SWIDTH 962 0
DWIDTH 39 0
BBX 37 30 0 0
BITMAP
E000380038
7000380038
7000380038
7000FC0038
7000FC0038
3000FC0038
1C00FC0070
1C01DC0070
1C01DC0070
1C01C70070
1C01C701C0
1C01C701C0
0E01C701C0
0E038781C0
0E070781C0
0E070381C0
0387038380
0387038380
0387038380
038E00C380
038E00E700
038E00EE00
01CE00EE00
01EE00EE00
01F800EE00
01F8007E00
00F8007E00
0078007C00
0078007C00
0078007800
ENDCHAR
STARTCHAR $0058
ENCODING 88
SWIDTH 592 0
DWIDTH 24 0
BBX 22 30 1 0
BITMAP
E00038
700078
7000F8
7C00E0
1C01E0
1C01E0
0E01C0
0F8380
078700
038F00
03CE00
03CE00
01F800
007800
007800
01F800
01FE00
01FE00
03CE00
038700
038700
0E07C0
1E01C0
1E01C0
1C00E0
3800F8
700078
F00038
E0001C
E0000C
ENDCHAR
STARTCHAR $0059
ENCODING 89
SWIDTH 592 0
DWIDTH 24 0
BBX 24 30 0 0
BITMAP
F0001F
70001E
70001C
7C003C
1C0038
1C0038
1E00F8
0E00F0
0E00E0
0F81E0
0381C0
0381C0
03C700
01C700
01C700
01FE00
007E00
007E00
003800
003800
003800
003800
003800
003800
003800
003800
003800
003800
003800
001800
ENDCHAR
STARTCHAR $005A
ENCODING 90
SWIDTH 481 0
DWIDTH 20 0
BBX 19 30 0 0
BITMAP
7FFFC0
7FFFC0
3FFFC0
0001C0
000380
000700
000700
000E00
000E00
003E00
003C00
003800
007800
007000
007000
01C000
03C000
03C000
038000
078000
0F8000
0E0000
1C0000
1C0000
7C0000
780000
780000
FFFFE0
FFFFE0
FFFFE0
ENDCHAR
STARTCHAR $005B
ENCODING 91
SWIDTH 333 0
DWIDTH 14 0
BBX 9 39 3 -9
BITMAP
FF80
FF80
FF80
E000
E000
E000
E000
E000
E000
E000
E000
E000
E000
E000
E000
E000
E000
E000
E000
E000
E000
E000
E000
E000
E000
E000
E000
E000
E000
E000
E000
E000
E000
E000
E000
E000
FF80
FF80
FF00
ENDCHAR
STARTCHAR $005C
ENCODING 92
SWIDTH 518 0
DWIDTH 21 0
BBX 15 33 3 -6
BITMAP
E000
F000
F000
7000
7000
3000
1C00
1C00
1C00
1C00
0E00
0E00
0E00
0E00
0700
0380
0380
0380
0380
01C0
01C0
01C0
01C0
00E0
0070
0070
0070
0070
0038
0038
0038
003E
001C
ENDCHAR
STARTCHAR $005D
ENCODING 93
SWIDTH 333 0
DWIDTH 14 0
BBX 9 39 1 -9
BITMAP
FF80
FF80
FF80
0380
0380
0380
0380
0380
0380
0380
0380
0380
0380
0380
0380
0380
0380
0380
0380
0380
0380
0380
0380
0380
0380
0380
0380
0380
0380
0380
0380
0380
0380
0380
0380
0380
FF80
FF80
FF00
ENDCHAR
STARTCHAR $005E
ENCODING 94
SWIDTH 592 0
DWIDTH 24 0
BBX 22 22 1 8
BITMAP
007800
00F800
01F800
01F800
01FC00
01CE00
038E00
038700
038700
0E0700
0E0780
0E07C0
1C01C0
1C01C0
1C01C0
7C00E0
7800E0
7000E0
700038
E00038
E00038
E0003C
ENDCHAR
STARTCHAR $005F
ENCODING 95
SWIDTH 518 0
DWIDTH 21 0
BBX 19 3 0 -6
BITMAP
FFFFE0
FFFFE0
FFFFE0
ENDCHAR
STARTCHAR $0060
ENCODING 96
SWIDTH 370 0
DWIDTH 15 0
BBX 9 6 1 25
BITMAP
F000
7800
3C00
0F80
0300
0200
ENDCHAR
STARTCHAR $0061
ENCODING 97
SWIDTH 666 0
DWIDTH 27 0
BBX 24 22 1 1
BITMAP
01FF07
07FFE7
0FFFE7
1E00FF
3C007F
7C003F
70001F
F0001F
F0001F
E00007
E00007
E00007
E00007
F0000F
F0001F
70001F
7C003F
3C003F
1E00E7
0FFFC7
07FFC7
01FF07
ENDCHAR
STARTCHAR $0062
ENCODING 98
SWIDTH 666 0
DWIDTH 27 0
BBX 22 30 3 0
BITMAP
E00000
E00000
E00000
E00000
E00000
E00000
E00000
E0FC00
E1FE00
EFFFC0
FF01E0
FE01E0
F00038
E0003C
E0003C
E0001C
E0001C
E0001C
E0001C
E0001C
E0001C
E0001C
F0003C
F0003C
F00038
FE01E0
FF01E0
EFFFC0
E1FE00
E0FE00
ENDCHAR
STARTCHAR $0063
ENCODING 99
SWIDTH 629 0
DWIDTH 26 0
BBX 22 22 1 1
BITMAP
01FF00
07FFE0
0FFFE0
1E00F8
3C007C
7C003C
70001C
F00000
F00000
E00000
E00000
E00000
E00000
F00000
F00000
70001C
7C003C
3C003C
1E00F8
0FFFE0
07FFE0
01FF00
ENDCHAR
STARTCHAR $0064
ENCODING 100
SWIDTH 703 0
DWIDTH 29 0
BBX 24 30 1 0
BITMAP
000007
000007
000007
000007
000007
000007
000007
00FF07
01FF07
0FFFE7
1F00FF
1E00FF
7C003F
78001F
70001F
F0001F
E00007
E00007
E00007
E00007
E00007
F00007
70001F
78001F
7C003F
1E00E7
1F00E7
0FFFC7
01FF07
00FF06
ENDCHAR
STARTCHAR $0065
ENCODING 101
SWIDTH 666 0
DWIDTH 27 0
BBX 22 22 1 1
BITMAP
01FF00
07FFE0
0FFFE0
1E00F8
3C0078
7C0038
70001C
E0001C
E0001C
FFFFFC
FFFFFC
FFFFFC
E00000
E00000
E00000
70001C
7C0038
3C0038
1E00E0
0FFFC0
07FFC0
01FE00
ENDCHAR
STARTCHAR $0066
ENCODING 102
SWIDTH 296 0
DWIDTH 12 0
BBX 12 30 0 0
BITMAP
0070
03F0
03F0
0F80
0F00
0E00
0E00
FFF0
FFF0
FFF0
0F00
0E00
0E00
0E00
0E00
0E00
0E00
0E00
0E00
0E00
0E00
0E00
0E00
0E00
0E00
0E00
0E00
0E00
0E00
0600
ENDCHAR
STARTCHAR $0067
ENCODING 103
SWIDTH 666 0
DWIDTH 27 0
BBX 22 31 1 -8
BITMAP
01FF1C
07FF9C
0FFFDC
1E01FC
3C007C
7C003C
70001C
E0001C
E0001C
E0001C
E0001C
E0001C
E0001C
F0001C
F0001C
70001C
7C003C
3C003C
1E00FC
0FFFDC
07FFDC
01FE1C
30001C
70001C
70001C
1C0038
1C0038
1F80F8
0FFFE0
07FFE0
007F00
ENDCHAR
STARTCHAR $0068
ENCODING 104
SWIDTH 592 0
DWIDTH 24 0
BBX 19 30 3 0
BITMAP
E00000
E00000
E00000
E00000
E00000
E00000
E00000
E3F800
E3F800
FFFF00
FC0780
FC07C0
F001C0
E001C0
E001C0
E000E0
E000E0
E000E0
E000E0
E000E0
E000E0
E000E0
E000E0
E000E0
E000E0
E000E0
E000E0
E000E0
E000E0
E00060
ENDCHAR
STARTCHAR $0069
ENCODING 105
SWIDTH 185 0
DWIDTH 8 0
BBX 3 30 3 0
BITMAP
E0
E0
E0
E0
00
00
00
E0
E0
E0
E0
E0
E0
E0
E0
E0
E0
E0
E0
E0
E0
E0
E0
E0
E0
E0
E0
E0
E0
E0
ENDCHAR
STARTCHAR $006A
ENCODING 106
SWIDTH 185 0
DWIDTH 8 0
BBX 7 37 -1 -6
BITMAP
0E
0E
0E
0E
00
00
00
06
0E
0E
0E
0E
0E
0E
0E
0E
0E
0E
0E
0E
0E
0E
0E
0E
0E
0E
0E
0E
0E
0E
0E
1C
1C
1C
F0
F0
E0
ENDCHAR
STARTCHAR $006B
ENCODING 107
SWIDTH 518 0
DWIDTH 21 0
BBX 16 30 3 0
BITMAP
E000
E000
E000
E000
E000
E000
E000
E00F
E00F
E03E
E03C
E038
E070
E0F0
E1F0
E3C0
E380
E380
EE00
FF80
FF80
FFC0
F9F0
F0F0
E078
E038
E01C
E00E
E00F
E00F
ENDCHAR
STARTCHAR $006C
ENCODING 108
SWIDTH 185 0
DWIDTH 8 0
BBX 3 30 3 0
BITMAP
E0
E0
E0
E0
E0
E0
E0
E0
E0
E0
E0
E0
E0
E0
E0
E0
E0
E0
E0
E0
E0
E0
E0
E0
E0
E0
E0
E0
E0
E0
ENDCHAR
STARTCHAR $006D
ENCODING 109
SWIDTH 925 0
DWIDTH 38 0
BBX 33 22 3 1
BITMAP
EFF01FE000
FFFC3FF800
FFFE3FFC00
F00FE01E00
E007C00E00
E007C00E00
E007C00E00
E003C00700
E001C00380
E001C00380
E001C00380
E001C00380
E001C00380
E001C00380
E001C00380
E001C00380
E001C00380
E001C00380
E001C00380
E001C00380
E001C00380
E001C00380
ENDCHAR
STARTCHAR $006E
ENCODING 110
SWIDTH 592 0
DWIDTH 24 0
BBX 19 22 3 1
BITMAP
E3F800
FFFF00
FFFF00
FC07C0
F803C0
F001C0
E001C0
E000E0
E000E0
E000E0
E000E0
E000E0
E000E0
E000E0
E000E0
E000E0
E000E0
E000E0
E000E0
E000E0
E000E0
E000E0
ENDCHAR
STARTCHAR $006F
ENCODING 111
SWIDTH 666 0
DWIDTH 27 0
BBX 24 22 1 1
BITMAP
01FF00
07FFE0
0FFFE0
1E00F8
3C007C
7C003C
70001C
F0001C
F0001C
E0001F
E0000F
E00007
E0001C
F0001C
F0001C
70001C
7C0038
3C0038
1E00F8
0FFFE0
07FFE0
01FF00
ENDCHAR
STARTCHAR $0070
ENCODING 112
SWIDTH 666 0
DWIDTH 27 0
BBX 22 30 3 -7
BITMAP
E1FE00
E7FF80
EFFFC0
FE01E0
F80070
F00038
E0003C
E0001C
E0001C
E0001C
E0001C
E0001C
E0001C
E0001C
E0001C
E0003C
F00038
F80038
FE01E0
EFFFC0
E7FFC0
E1FE00
E00000
E00000
E00000
E00000
E00000
E00000
E00000
E00000
ENDCHAR
STARTCHAR $0071
ENCODING 113
SWIDTH 666 0
DWIDTH 27 0
BBX 24 30 1 -7
BITMAP
01FF07
07FFE7
0FFFE7
1E00FF
3C007F
7C003F
70001F
F0001F
F0001F
E00007
E00007
E00007
E00007
F00007
F00007
70001F
7C003F
3C003F
1E00E7
0FFFC7
07FFC7
01FF07
000007
000007
000007
000007
000007
000007
000007
000006
ENDCHAR
STARTCHAR $0072
ENCODING 114
SWIDTH 296 0
DWIDTH 12 0
BBX 9 22 3 1
BITMAP
E380
FF80
FF80
FC00
F800
F000
E000
E000
E000
E000
E000
E000
E000
E000
E000
E000
E000
E000
E000
E000
E000
E000
ENDCHAR
STARTCHAR $0073
ENCODING 115
SWIDTH 370 0
DWIDTH 15 0
BBX 15 22 0 1
BITMAP
0FC0
1FF8
1FF8
7C38
7838
7038
7000
7C00
3C00
1F80
03F0
03F0
0078
003E
003E
E00E
700E
700E
7038
1FF8
1FF8
0FC0
ENDCHAR
STARTCHAR $0074
ENCODING 116
SWIDTH 333 0
DWIDTH 14 0
BBX 13 30 0 0
BITMAP
0F80
0F80
0F80
0F80
0F80
0F80
0F80
FFF8
FFF8
FFF8
0F80
0F80
0F80
0F80
0F80
0F80
0F80
0F80
0F80
0F80
0F80
0F80
0F80
0F80
0F80
0F80
0F80
0F80
0F80
0780
ENDCHAR
STARTCHAR $0075
ENCODING 117
SWIDTH 592 0
DWIDTH 24 0
BBX 19 22 3 1
BITMAP
E000E0
E000E0
E000E0
E000E0
E000E0
E000E0
E000E0
E000E0
E000E0
E000E0
E000E0
E000E0
E000E0
E000E0
E000E0
E001E0
F001E0
F801E0
7C07E0
1FFEE0
1FFEE0
0FF0E0
ENDCHAR
STARTCHAR $0076
ENCODING 118
SWIDTH 555 0
DWIDTH 23 0
BBX 22 22 0 1
BITMAP
E0003C
700038
700038
700038
1C0070
1C00E0
1C00E0
1E01C0
1E01C0
0E01C0
0E01C0
0601C0
038700
038700
038700
01CE00
01CE00
01EE00
01FE00
007C00
007800
007800
ENDCHAR
STARTCHAR $0077
ENCODING 119
SWIDTH 814 0
DWIDTH 33 0
BBX 33 22 0 1
BITMAP
E000000380
7000000380
7000000380
7001C00E00
7C01E00E00
3C01E00E00
1C07E00E00
1C07E01C00
1C07E01C00
0E07381C00
0E06387000
0E06387000
0E0E387000
038E1C7000
038E1C7000
03881CE000
03F81CE000
03F81CE000
01F8048000
01F0078000
00F0078000
0070078000
ENDCHAR
STARTCHAR $0078
ENCODING 120
SWIDTH 481 0
DWIDTH 20 0
BBX 16 22 1 1
BITMAP
E007
F00F
F00F
700E
1C1C
1C38
1E78
0E70
0670
03C0
03C0
03C0
03C0
0770
0E70
1C78
1C38
1C18
700E
E00F
E00F
E007
ENDCHAR
STARTCHAR $0079
ENCODING 121
SWIDTH 518 0
DWIDTH 21 0
BBX 21 30 0 -7
BITMAP
F00038
700078
7000F8
7000E0
1C00E0
1C00E0
1C01C0
1E01C0
1E01C0
0E0700
0E0700
060700
038F00
038E00
038E00
03CE00
01FC00
01F800
01F800
007000
007000
007000
00F000
01F000
01C000
01C000
01C000
038000
038000
038000
ENDCHAR
STARTCHAR $007A
ENCODING 122
SWIDTH 407 0
DWIDTH 17 0
BBX 16 22 0 1
BITMAP
7FFF
7FFF
3FFF
000E
001C
0038
0078
0070
0070
01C0
03C0
03C0
0380
0700
0E00
1E00
3C00
7C00
7000
FFFF
FFFF
FFFF
ENDCHAR
STARTCHAR $007B
ENCODING 123
SWIDTH 370 0
DWIDTH 15 0
BBX 12 39 1 -9
BITMAP
0070
03F0
03F0
0F80
0F00
0E00
0E00
0E00
0E00
0E00
0E00
0E00
0E00
0E00
0E00
0E00
1E00
1E00
FC00
FC00
FC00
1E00
0E00
0E00
0E00
0E00
0E00
0E00
0E00
0E00
0E00
0E00
0E00
0E00
0F80
0780
03F0
01F0
00E0
ENDCHAR
STARTCHAR $007C
ENCODING 124
SWIDTH 222 0
DWIDTH 9 0
BBX 3 33 3 -6
BITMAP
E0
E0
E0
E0
E0
E0
E0
E0
E0
E0
E0
E0
E0
E0
E0
E0
E0
E0
E0
E0
E0
E0
E0
E0
E0
E0
E0
E0
E0
E0
E0
E0
E0
ENDCHAR
STARTCHAR $007D
ENCODING 125
SWIDTH 370 0
DWIDTH 15 0
BBX 12 39 1 -9
BITMAP
E000
F800
FC00
1E00
0E00
0E00
0E00
0E00
0E00
0E00
0E00
0E00
0E00
0E00
0E00
0E00
0F80
0780
03F0
03F0
03F0
0F80
0F00
0E00
0E00
0E00
0E00
0E00
0E00
0E00
0E00
0E00
0E00
0E00
1E00
1E00
FC00
E000
C000
ENDCHAR
STARTCHAR $007E
ENCODING 126
SWIDTH 592 0
DWIDTH 24 0
BBX 19 6 3 9
BITMAP
1E00E0
FFE1E0
FFF1E0
E1FFC0
C03F80
803F00
ENDCHAR
STARTCHAR $00A0
ENCODING 160
SWIDTH 259 0
DWIDTH 11 0
BBX 0 0 0 0
BITMAP
ENDCHAR
STARTCHAR $00A1
ENCODING 161
SWIDTH 296 0
DWIDTH 12 0
BBX 3 30 4 -7
BITMAP
E0
E0
E0
E0
00
00
00
E0
E0
E0
E0
E0
E0
E0
E0
E0
E0
E0
E0
E0
E0
E0
E0
E0
E0
E0
E0
E0
E0
E0
ENDCHAR
STARTCHAR $00A2
ENCODING 162
SWIDTH 555 0
DWIDTH 23 0
BBX 18 25 1 4
BITMAP
007000
007000
007000
01F800
07FF00
0FFF00
1E07C0
3803C0
7001C0
700000
E00000
E00000
E00000
E00000
E00000
F00000
7001C0
7801C0
7C07C0
1FFF00
1FFF00
03F800
007000
007000
007000
ENDCHAR
STARTCHAR $00A3
ENCODING 163
SWIDTH 555 0
DWIDTH 23 0
BBX 24 30 0 0
BITMAP
007F00
03FFE0
03FFE0
0F80F8
0F0078
0E0038
1C001C
1C001C
1C001C
1C0000
1C0000
1C0000
1C0000
FFFFC0
FFFFC0
FFFFC0
01E000
00E000
007000
007007
007007
007007
007007
007007
00701F
00703C
00703C
1FFFF8
1FFFC0
1FFF80
ENDCHAR
STARTCHAR $00A4
ENCODING 164
SWIDTH 555 0
DWIDTH 23 0
BBX 19 21 1 1
BITMAP
63F8C0
FFFFE0
FFFFE0
7C07C0
7803C0
7001C0
E000E0
E000E0
E000E0
E000E0
E000E0
E000E0
E000E0
E000E0
E000E0
7001C0
7C03C0
7C07C0
FFFFE0
63FCC0
23F8C0
ENDCHAR
STARTCHAR $00A5
ENCODING 165
SWIDTH 555 0
DWIDTH 23 0
BBX 24 30 0 0
BITMAP
E00007
70000E
70001C
70001C
1C0038
1C0038
1C0020
0E0060
0600E0
0381C0
3F81FC
7F81FC
7FC7FC
01C780
00C700
007E00
007E00
007E00
7FFFFC
7FFFFC
3FFFFC
003800
003800
003800
003800
003800
003800
003800
003800
001800
ENDCHAR
STARTCHAR $00A6
ENCODING 166
SWIDTH 592 0
DWIDTH 24 0
BBX 3 34 10 -3
BITMAP
E0
E0
E0
E0
E0
E0
E0
E0
E0
E0
E0
E0
E0
00
00
00
00
00
00
00
00
E0
E0
E0
E0
E0
E0
E0
E0
E0
E0
E0
E0
E0
ENDCHAR
STARTCHAR $00A7
ENCODING 167
SWIDTH 629 0
DWIDTH 26 0
BBX 18 36 3 -6
BITMAP
03F800
07FC00
0FFE00
1C0F00
1C0700
1C0700
1C0000
1C0000
1C0000
1E0000
1FC000
1FC000
71F800
603F00
603F00
E007C0
E001C0
E001C0
7001C0
1E01C0
1F01C0
0FF1C0
01FF00
00FF00
003F00
000700
000380
7001C0
7001C0
700180
700700
1E0F00
1F0F00
0FFE00
01F000
00E000
ENDCHAR
STARTCHAR $00A8
ENCODING 168
SWIDTH 370 0
DWIDTH 15 0
BBX 9 4 3 26
BITMAP
E380
E380
E380
E380
ENDCHAR
STARTCHAR $00A9
ENCODING 169
SWIDTH 740 0
DWIDTH 30 0
BBX 28 28 1 1
BITMAP
007FC000
03803000
03803800
0C000400
10000200
10000300
603FC080
60FFF040
61F9F860
83801C60
87000060
8E000060
8E000010
8E000010
8E000010
8E000010
8E000060
87000060
83801C60
E1C03860
E0E03840
607FE080
10000380
10000380
0C000700
03803800
03803000
007FC000
ENDCHAR
STARTCHAR $00AA
ENCODING 170
SWIDTH 370 0
DWIDTH 15 0
BBX 12 16 1 14
BITMAP
1FB0
39F0
71F0
E070
C030
8030
8030
E070
E070
71F0
7FB0
3FB0
0000
0000
0000
FFF0
ENDCHAR
STARTCHAR $00AB
ENCODING 171
SWIDTH 407 0
DWIDTH 17 0
BBX 13 15 1 4
BITMAP
0E38
1C38
1C38
7C70
78F0
71F0
E1C0
F1C0
F1C0
7070
1C70
1C70
1C38
0E38
0638
ENDCHAR
STARTCHAR $00AC
ENCODING 172
SWIDTH 740 0
DWIDTH 30 0
BBX 24 12 3 0
BITMAP
FFFFFF
FFFFFF
FFFFFF
000007
000007
000007
000007
000007
000007
000007
000007
000007
ENDCHAR
STARTCHAR $00AD
ENCODING 173
SWIDTH 333 0
DWIDTH 14 0
BBX 10 3 1 9
BITMAP
FFC0
FFC0
FFC0
ENDCHAR
STARTCHAR $00AE
ENCODING 174
SWIDTH 740 0
DWIDTH 30 0
BBX 28 28 1 1
BITMAP
007FC000
03803000
03803800
0C000700
10000300
10000300
61FF0080
6187E040
6187E060
8180E060
81806060
81802060
81802010
8181E010
8181E010
818FC010
818E0060
818E0060
81870060
E181C060
E181C040
6180E080
10000380
10000380
0C000700
03803800
03803000
007FC000
ENDCHAR
STARTCHAR $00AF
ENCODING 175
SWIDTH 481 0
DWIDTH 20 0
BBX 13 3 3 25
BITMAP
FFF8
FFF8
FFF8
ENDCHAR
STARTCHAR $00B0
ENCODING 176
SWIDTH 407 0
DWIDTH 17 0
BBX 12 13 1 17
BITMAP
0F80
3FE0
7FF0
6070
E030
E030
E030
6030
6030
7070
1FE0
1FC0
0200
ENDCHAR
STARTCHAR $00B1
ENCODING 177
SWIDTH 703 0
DWIDTH 29 0
BBX 22 30 3 -7
BITMAP
003800
003800
003800
003800
003800
003800
003800
003800
003800
003800
FFFFFC
FFFFFC
FFFFFC
003C00
003800
003800
003800
003800
003800
003800
003800
003800
003800
001800
000000
000000
000000
FFFFFC
FFFFFC
FFFFFC
ENDCHAR
STARTCHAR $00B2
ENCODING 178
SWIDTH 333 0
DWIDTH 14 0
BBX 13 18 0 12
BITMAP
0FC0
3FE0
7FF0
7030
6038
2038
0038
0070
0070
01F0
03E0
03C0
0E00
1C00
1C00
7000
FFF8
FFF8
ENDCHAR
STARTCHAR $00B3
ENCODING 179
SWIDTH 333 0
DWIDTH 14 0
BBX 13 18 0 12
BITMAP
0F80
1FC0
1FC0
7070
0070
0070
03C0
07C0
07C0
0070
0038
0038
E038
6030
6030
7070
1FE0
1FC0
ENDCHAR
STARTCHAR $00B4
ENCODING 180
SWIDTH 370 0
DWIDTH 15 0
BBX 9 6 4 25
BITMAP
0F80
1F00
1E00
F000
6000
2000
ENDCHAR
STARTCHAR $00B5
ENCODING 181
SWIDTH 592 0
DWIDTH 24 0
BBX 19 28 3 -5
BITMAP
E000E0
E000E0
E000E0
E000E0
E000E0
E000E0
E000E0
E000E0
E000E0
E000E0
E000E0
E000E0
E000E0
E001E0
E001E0
F001E0
F003E0
F807E0
FC0FE0
EFFEE0
E7FEE0
E3F0E0
E00000
E00000
E00000
E00000
E00000
E00000
ENDCHAR
STARTCHAR $00B6
ENCODING 182
SWIDTH 555 0
DWIDTH 23 0
BBX 18 36 1 -6
BITMAP
0FFFC0
3FFFC0
7FFFC0
7FC1C0
FFC1C0
FFC1C0
FFC1C0
FFC1C0
FFC1C0
FFC1C0
7FC1C0
7FC1C0
7FC1C0
1FC1C0
1FC1C0
01C1C0
01C1C0
01C1C0
01C1C0
01C1C0
01C1C0
01C1C0
01C1C0
01C1C0
01C1C0
01C1C0
01C1C0
01C1C0
01C1C0
01C1C0
01C1C0
01C1C0
01C1C0
01C1C0
01C1C0
00C180
ENDCHAR
STARTCHAR $00B7
ENCODING 183
SWIDTH 222 0
DWIDTH 9 0
BBX 3 4 3 8
BITMAP
E0
E0
E0
E0
ENDCHAR
STARTCHAR $00B8
ENCODING 184
SWIDTH 333 0
DWIDTH 14 0
BBX 9 9 3 -10
BITMAP
1000
3E00
7E00
7E00
0300
0380
E380
7F00
3E00
ENDCHAR
STARTCHAR $00B9
ENCODING 185
SWIDTH 333 0
DWIDTH 14 0
BBX 4 18 4 12
BITMAP
F0
30
10
10
10
10
10
10
10
10
10
10
10
10
10
10
10
10
ENDCHAR
STARTCHAR $00BA
ENCODING 186
SWIDTH 370 0
DWIDTH 15 0
BBX 12 16 1 14
BITMAP
1F80
39C0
71C0
E070
C030
8030
8030
E070
E070
71C0
1F80
1F80
0000
0000
0000
FFF0
ENDCHAR
STARTCHAR $00BB
ENCODING 187
SWIDTH 407 0
DWIDTH 17 0
BBX 13 15 1 4
BITMAP
E1C0
71C0
71C0
7070
1C78
1C78
1E38
1C38
1C38
1C70
3870
7070
71C0
E1C0
E0C0
ENDCHAR
STARTCHAR $00BC
ENCODING 188
SWIDTH 814 0
DWIDTH 33 0
BBX 28 30 4 0
BITMAP
F0002000
30006000
1000E000
1000C000
1001C000
1001C000
10010000
10030000
10070000
10060000
100E0000
100E0000
100803E0
100803E0
100803E0
103807E0
10301DE0
10301CE0
007018E0
006038E0
004038E0
01C0E0E0
0181C0E0
0181C0E0
0381C0E0
0301FFF0
0201FFF0
0E0000E0
0C0000E0
040000C0
ENDCHAR
STARTCHAR $00BD
ENCODING 189
SWIDTH 814 0
DWIDTH 33 0
BBX 28 30 4 0
BITMAP
F0002000
30006000
1000E000
1000C000
1001C000
1001C000
10010000
10030000
10070000
10060000
100E0000
100E0000
10083FE0
101871F0
1038E0F0
1030E070
1070C070
1070C070
00400070
004000E0
004000C0
01C00380
01800700
01800600
03801C00
03003800
02003000
0E00E000
0C00FFF0
04007FF0
ENDCHAR
STARTCHAR $00BE
ENCODING 190
SWIDTH 814 0
DWIDTH 33 0
BBX 32 30 0 0
BITMAP
0F800380
1FC00300
1FC00300
70700700
00700700
00700700
03C00400
07C00C00
07C01C00
00701800
00383800
00383800
E038201E
6030601E
6030E01E
7070C07E
1FE1C0EE
1FC1C0EE
0001008E
0003038E
0007038E
0006070E
00061C0E
00061C0E
000E1C0E
00081FFF
00080FFF
0038000E
0030000E
0010000E
ENDCHAR
STARTCHAR $00BF
ENCODING 191
SWIDTH 592 0
DWIDTH 24 0
BBX 18 31 3 -8
BITMAP
01C000
01C000
01C000
01C000
000000
000000
000000
00C000
01C000
01C000
03C000
03C000
038000
070000
0E0000
1E0000
3C0000
7C0000
F00000
E00000
E00000
E001C0
E001C0
E001C0
E001C0
F007C0
F807C0
7C0F00
1FFE00
1FFE00
03F000
ENDCHAR
STARTCHAR $00C0
ENCODING 192
SWIDTH 740 0
DWIDTH 30 0
BBX 27 37 1 2
BITMAP
01F00000
00F80000
00780000
000F0000
00060000
00060000
00000000
000C0000
000E0000
003F0000
003F0000
003F0000
0071C000
0071C000
0071C000
01F1C000
01E0E000
01C0E000
01C0E000
03803800
03803800
03803800
07003C00
0F003C00
0FFFFC00
1FFFFC00
1FFFFC00
1C000700
1C000700
1C000700
70000380
70000380
700003C0
E00003E0
E00000E0
E00000E0
E00000E0
ENDCHAR
STARTCHAR $00C1
ENCODING 193
SWIDTH 740 0
DWIDTH 30 0
BBX 27 37 1 2
BITMAP
0001E000
0003C000
0007C000
003E0000
001C0000
00080000
00000000
000C0000
000E0000
003F0000
003F0000
003F0000
0071C000
0071C000
0071C000
01F1C000
01E0E000
01C0E000
01C0E000
03803800
03803800
03803800
07003C00
0F003C00
0FFFFC00
1FFFFC00
1FFFFC00
1C000700
1C000700
1C000700
70000380
70000380
700003C0
E00003E0
E00000E0
E00000E0
E00000E0
ENDCHAR
STARTCHAR $00C2
ENCODING 194
SWIDTH 740 0
DWIDTH 30 0
BBX 27 37 1 1
BITMAP
000E0000
001F0000
003F0000
0071C000
03E0F000
03C0F800
00000000
000C0000
000E0000
003F0000
003F0000
003F0000
0071C000
0071C000
0071C000
01F1C000
01E0E000
01C0E000
01C0E000
03803800
03803800
03803800
07003C00
0F003C00
0FFFFC00
1FFFFC00
1FFFFC00
1C000700
1C000700
1C000700
70000380
70000380
700003C0
E00003E0
E00000E0
E00000E0
E00000E0
ENDCHAR
STARTCHAR $00C3
ENCODING 195
SWIDTH 740 0
DWIDTH 30 0
BBX 27 37 1 1
BITMAP
00300000
00F80000
01F8C000
01C7E000
00038000
00010000
00000000
000C0000
000E0000
003F0000
003F0000
003F0000
0071C000
0071C000
0071C000
01F1C000
01E0E000
01C0E000
01C0E000
03803800
03803800
03803800
07003C00
0F003C00
0FFFFC00
1FFFFC00
1FFFFC00
1C000700
1C000700
1C000700
70000380
70000380
700003C0
E00003E0
E00000E0
E00000E0
E00000E0
ENDCHAR
STARTCHAR $00C4
ENCODING 196
SWIDTH 740 0
DWIDTH 30 0
BBX 27 37 1 1
BITMAP
0071C000
0071C000
0071C000
0071C000
00000000
00000000
00000000
000C0000
000E0000
003F0000
003F0000
003F0000
0071C000
0071C000
0071C000
01F1C000
01E0E000
01C0E000
01C0E000
03803800
03803800
03803800
07003C00
0F003C00
0FFFFC00
1FFFFC00
1FFFFC00
1C000700
1C000700
1C000700
70000380
70000380
700003C0
E00003E0
E00000E0
E00000E0
E00000E0
ENDCHAR
STARTCHAR $00C5
ENCODING 197
SWIDTH 740 0
DWIDTH 30 0
BBX 27 40 1 0
BITMAP
000F0000
00130000
00310000
0071C000
0071C000
0071C000
00310000
003F0000
003F0000
00000000
000E0000
000E0000
003F0000
003F0000
003F0000
0071C000
0071C000
0071C000
01F1C000
01E0E000
01C0E000
01C0E000
03803800
03803800
03803800
07003C00
0F003C00
0FFFFC00
1FFFFC00
1FFFFE00
1C000700
1C000700
1C000700
70000380
70000380
700003C0
E00003E0
E00000E0
E00000E0
E00000E0
ENDCHAR
STARTCHAR $00C6
ENCODING 198
SWIDTH 1000 0
DWIDTH 40 0
BBX 36 30 1 0
BITMAP
00001FFFF0
00003FFFF0
00003FFFF0
0000FF0000
0000FF0000
0000E70000
0001C70000
0003C70000
0007C70000
0007070000
000F070000
000F070000
003E070000
003C07FFE0
003807FFF0
007807FFF0
00F0070000
01F0070000
03FFFF0000
03FFFF0000
03FFFF0000
0F80070000
1F00070000
1E00070000
1C00070000
3C00070000
7C00070000
F00007FFF0
E00007FFF0
E00007FFE0
ENDCHAR
STARTCHAR $00C7
ENCODING 199
SWIDTH 814 0
DWIDTH 33 0
BBX 28 39 1 -10
BITMAP
003FF800
00FFFE00
01FFFF00
0FC007E0
1F0001F0
1E0000F0
1C000070
38000000
70000000
70000000
F0000000
F0000000
E0000000
E0000000
E0000000
E0000000
E0000000
E0000000
70000000
70000000
78000000
7C000000
1C000070
1C000070
1E0000F0
0FC007E0
07E00FC0
01FFFF00
003FFC00
001FFC00
00010000
0007E000
0007F000
0007F800
00003800
00003800
000E3800
0007E000
0003E000
ENDCHAR
STARTCHAR $00C8
ENCODING 200
SWIDTH 518 0
DWIDTH 21 0
BBX 16 39 3 0
BITMAP
1000
1800
1C00
1F80
03E0
03F0
0040
0000
0000
FFFF
FFFF
FFFF
E000
E000
E000
E000
E000
E000
E000
E000
E000
E000
FFFF
FFFF
FFFF
E000
E000
E000
E000
E000
E000
E000
E000
E000
E000
E000
FFFF
FFFF
FFFF
ENDCHAR
STARTCHAR $00C9
ENCODING 201
SWIDTH 518 0
DWIDTH 21 0
BBX 16 39 3 0
BITMAP
0008
0018
0038
01F8
07E0
0FC0
0200
0000
0000
FFFF
FFFF
FFFF
E000
E000
E000
E000
E000
E000
E000
E000
E000
E000
FFFF
FFFF
FFFF
E000
E000
E000
E000
E000
E000
E000
E000
E000
E000
E000
FFFF
FFFF
FFFF
ENDCHAR
STARTCHAR $00CA
ENCODING 202
SWIDTH 518 0
DWIDTH 21 0
BBX 16 37 3 1
BITMAP
03C0
07E0
0FF0
1E38
381C
300E
0000
FFFF
FFFF
FFFF
E000
E000
E000
E000
E000
E000
E000
E000
E000
E000
E000
FFFF
FFFF
FFFF
E000
E000
E000
E000
E000
E000
E000
E000
E000
E000
FFFF
FFFF
FFFF
ENDCHAR
STARTCHAR $00CB
ENCODING 203
SWIDTH 518 0
DWIDTH 21 0
BBX 16 37 3 1
BITMAP
1E70
1E70
1E70
1E70
0000
0000
0000
FFFF
FFFF
FFFF
E000
E000
E000
E000
E000
E000
E000
E000
E000
E000
E000
FFFF
FFFF
FFFF
E000
E000
E000
E000
E000
E000
E000
E000
E000
E000
FFFF
FFFF
FFFF
ENDCHAR
STARTCHAR $00CC
ENCODING 204
SWIDTH 222 0
DWIDTH 9 0
BBX 9 37 -1 2
BITMAP
F000
7800
3C00
1F80
0300
0200
0000
0600
0E00
0E00
0E00
0E00
0E00
0E00
0E00
0E00
0E00
0E00
0E00
0E00
0E00
0E00
0E00
0E00
0E00
0E00
0E00
0E00
0E00
0E00
0E00
0E00
0E00
0E00
0E00
0E00
0E00
ENDCHAR
STARTCHAR $00CD
ENCODING 205
SWIDTH 222 0
DWIDTH 9 0
BBX 9 37 1 2
BITMAP
0F80
1F00
1E00
FC00
6000
2000
0000
3000
7000
7000
7000
7000
7000
7000
7000
7000
7000
7000
7000
7000
7000
7000
7000
7000
7000
7000
7000
7000
7000
7000
7000
7000
7000
7000
7000
7000
7000
ENDCHAR
STARTCHAR $00CE
ENCODING 206
SWIDTH 222 0
DWIDTH 9 0
BBX 15 37 -3 1
BITMAP
0380
07C0
0FC0
1C78
F83C
F03E
0000
0380
0380
0380
0380
0380
0380
0380
0380
0380
0380
0380
0380
0380
0380
0380
0380
0380
0380
0380
0380
0380
0380
0380
0380
0380
0380
0380
0380
0380
0380
ENDCHAR
STARTCHAR $00CF
ENCODING 207
SWIDTH 222 0
DWIDTH 9 0
BBX 9 37 0 1
BITMAP
E380
E380
E380
E380
0000
0000
0000
1C00
1C00
1C00
1C00
1C00
1C00
1C00
1C00
1C00
1C00
1C00
1C00
1C00
1C00
1C00
1C00
1C00
1C00
1C00
1C00
1C00
1C00
1C00
1C00
1C00
1C00
1C00
1C00
1C00
1C00
ENDCHAR
STARTCHAR $00D0
ENCODING 208
SWIDTH 777 0
DWIDTH 32 0
BBX 28 30 1 0
BITMAP
1FFFC000
1FFFF000
1FFFF800
1C003F00
1C000F80
1C000780
1C0003E0
1C0001E0
1C0000E0
1C0000F0
1C000070
1C000070
1C000070
FFFE0070
FFFE0070
FFFE0070
1C000070
1C000070
1C000070
1C0000F0
1C0000F0
1C0000E0
1C0003E0
1C0003C0
1C000780
1C003F00
1C003E00
1FFFF800
1FFFC000
1FFF8000
ENDCHAR
STARTCHAR $00D1
ENCODING 209
SWIDTH 740 0
DWIDTH 30 0
BBX 24 37 3 1
BITMAP
004000
03E100
03F100
038FC0
000600
000600
000000
F00006
F80007
FC0007
FC0007
FC0007
EE0007
EF8007
E78007
E38007
E1C007
E1E007
E1F007
E07007
E07007
E03807
E03E07
E01E07
E00F07
E00707
E00387
E001C7
E001E7
E001E7
E000E7
E0003F
E0003F
E0003F
E0001F
E0000F
E00007
ENDCHAR
STARTCHAR $00D2
ENCODING 210
SWIDTH 851 0
DWIDTH 35 0
BBX 31 37 1 1
BITMAP
00380000
003F0000
003F0000
0007C000
0003C000
0001C000
00000000
000FF000
000FF800
01FFFF00
03E00FC0
03C007E0
0F8000F0
1C000078
1C00007C
7C00001C
7800001E
7000001E
7000000E
E000000E
E000000E
E000000E
E000000E
E000000E
E000000E
7000000E
7000000E
7000001E
7C00001C
3C00003C
1E00007C
0F8000F0
078001F0
03C007E0
01FFFF00
00FFFE00
003FF800
ENDCHAR
STARTCHAR $00D3
ENCODING 211
SWIDTH 851 0
DWIDTH 35 0
BBX 31 37 1 1
BITMAP
00001800
00007800
0000F800
0007E000
00078000
00070000
00000000
000FF000
000FF800
01FFFF00
03E00FC0
03C007E0
0F8000F0
1C000078
1C00007C
7C00001C
7800001E
7000001E
7000000E
E000000E
E000000E
E000000E
E000000E
E000000E
E000000E
7000000E
7000000E
7000001E
7C00001C
3C00003C
1E00007C
0F8000F0
078001F0
03C007E0
01FFFF00
00FFFE00
003FF800
ENDCHAR
STARTCHAR $00D4
ENCODING 212
SWIDTH 851 0
DWIDTH 35 0
BBX 31 36 1 0
BITMAP
0007E000
000EF000
000EF800
00383C00
00000000
00000000
000FF800
00FFFE00
01FFFF00
03C007E0
078001F0
0F8000F0
1C00007C
3C00003C
7C00001C
7000001E
7000000E
7000000E
E000000E
E000000E
E000000E
E000000E
E000000E
E000000E
7000000E
7000001E
7800001E
7C00001C
1E00007C
1F000078
0F8000F0
03C007E0
03E00FC0
01FFFF00
003FF800
001FF000
ENDCHAR
STARTCHAR $00D5
ENCODING 213
SWIDTH 851 0
DWIDTH 35 0
BBX 31 36 1 0
BITMAP
000F1800
001FF800
003FF800
00002000
00000000
00000000
000FF800
00FFFE00
01FFFF00
03C007E0
078001F0
0F8000F0
1C00007C
3C00003C
7C00001C
7000001E
7000000E
7000000E
E000000E
E000000E
E000000E
E000000E
E000000E
E000000E
7000000E
7000001E
7800001E
7C00001C
1E00007C
1F000078
0F8000F0
03C007E0
03E00FC0
01FFFF00
003FF800
001FF000
ENDCHAR
STARTCHAR $00D6
ENCODING 214
SWIDTH 851 0
DWIDTH 35 0
BBX 31 36 1 0
BITMAP
000E3800
000E3800
000E3800
000E3800
00000000
00000000
000FF800
00FFFE00
01FFFF00
03C007E0
078001F0
0F8000F0
1C00007C
3C00003C
7C00001C
7000001E
7000000E
7000000E
E000000E
E000000E
E000000E
E000000E
E000000E
E000000E
7000000E
7000001E
7800001E
7C00001C
1E00007C
1F000078
0F8000F0
03C007E0
03E00FC0
01FFFF00
003FF800
001FF000
ENDCHAR
STARTCHAR $00D7
ENCODING 215
SWIDTH 592 0
DWIDTH 24 0
BBX 18 18 3 1
BITMAP
600000
F00180
F001C0
7C0700
1E0E00
1E0E00
0FB800
03F000
03F000
01F000
03F800
03F800
0E3E00
1C0F00
1C0F00
7007C0
6001C0
2001C0
ENDCHAR
STARTCHAR $00D8
ENCODING 216
SWIDTH 851 0
DWIDTH 35 0
BBX 31 36 1 -3
BITMAP
00000010
00000018
0000001C
003FF870
00FFFFE0
01FFFFE0
03C007E0
078003F0
0F8003F0
1C00077C
3C000E3C
7C001C1C
70003C1E
7000380E
7000380E
E000E00E
E001C00E
E001C00E
E007C00E
E00F000E
E00F000E
700E000E
7018001E
7838001E
7C70001C
1CF0007C
1DF00078
0FC000F0
03C007E0
03E00FC0
0FFFFF00
1E3FF800
1E1FF000
7C000000
10000000
10000000
ENDCHAR
STARTCHAR $00D9
ENCODING 217
SWIDTH 666 0
DWIDTH 27 0
BBX 21 37 3 2
BITMAP
0F8000
07C000
03C000
01F800
003000
003000
000000
E00030
E00038
E00038
E00038
E00038
E00038
E00038
E00038
E00038
E00038
E00038
E00038
E00038
E00038
E00038
E00038
E00038
E00038
E00038
E00038
E00038
E000E0
E000E0
F000E0
7000E0
7800E0
7C01C0
1FFF00
1FFF00
03FE00
ENDCHAR
STARTCHAR $00DA
ENCODING 218
SWIDTH 666 0
DWIDTH 27 0
BBX 21 37 3 2
BITMAP
000F00
007E00
007E00
01F000
01E000
01C000
000000
E00030
E00038
E00038
E00038
E00038
E00038
E00038
E00038
E00038
E00038
E00038
E00038
E00038
E00038
E00038
E00038
E00038
E00038
E00038
E00038
E00038
E000E0
E000E0
F000E0
7000E0
7800E0
7C01C0
1FFF00
1FFF00
03FE00
ENDCHAR
STARTCHAR $00DB
ENCODING 219
SWIDTH 666 0
DWIDTH 27 0
BBX 21 37 3 1
BITMAP
007000
00F800
01F800
0F8E00
1F0700
1E0700
000000
E00030
E00038
E00038
E00038
E00038
E00038
E00038
E00038
E00038
E00038
E00038
E00038
E00038
E00038
E00038
E00038
E00038
E00038
E00038
E00038
E00038
E000E0
E000E0
F000E0
7000E0
7800E0
7C01C0
1FFF00
1FFF00
03FE00
ENDCHAR
STARTCHAR $00DC
ENCODING 220
SWIDTH 666 0
DWIDTH 27 0
BBX 21 37 3 1
BITMAP
038E00
038E00
038E00
038E00
000000
000000
000000
E00030
E00038
E00038
E00038
E00038
E00038
E00038
E00038
E00038
E00038
E00038
E00038
E00038
E00038
E00038
E00038
E00038
E00038
E00038
E00038
E00038
E000E0
E000E0
F000E0
7000E0
7800E0
7C01C0
1FFF00
1FFF00
03FE00
ENDCHAR
STARTCHAR $00DD
ENCODING 221
SWIDTH 592 0
DWIDTH 24 0
BBX 24 37 0 2
BITMAP
0007C0
000F80
000F00
007800
007000
007000
000000
F0000E
F0001F
70001C
7C003C
3C003C
1C0038
1E0078
1E00F8
0E00E0
0F81E0
0781E0
0381C0
03C300
03C700
01C700
01FE00
00FE00
007E00
003800
003800
003800
003800
003800
003800
003800
003800
003800
003800
003800
003800
ENDCHAR
STARTCHAR $00DE
ENCODING 222
SWIDTH 592 0
DWIDTH 24 0
BBX 19 30 3 0
BITMAP
E00000
E00000
E00000
E00000
E00000
E00000
FFFE00
FFFF80
FFFFC0
E001C0
E000E0
E000E0
E000E0
E000E0
E000E0
E000E0
E000E0
E000E0
E000E0
E003C0
E007C0
FFFF00
FFF800
FFF800
E00000
E00000
E00000
E00000
E00000
E00000
ENDCHAR
STARTCHAR $00DF
ENCODING 223
SWIDTH 555 0
DWIDTH 23 0
BBX 18 30 3 0
BITMAP
0FF000
3FF800
7FF800
703E00
E01E00
E00E00
E00700
E00700
E00700
E00700
E00E00
E00E00
E03E00
E3FC00
E3F800
E3FE00
E00F00
E00F00
E001C0
E001C0
E001C0
F001C0
F001C0
F801C0
FC01C0
FE0700
FF0700
EFFE00
E3F800
E3F800
ENDCHAR
STARTCHAR $00E0
ENCODING 224
SWIDTH 666 0
DWIDTH 27 0
BBX 24 30 1 1
BITMAP
038000
01E000
01F000
007E00
001C00
000800
000000
00FF06
01FF07
0FFFE7
1F00FF
1E00FF
7C003F
78001F
70001F
F0001F
E00007
E00007
E00007
E00007
E00007
F0001F
70001F
78001F
7C003F
1E00E7
1F00E7
0FFFC7
01FF07
00FF06
ENDCHAR
STARTCHAR $00E1
ENCODING 225
SWIDTH 666 0
DWIDTH 27 0
BBX 24 30 1 1
BITMAP
0007C0
000F80
000F00
007800
007000
007000
000000
00FF06
01FF07
0FFFE7
1F00FF
1E00FF
7C003F
78001F
70001F
F0001F
E00007
E00007
E00007
E00007
E00007
F0001F
70001F
78001F
7C003F
1E00E7
1F00E7
0FFFC7
01FF07
00FF06
ENDCHAR
STARTCHAR $00E2
ENCODING 226
SWIDTH 666 0
DWIDTH 27 0
BBX 24 30 1 0
BITMAP
003800
007C00
007E00
01C700
078380
0F81C0
000000
00FF06
01FF07
0FFFE7
1F00FF
1E00FF
7C003F
78001F
70001F
F0001F
E00007
E00007
E00007
E00007
E00007
F0001F
70001F
78001F
7C003F
1E00E7
1F00E7
0FFFC7
01FF07
00FF06
ENDCHAR
STARTCHAR $00E3
ENCODING 227
SWIDTH 666 0
DWIDTH 27 0
BBX 24 30 1 0
BITMAP
004000
03E100
03F100
020FC0
000600
000600
000000
00FF06
01FF07
0FFFE7
1F00FF
1E00FF
7C003F
78001F
70001F
F0001F
E00007
E00007
E00007
E00007
E00007
F0001F
70001F
78001F
7C003F
1E00E7
1F00E7
0FFFC7
01FF07
00FF06
ENDCHAR
STARTCHAR $00E4
ENCODING 228
SWIDTH 666 0
DWIDTH 27 0
BBX 24 28 1 1
BITMAP
01C700
01C700
01C700
01C700
000000
000000
01FF07
07FFE7
0FFFE7
1E00FF
3C007F
7C003F
70001F
F0001F
F0001F
E00007
E00007
E00007
E00007
F0001F
F0001F
70001F
7C003F
3C003F
1E00E7
0FFFC7
07FFC7
01FF07
ENDCHAR
STARTCHAR $00E5
ENCODING 229
SWIDTH 666 0
DWIDTH 27 0
BBX 24 33 1 0
BITMAP
007E00
006600
004600
018700
018700
018700
01C600
007800
007800
000000
00FF06
01FF07
0FFFE7
1F00FF
1E00FF
7C003F
78001F
70001F
F0001F
E00007
E00007
E00007
E00007
E00007
F0001F
70001F
78001F
7C003F
1E00E7
1F00E7
0FFFC7
01FF07
00FF06
ENDCHAR
STARTCHAR $00E6
ENCODING 230
SWIDTH 1148 0
DWIDTH 46 0
BBX 43 22 1 1
BITMAP
01FF070FF800
07FFE73FFC00
0FFFE77FFE00
1E00FFF00F00
3C007FC00380
7C003F8001C0
70001F8000E0
F0000F0000E0
F000070000E0
E00007FFFFE0
E00007FFFFE0
E00007FFFFE0
E00007000000
F0000F000000
F0001F000000
70001F8001E0
7C003FC001C0
3C003FE00380
1E00FFF00F00
0FFFC77FFE00
07FFC77FFC00
01FF070FF000
ENDCHAR
STARTCHAR $00E7
ENCODING 231
SWIDTH 629 0
DWIDTH 26 0
BBX 22 31 1 -9
BITMAP
01FF00
07FFE0
0FFFE0
1E00F8
3C007C
7C003C
70001C
F00000
F00000
E00000
E00000
E00000
E00000
F00000
F00000
700000
7C003C
3C003C
1E00F8
0FFFE0
07FFE0
01FFC0
003800
003C00
003E00
007F00
007F80
0001C0
007100
007100
003F00
ENDCHAR
STARTCHAR $00E8
ENCODING 232
SWIDTH 666 0
DWIDTH 27 0
BBX 22 30 1 1
BITMAP
038000
01E000
01F000
007E00
001C00
000800
000000
00FF00
01FF00
0FFFE0
1F00F0
1E00F8
7C0038
78001C
70001C
E0001C
FFFFFC
FFFFFC
FFFFFC
E00000
E00000
E00000
70001C
78001C
7C0038
1E00E0
1F00E0
0FFFC0
01FE00
00FE00
ENDCHAR
STARTCHAR $00E9
ENCODING 233
SWIDTH 666 0
DWIDTH 27 0
BBX 22 30 1 1
BITMAP
0007C0
000F80
000F00
007800
007000
007000
000000
00FF00
01FF00
0FFFE0
1F00F0
1E00F8
7C0038
78001C
70001C
E0001C
FFFFFC
FFFFFC
FFFFFC
E00000
E00000
E00000
70001C
78001C
7C0038
1E00E0
1F00E0
0FFFC0
01FE00
00FE00
ENDCHAR
STARTCHAR $00EA
ENCODING 234
SWIDTH 666 0
DWIDTH 27 0
BBX 22 30 1 0
BITMAP
003800
007C00
007E00
03C700
078380
0F81C0
000000
00FF00
01FF00
0FFFE0
1F00F0
1E00F8
7C0038
78001C
70001C
E0001C
FFFFFC
FFFFFC
FFFFFC
E00000
E00000
E00000
70001C
78001C
7C0038
1E00E0
1F00E0
0FFFC0
01FE00
00FE00
ENDCHAR
STARTCHAR $00EB
ENCODING 235
SWIDTH 666 0
DWIDTH 27 0
BBX 22 28 1 1
BITMAP
01C700
01C700
01C700
01C700
000000
000000
01FF00
07FFE0
0FFFE0
1E00F8
3C0078
7C0038
70001C
E0001C
E0001C
FFFFFC
FFFFFC
FFFFFC
E00000
E00000
E00000
70001C
7C0038
3C0038
1E00E0
0FFFC0
07FFC0
01FE00
ENDCHAR
STARTCHAR $00EC
ENCODING 236
SWIDTH 185 0
DWIDTH 8 0
BBX 7 31 -1 1
BITMAP
80
F0
F0
7C
0E
0E
02
00
00
0E
0E
0E
0E
0E
0E
0E
0E
0E
0E
0E
0E
0E
0E
0E
0E
0E
0E
0E
0E
0E
0E
ENDCHAR
STARTCHAR $00ED
ENCODING 237
SWIDTH 185 0
DWIDTH 8 0
BBX 9 31 1 1
BITMAP
0200
0700
0F80
7C00
F800
F000
0000
0000
0000
7000
7000
7000
7000
7000
7000
7000
7000
7000
7000
7000
7000
7000
7000
7000
7000
7000
7000
7000
7000
7000
7000
ENDCHAR
STARTCHAR $00EE
ENCODING 238
SWIDTH 185 0
DWIDTH 8 0
BBX 13 30 -3 0
BITMAP
0F80
1FC0
1FC0
7070
8008
8008
0000
0380
0380
0380
0380
0380
0380
0380
0380
0380
0380
0380
0380
0380
0380
0380
0380
0380
0380
0380
0380
0380
0380
0380
ENDCHAR
STARTCHAR $00EF
ENCODING 239
SWIDTH 185 0
DWIDTH 8 0
BBX 9 30 0 0
BITMAP
E380
E380
E380
E380
0000
0000
0000
1C00
1C00
1C00
1C00
1C00
1C00
1C00
1C00
1C00
1C00
1C00
1C00
1C00
1C00
1C00
1C00
1C00
1C00
1C00
1C00
1C00
1C00
1C00
ENDCHAR
STARTCHAR $00F0
ENCODING 240
SWIDTH 666 0
DWIDTH 27 0
BBX 24 30 1 0
BITMAP
01C700
00FF00
007F00
01FE00
01FF00
01CF00
0007C0
00FFE0
01FFE0
0FFFE0
1F00F0
1E00F8
7C003C
78001C
70001C
E0001C
E0001E
E0001F
E00007
E0001C
E0001C
F0001C
70001C
78001C
7C0038
1E00F8
1F00F0
0FFFE0
01FF00
00FF00
ENDCHAR
STARTCHAR $00F1
ENCODING 241
SWIDTH 592 0
DWIDTH 24 0
BBX 19 30 3 0
BITMAP
020000
1FC000
1FC600
0C7E00
003C00
003800
000000
E3F800
E3F800
FFFF00
FC0780
FC07C0
F001C0
E001C0
E001C0
E000E0
E000E0
E000E0
E000E0
E000E0
E000E0
E000E0
E000E0
E000E0
E000E0
E000E0
E000E0
E000E0
E000E0
E00060
ENDCHAR
STARTCHAR $00F2
ENCODING 242
SWIDTH 666 0
DWIDTH 27 0
BBX 24 30 1 1
BITMAP
038000
01E000
01F000
007E00
001C00
000800
000000
00FF00
01FF00
0FFFE0
1F00F0
1E00F8
7C003C
78001C
70001C
F0001C
E0001E
E0001F
E00007
E0001C
E0001C
F0001C
70001C
78001C
7C0038
1E00F8
1F00F0
0FFFE0
01FF00
00FF00
ENDCHAR
STARTCHAR $00F3
ENCODING 243
SWIDTH 666 0
DWIDTH 27 0
BBX 24 30 1 1
BITMAP
0007C0
000F80
000F00
007800
007000
007000
000000
00FF00
01FF00
0FFFE0
1F00F0
1E00F8
7C003C
78001C
70001C
F0001C
E0001E
E0001F
E00007
E0001C
E0001C
F0001C
70001C
78001C
7C0038
1E00F8
1F00F0
0FFFE0
01FF00
00FF00
ENDCHAR
STARTCHAR $00F4
ENCODING 244
SWIDTH 666 0
DWIDTH 27 0
BBX 24 30 1 0
BITMAP
003800
007C00
007E00
01C700
078380
0F81C0
000000
00FF00
01FF00
0FFFE0
1F00F0
1E00F8
7C003C
78001C
70001C
F0001C
E0001E
E0001F
E00007
E0001C
E0001C
F0001C
70001C
78001C
7C0038
1E00F8
1F00F0
0FFFE0
01FF00
00FF00
ENDCHAR
STARTCHAR $00F5
ENCODING 245
SWIDTH 666 0
DWIDTH 27 0
BBX 24 30 1 0
BITMAP
004000
03E100
03F100
023FC0
000600
000600
000000
00FF00
01FF00
0FFFE0
1F00F0
1E00F8
7C003C
78001C
70001C
F0001C
E0001E
E0001F
E00007
E0001C
E0001C
F0001C
70001C
78001C
7C0038
1E00F8
1F00F0
0FFFE0
01FF00
00FF00
ENDCHAR
STARTCHAR $00F6
ENCODING 246
SWIDTH 666 0
DWIDTH 27 0
BBX 24 28 1 1
BITMAP
01C700
01C700
01C700
01C700
000000
000000
01FF00
07FFE0
0FFFE0
1E00F8
3C007C
7C003C
70001C
F0001C
F0001C
E0001F
E00007
E00007
E0001C
F0001C
F0001C
70001C
7C0038
3C0038
1E00F8
0FFFE0
07FFE0
01FF00
ENDCHAR
STARTCHAR $00F7
ENCODING 247
SWIDTH 703 0
DWIDTH 29 0
BBX 22 21 3 0
BITMAP
003800
003800
003800
003800
000000
000000
000000
000000
000000
FFFFFC
FFFFFC
FFFFFC
000000
000000
000000
000000
001800
003800
003800
003800
001800
ENDCHAR
STARTCHAR $00F8
ENCODING 248
SWIDTH 666 0
DWIDTH 27 0
BBX 22 25 1 0
BITMAP
000018
00FF3C
01FF3C
0FFFF8
1F00F8
1E00F8
7C01F8
78039C
70071C
F00F1C
E01E1C
E03E1C
E0381C
E0701C
E0701C
E1C01C
73C01C
7BC01C
7F8038
1F00F8
1F00F8
1FFFE0
39FF00
30FF00
100000
ENDCHAR
STARTCHAR $00F9
ENCODING 249
SWIDTH 592 0
DWIDTH 24 0
BBX 19 31 3 1
BITMAP
0C0000
1E0000
1E0000
03C000
01E000
01F000
000000
000000
000000
E000E0
E000E0
E000E0
E000E0
E000E0
E000E0
E000E0
E000E0
E000E0
E000E0
E000E0
E000E0
E000E0
E000E0
E000E0
E001E0
F001E0
F801E0
7C07E0
1FFEE0
1FFEE0
0FF0E0
ENDCHAR
STARTCHAR $00FA
ENCODING 250
SWIDTH 592 0
DWIDTH 24 0
BBX 19 31 3 1
BITMAP
000600
001E00
003E00
01F800
03E000
03C000
000000
000000
000000
E000E0
E000E0
E000E0
E000E0
E000E0
E000E0
E000E0
E000E0
E000E0
E000E0
E000E0
E000E0
E000E0
E000E0
E000E0
E001E0
F001E0
F801E0
7C07E0
1FFEE0
1FFEE0
0FF0E0
ENDCHAR
STARTCHAR $00FB
ENCODING 251
SWIDTH 592 0
DWIDTH 24 0
BBX 19 30 3 0
BITMAP
01F000
03F800
03F800
1E0E00
000000
000000
000000
E00060
E000E0
E000E0
E000E0
E000E0
E000E0
E000E0
E000E0
E000E0
E000E0
E000E0
E000E0
E000E0
E000E0
E000E0
E001E0
E001E0
F001E0
7C07E0
3C07E0
1FFEE0
0FF0E0
07F060
ENDCHAR
STARTCHAR $00FC
ENCODING 252
SWIDTH 592 0
DWIDTH 24 0
BBX 19 30 3 0
BITMAP
0E3800
0E3800
0E3800
0E3800
000000
000000
000000
E00060
E000E0
E000E0
E000E0
E000E0
E000E0
E000E0
E000E0
E000E0
E000E0
E000E0
E000E0
E000E0
E000E0
E000E0
E001E0
E001E0
F001E0
7C07E0
3C07E0
1FFEE0
0FF0E0
07F060
ENDCHAR
STARTCHAR $00FD
ENCODING 253
SWIDTH 518 0
DWIDTH 21 0
BBX 21 39 0 -7
BITMAP
000100
000F00
000F00
007E00
00F000
01F000
004000
000000
000000
F00038
700078
7000F8
7000E0
1C00E0
1C00E0
1C01C0
1E01C0
1E01C0
0E0700
0E0700
070700
038F00
038E00
038E00
03CE00
01F800
01F800
01F800
007000
007000
007000
01F000
01F000
01C000
01C000
01C000
038000
038000
030000
ENDCHAR
STARTCHAR $00FE
ENCODING 254
SWIDTH 666 0
DWIDTH 27 0
BBX 22 37 3 -6
BITMAP
E00000
E00000
E00000
E00000
E00000
E00000
E00000
E0FC00
E1FE00
EFFFC0
FF01E0
FE01E0
F00038
E0003C
E0003C
E0001C
E0001C
E0001C
E0001C
E0001C
E0001C
E0001C
E0003C
E0003C
F00038
FE01E0
FF01E0
EFFFC0
E1FE00
E0FE00
E00000
E00000
E00000
E00000
E00000
E00000
E00000
ENDCHAR
STARTCHAR $00FF
ENCODING 255
SWIDTH 518 0
DWIDTH 21 0
BBX 21 37 0 -6
BITMAP
038E00
038E00
038E00
038E00
000000
000000
000000
F00030
F00038
7000F8
7000F0
3800E0
1C00E0
1C01C0
1C01C0
1E01C0
0E0380
0E0700
0E0700
038F00
038F00
038E00
03CE00
03EE00
01F800
01F800
00F800
007000
007000
007000
01F000
01C000
01C000
01C000
038000
038000
038000
ENDCHAR
STARTCHAR $0100
ENCODING 256
SWIDTH 740 0
DWIDTH 30 0
BBX 27 36 1 0
BITMAP
03FFF800
03FFF800
03FFF800
00000000
00000000
00000000
000E0000
001F0000
003F0000
003F0000
00718000
0071C000
0071C000
00F1C000
01F1C000
01C0E000
01C0E000
01C0E000
03803800
03803800
03803800
0E003C00
0FFFFC00
0FFFFC00
1FFFFC00
1C000700
1C000700
1C000700
38000380
70000380
70000380
E00003E0
E00001E0
E00000E0
E00000E0
E00000C0
ENDCHAR
STARTCHAR $0101
ENCODING 257
SWIDTH 666 0
DWIDTH 27 0
BBX 24 28 1 1
BITMAP
0FFFC0
0FFFC0
0FFFC0
000000
000000
000000
01FF07
07FFE7
0FFFE7
1E00FF
3C007F
7C003F
70001F
F0001F
F0001F
E00007
E00007
E00007
E00007
F0001F
F0001F
70001F
7C003F
3C003F
1E00E7
0FFFC7
07FFC7
01FF07
ENDCHAR
STARTCHAR $0102
ENCODING 258
SWIDTH 740 0
DWIDTH 30 0
BBX 27 37 1 1
BITMAP
01C0E000
01C0E000
01C0E000
007FC000
001E0000
000E0000
00000000
000C0000
000E0000
003F0000
003F0000
003F0000
0071C000
0071C000
0071C000
01F1C000
01E0E000
01C0E000
01C0E000
03803800
03803800
03803800
07003C00
0F003C00
0FFFFC00
1FFFFC00
1FFFFC00
1C000700
1C000700
1C000700
70000380
70000380
700003C0
E00003E0
E00000E0
E00000E0
E00000E0
ENDCHAR
STARTCHAR $0103
ENCODING 259
SWIDTH 666 0
DWIDTH 27 0
BBX 24 30 1 0
BITMAP
0381C0
0381C0
0381C0
01FF00
003C00
003800
000000
00FF06
01FF07
0FFFE7
1F00FF
1E00FF
7C003F
78001F
70001F
F0001F
E00007
E00007
E00007
E00007
E00007
F0001F
70001F
78001F
7C003F
1E00E7
1F00E7
0FFFC7
01FF07
00FF06
ENDCHAR
STARTCHAR $0104
ENCODING 260
SWIDTH 740 0
DWIDTH 30 0
BBX 28 40 1 -10
BITMAP
000E0000
001F0000
003F0000
003F0000
00738000
0071C000
0071C000
00F1C000
01F1C000
01C0E000
01C0E000
01C0E000
03803800
03803800
03803800
0E003C00
0FFFFC00
0FFFFC00
1FFFFC00
1C000700
1C000700
1C000700
38000380
70000380
70000380
E00003E0
E00003E0
E00000E0
E00000E0
E00000E0
000000E0
00000380
00000380
00000380
00000700
00000700
00000380
000003F0
000001F0
000000F0
ENDCHAR
STARTCHAR $0105
ENCODING 261
SWIDTH 666 0
DWIDTH 27 0
BBX 24 31 1 -8
BITMAP
01FF07
07FFE7
0FFFE7
1E00FF
3C007F
7C003F
70001F
F0001F
F0001F
E00007
E00007
E00007
E00007
F0000F
F0001F
70001F
7C003F
3C003F
1E00E7
0FFFC7
07FFC7
01FF07
00001C
00001C
000038
000020
000030
000038
00003F
00003F
00001F
ENDCHAR
STARTCHAR $0106
ENCODING 262
SWIDTH 814 0
DWIDTH 33 0
BBX 30 37 1 1
BITMAP
00003800
00007800
0000F800
0007E000
00078000
00070000
00000000
001FF000
003FF800
01FFFF00
07E00FC0
0FC007E0
1E0000F0
1C000070
1C000070
70000000
70000000
70000000
F0000000
E0000000
E0000000
E0000000
E0000000
E0000000
E0000000
70000000
70000000
70000000
7C00001C
3C000038
1E000070
0F8000E0
078001C0
03C00780
01FFFF00
00FFFE00
003FF800
ENDCHAR
STARTCHAR $0107
ENCODING 263
SWIDTH 629 0
DWIDTH 26 0
BBX 22 30 1 1
BITMAP
0007C0
000F80
000F00
007E00
003000
003000
000000
00FF00
01FF00
0FFFE0
1F00F0
1E00F8
7C003C
78001C
70001C
F00000
E00000
E00000
E00000
E00000
E00000
F00000
70001C
78001C
7C003C
1E00F8
1F00F0
0FFFE0
01FF00
00FF00
ENDCHAR
STARTCHAR $0108
ENCODING 264
SWIDTH 814 0
DWIDTH 33 0
BBX 30 36 1 0
BITMAP
0007C000
001EF000
003EF800
00783C00
00000000
00000000
003FF800
00FFFE00
01FFFF00
0FC007E0
1F0001F0
1E0000F0
1C000070
38000000
70000000
70000000
F0000000
F0000000
E0000000
E0000000
E0000000
E0000000
E0000000
E0000000
70000000
70000000
78000000
7C00001C
1E000070
1F000070
0F8000E0
03C00780
03E00F80
01FFFF00
003FF800
001FF000
ENDCHAR
STARTCHAR $0109
ENCODING 265
SWIDTH 629 0
DWIDTH 26 0
BBX 22 30 1 0
BITMAP
003800
007C00
007E00
01C700
0783E0
0F81E0
000000
00FF00
01FF00
0FFFE0
1F00F0
1E00F8
7C003C
78001C
70001C
F00000
E00000
E00000
E00000
E00000
E00000
F00000
70001C
78001C
7C003C
1E00F8
1F00F0
0FFFE0
01FF00
00FF00
ENDCHAR
STARTCHAR $010A
ENCODING 266
SWIDTH 814 0
DWIDTH 33 0
BBX 30 36 1 0
BITMAP
0001C000
0001C000
0001C000
0001C000
00000000
00000000
003FF800
00FFFE00
01FFFF00
0FC007E0
1F0001F0
1E0000F0
1C000070
38000000
70000000
70000000
F0000000
F0000000
E0000000
E0000000
E0000000
E0000000
E0000000
E0000000
70000000
70000000
78000000
7C00001C
1E000070
1F000070
0F8000E0
03C00780
03E00F80
01FFFF00
003FF800
001FF000
ENDCHAR
STARTCHAR $010B
ENCODING 267
SWIDTH 629 0
DWIDTH 26 0
BBX 22 28 1 1
BITMAP
003800
003800
003800
003800
000000
000000
01FF00
07FFE0
0FFFE0
1E00F8
3C007C
7C003C
70001C
F00000
F00000
E00000
E00000
E00000
E00000
F00000
F00000
70001C
7C003C
3C003C
1E00F8
0FFFE0
07FFE0
01FF00
ENDCHAR
STARTCHAR $010C
ENCODING 268
SWIDTH 814 0
DWIDTH 33 0
BBX 30 36 1 0
BITMAP
00783C00
001C7000
000EE000
0007C000
00000000
00000000
003FF800
00FFFE00
01FFFF00
0FC007E0
1F0001F0
1E0000F0
1C000070
38000000
70000000
70000000
F0000000
F0000000
E0000000
E0000000
E0000000
E0000000
E0000000
E0000000
70000000
70000000
78000000
7C00001C
1E000070
1F000070
0F8000E0
03C00780
03E00F80
01FFFF00
003FF800
001FF000
ENDCHAR
STARTCHAR $010D
ENCODING 269
SWIDTH 629 0
DWIDTH 26 0
BBX 22 30 1 0
BITMAP
0F81E0
01C380
01C700
007E00
003C00
003800
000000
00FF00
01FF00
0FFFE0
1F00F0
1E00F8
7C003C
78001C
70001C
F00000
E00000
E00000
E00000
E00000
E00000
F00000
70001C
78001C
7C003C
1E00F8
1F00F0
0FFFE0
01FF00
00FF00
ENDCHAR
STARTCHAR $010E
ENCODING 270
SWIDTH 740 0
DWIDTH 30 0
BBX 25 37 3 1
BITMAP
1C0F0000
0E1C0000
0E380000
03F00000
01E00000
01C00000
00000000
FFFC0000
FFFE0000
FFFFC000
E001F000
E001F800
E0003C00
E0001C00
E0001C00
E0000700
E0000700
E0000700
E0000380
E0000380
E0000380
E0000380
E0000380
E0000380
E0000380
E0000380
E0000380
E0000700
E0000700
E0000E00
E0001C00
E0003C00
E0007C00
E001F800
FFFFC000
FFFF8000
FFFE0000
ENDCHAR
STARTCHAR $010F
ENCODING 271
SWIDTH 703 0
DWIDTH 29 0
BBX 31 30 1 0
BITMAP
0000070E
0000071C
0000071C
0000071C
0000071C
0000071C
0000071C
00FF0700
01FF0700
0FFFE700
1F00FF00
1E00FF00
7C003F00
78001F00
70001F00
F0001F00
E0000700
E0000700
E0000700
E0000700
E0000700
F0000700
70001F00
78001F00
7C003F00
1E00E700
1F00E700
0FFFC700
01FF0700
00FF0600
ENDCHAR
STARTCHAR $0110
ENCODING 272
SWIDTH 777 0
DWIDTH 32 0
BBX 28 30 1 0
BITMAP
1FFFC000
1FFFF000
1FFFF800
1C003F00
1C000F80
1C000780
1C0003E0
1C0001E0
1C0000E0
1C0000F0
1C000070
1C000070
1C000070
FFFE0070
FFFE0070
FFFE0070
1C000070
1C000070
1C000070
1C0000F0
1C0000F0
1C0000E0
1C0003E0
1C0003C0
1C000780
1C003F00
1C003E00
1FFFF800
1FFFC000
1FFF8000
ENDCHAR
STARTCHAR $0111
ENCODING 273
SWIDTH 703 0
DWIDTH 29 0
BBX 25 30 1 0
BITMAP
00000700
00000700
00000700
0001FF80
0001FF80
0001FF80
00000700
00FF0700
01FF0700
0FFFE700
1F00FF00
1E00FF00
7C003F00
78001F00
70001F00
F0001F00
E0000700
E0000700
E0000700
E0000700
E0000700
F0000700
70001F00
78001F00
7C003F00
1E00E700
1F00E700
0FFFC700
01FF0700
00FF0600
ENDCHAR
STARTCHAR $0112
ENCODING 274
SWIDTH 518 0
DWIDTH 21 0
BBX 16 36 3 0
BITMAP
7FFE
7FFE
3FFE
0000
0000
0000
FFFF
FFFF
FFFF
E000
E000
E000
E000
E000
E000
E000
E000
E000
E000
FFFF
FFFF
FFFF
E000
E000
E000
E000
E000
E000
E000
E000
E000
E000
E000
FFFF
FFFF
FFFF
ENDCHAR
STARTCHAR $0113
ENCODING 275
SWIDTH 666 0
DWIDTH 27 0
BBX 22 28 1 1
BITMAP
0FFFC0
0FFFC0
0FFFC0
000000
000000
000000
01FF00
07FFE0
0FFFE0
1E00F8
3C0078
7C0038
70001C
E0001C
E0001C
FFFFFC
FFFFFC
FFFFFC
E00000
E00000
E00000
70001C
7C0038
3C0038
1E00E0
0FFFC0
07FFC0
01FE00
ENDCHAR
STARTCHAR $0114
ENCODING 276
SWIDTH 518 0
DWIDTH 21 0
BBX 16 37 3 1
BITMAP
700E
381C
1C38
1FF8
0180
0180
0000
FFFF
FFFF
FFFF
E000
E000
E000
E000
E000
E000
E000
E000
E000
E000
E000
FFFF
FFFF
FFFF
E000
E000
E000
E000
E000
E000
E000
E000
E000
E000
FFFF
FFFF
FFFF
ENDCHAR
STARTCHAR $0115
ENCODING 277
SWIDTH 666 0
DWIDTH 27 0
BBX 22 30 1 0
BITMAP
0201C0
0301C0
0381C0
01FF00
003000
003000
000000
00FF00
01FF00
0FFFE0
1F00F0
1E00F8
7C0038
78001C
70001C
E0001C
FFFFFC
FFFFFC
FFFFFC
E00000
E00000
E00000
70001C
78001C
7C0038
1E00E0
1F00E0
0FFFC0
01FE00
00FE00
ENDCHAR
STARTCHAR $0116
ENCODING 278
SWIDTH 518 0
DWIDTH 21 0
BBX 16 37 3 1
BITMAP
03C0
03C0
03C0
03C0
0000
0000
0000
FFFF
FFFF
FFFF
E000
E000
E000
E000
E000
E000
E000
E000
E000
E000
E000
FFFF
FFFF
FFFF
E000
E000
E000
E000
E000
E000
E000
E000
E000
E000
FFFF
FFFF
FFFF
ENDCHAR
STARTCHAR $0117
ENCODING 279
SWIDTH 666 0
DWIDTH 27 0
BBX 22 28 1 1
BITMAP
003800
003800
003800
003800
000000
000000
01FF00
07FFE0
0FFFE0
1E00F8
3C0078
7C0038
70001C
E0001C
E0001C
FFFFFC
FFFFFC
FFFFFC
E00000
E00000
E00000
70001C
7C0038
3C0038
1E00E0
0FFFC0
07FFC0
01FE00
ENDCHAR
STARTCHAR $0118
ENCODING 280
SWIDTH 518 0
DWIDTH 21 0
BBX 16 40 3 -10
BITMAP
FFFF
FFFF
FFFF
E000
E000
E000
E000
E000
E000
E000
E000
E000
E000
FFFF
FFFF
FFFF
E000
E000
E000
E000
E000
E000
E000
E000
E000
E000
E000
FFFF
FFFF
FFFF
000E
0038
0038
0038
0038
0038
0038
003F
001F
000F
ENDCHAR
STARTCHAR $0119
ENCODING 281
SWIDTH 666 0
DWIDTH 27 0
BBX 22 31 1 -8
BITMAP
01FF00
07FFE0
0FFFE0
1E00F8
3C0078
7C0038
70001C
E0001C
E0001C
FFFFFC
FFFFFC
FFFFFC
E00000
E00000
E00000
70001C
7C0038
3C0038
1E00E0
0FFFC0
07FFC0
01FF00
000800
000800
003800
007000
007000
007800
003F00
001F00
000F00
ENDCHAR
STARTCHAR $011A
ENCODING 282
SWIDTH 518 0
DWIDTH 21 0
BBX 16 37 3 1
BITMAP
700E
3E7C
1E78
0FF0
03E0
03C0
0000
FFFF
FFFF
FFFF
E000
E000
E000
E000
E000
E000
E000
E000
E000
E000
E000
FFFF
FFFF
FFFF
E000
E000
E000
E000
E000
E000
E000
E000
E000
E000
FFFF
FFFF
FFFF
ENDCHAR
STARTCHAR $011B
ENCODING 283
SWIDTH 666 0
DWIDTH 27 0
BBX 22 30 1 0
BITMAP
0F81C0
07C380
03C700
01FE00
003C00
003800
000000
00FF00
01FF00
0FFFE0
1F00F0
1E00F8
7C0038
78001C
70001C
E0001C
FFFFFC
FFFFFC
FFFFFC
E00000
E00000
E00000
70001C
78001C
7C0038
1E00E0
1F00E0
0FFFC0
01FE00
00FE00
ENDCHAR
STARTCHAR $011C
ENCODING 284
SWIDTH 888 0
DWIDTH 36 0
BBX 31 36 1 0
BITMAP
0007E000
000EF000
000EF800
00381C00
00000000
00000000
000FF800
00FFFF80
01FFFF80
03C007E0
078001F0
0F8000F0
1C00007C
3C00003C
7C00001C
70000000
70000000
70000000
E0000000
E0000000
E0000000
E0000000
E00FFFFE
E00FFFFE
F00FFFFE
7000000E
7800000E
7C00001C
1C00001C
1C000038
0F8000F0
03C003E0
03E003C0
01FFFF80
000FF800
000FF000
ENDCHAR
STARTCHAR $011D
ENCODING 285
SWIDTH 666 0
DWIDTH 27 0
BBX 22 39 1 -9
BITMAP
003800
00FC00
01FE00
03C700
078380
0F81C0
000000
00FF0C
01FF1C
0FFFDC
1F01FC
1E01FC
7C003C
78001C
70001C
E0001C
E0001C
E0001C
E0001C
E0001C
E0001C
F0001C
70001C
78001C
7C003C
1E00FC
1F00FC
0FFFDC
01FE1C
00FE1C
70001C
70001C
38001C
1C0038
1F80F8
1F80F0
0FFFE0
007F00
007F00
ENDCHAR
STARTCHAR $011E
ENCODING 286
SWIDTH 888 0
DWIDTH 36 0
BBX 31 36 1 0
BITMAP
00381C00
003FF800
003FF800
000FE000
00000000
00000000
000FF800
00FFFF80
01FFFF80
03C007E0
078001F0
0F8000F0
1C00007C
3C00003C
7C00001C
70000000
70000000
70000000
E0000000
E0000000
E0000000
E0000000
E00FFFFE
E00FFFFE
F00FFFFE
7000000E
7800000E
7C00001C
1C00001C
1C000038
0F8000F0
03C003E0
03E003C0
01FFFF80
000FF800
000FF000
ENDCHAR
STARTCHAR $011F
ENCODING 287
SWIDTH 666 0
DWIDTH 27 0
BBX 22 39 1 -9
BITMAP
0201C0
030380
038700
01FF00
003000
003000
000000
00FF0C
01FF1C
0FFFDC
1F01FC
1E01FC
7C003C
78001C
70001C
E0001C
E0001C
E0001C
E0001C
E0001C
E0001C
F0001C
70001C
78001C
7C003C
1E00FC
1F00FC
0FFFDC
01FE1C
00FE1C
70001C
70001C
38001C
1C0038
1F80F8
1F80F0
0FFFE0
007F00
007F00
ENDCHAR
STARTCHAR $0120
ENCODING 288
SWIDTH 888 0
DWIDTH 36 0
BBX 31 36 1 0
BITMAP
0001C000
0001C000
0001C000
0001C000
00000000
00000000
000FF800
00FFFF80
01FFFF80
03C007E0
078001F0
0F8000F0
1C00007C
3C00003C
7C00001C
70000000
70000000
70000000
E0000000
E0000000
E0000000
E0000000
E00FFFFE
E00FFFFE
F00FFFFE
7000000E
7800000E
7C00001C
1C00001C
1C000038
0F8000F0
03C003E0
03E003C0
01FFFF80
000FF800
000FF000
ENDCHAR
STARTCHAR $0121
ENCODING 289
SWIDTH 666 0
DWIDTH 27 0
BBX 22 37 1 -8
BITMAP
003800
003800
003800
003800
000000
000000
01FF1C
07FF9C
0FFFDC
1E01FC
3C007C
7C003C
70001C
E0001C
E0001C
E0001C
E0001C
E0001C
E0001C
F0001C
F0001C
70001C
7C003C
3C003C
1E00FC
0FFFDC
07FFDC
01FE1C
30001C
70001C
70001C
1C0038
1C0078
1F80F8
0FFFE0
07FFE0
007F00
ENDCHAR
STARTCHAR $0122
ENCODING 290
SWIDTH 888 0
DWIDTH 36 0
BBX 31 39 1 -9
BITMAP
000FF800
00FFFF80
01FFFF80
03C007E0
078001F0
0F8000F0
1C00007C
3C00003C
7C00001C
70000000
70000000
70000000
E0000000
E0000000
E0000000
E0000000
E00FFFFE
E00FFFFE
F00FFFFE
7000000E
7800000E
7C00001C
1C00001C
1C000038
0F8000F0
03C003E0
03E003C0
01FFFF80
000FF800
000FF000
00000000
0001C000
0001C000
0001C000
00070000
00070000
00070000
00070000
00030000
ENDCHAR
STARTCHAR $0123
ENCODING 291
SWIDTH 666 0
DWIDTH 27 0
BBX 22 40 1 -9
BITMAP
003800
003800
003800
003800
007000
007000
007000
000000
000000
01FF1C
07FF9C
0FFFDC
1E01FC
3C003C
7C003C
70001C
E0001C
E0001C
E0001C
E0001C
E0001C
E0001C
F0001C
F0001C
70001C
7C003C
3C003C
1E00FC
0FFFDC
07FF9C
01FE1C
30001C
70001C
70001C
1C0038
1C0078
1F80F8
0FFFE0
07FFE0
007F00
ENDCHAR
STARTCHAR $0124
ENCODING 292
SWIDTH 666 0
DWIDTH 27 0
BBX 21 37 3 1
BITMAP
007000
00FC00
01FE00
038F00
070780
0E07C0
000000
E00030
E00038
E00038
E00038
E00038
E00038
E00038
E00038
E00038
E00038
E00038
E00038
E00038
E00038
FFFFF8
FFFFF8
FFFFF8
E00038
E00038
E00038
E00038
E00038
E00038
E00038
E00038
E00038
E00038
E00038
E00038
E00038
ENDCHAR
STARTCHAR $0125
ENCODING 293
SWIDTH 592 0
DWIDTH 24 0
BBX 19 37 3 1
BITMAP
01C000
03F800
03F800
0E3E00
1C1F00
1C0F00
000000
E00000
E00000
E00000
E00000
E00000
E00000
E00000
E00000
E3F800
FFFF00
FFFF00
FC07C0
F801C0
F001C0
E001C0
E000E0
E000E0
E000E0
E000E0
E000E0
E000E0
E000E0
E000E0
E000E0
E000E0
E000E0
E000E0
E000E0
E000E0
E000E0
ENDCHAR
STARTCHAR $0126
ENCODING 294
SWIDTH 666 0
DWIDTH 27 0
BBX 27 30 0 0
BITMAP
1C000700
1C000700
1C000700
1C000700
FFFFFFC0
FFFFFFE0
FFFFFFE0
1C000F00
1C000700
1C000700
1C000700
1C000700
1C000700
1FFFFF00
1FFFFF00
1FFFFF00
1C000700
1C000700
1C000700
1C000700
1C000700
1C000700
1C000700
1C000700
1C000700
1C000700
1C000700
1C000700
1C000700
1C000600
ENDCHAR
STARTCHAR $0127
ENCODING 295
SWIDTH 592 0
DWIDTH 24 0
BBX 22 30 0 0
BITMAP
1C0000
1C0000
1C0000
FF8000
FF8000
FF8000
1C0000
1C7F00
1C7F00
1FFFE0
1F80F0
1F80F8
1E0038
1C003C
1C003C
1C001C
1C001C
1C001C
1C001C
1C001C
1C001C
1C001C
1C001C
1C001C
1C001C
1C001C
1C001C
1C001C
1C001C
1C000C
ENDCHAR
STARTCHAR $0128
ENCODING 296
SWIDTH 222 0
DWIDTH 9 0
BBX 12 37 -1 1
BITMAP
1000
F800
FC30
63F0
0180
0180
0000
0600
0E00
0E00
0E00
0E00
0E00
0E00
0E00
0E00
0E00
0E00
0E00
0E00
0E00
0E00
0E00
0E00
0E00
0E00
0E00
0E00
0E00
0E00
0E00
0E00
0E00
0E00
0E00
0E00
0E00
ENDCHAR
STARTCHAR $0129
ENCODING 297
SWIDTH 185 0
DWIDTH 8 0
BBX 12 30 -1 0
BITMAP
7000
FFE0
FFF0
8FC0
0000
0000
0000
0600
0E00
0E00
0E00
0E00
0E00
0E00
0E00
0E00
0E00
0E00
0E00
0E00
0E00
0E00
0E00
0E00
0E00
0E00
0E00
0E00
0E00
0600
ENDCHAR
STARTCHAR $012A
ENCODING 298
SWIDTH 222 0
DWIDTH 9 0
BBX 15 36 -3 0
BITMAP
FFFE
FFFE
FFFE
0000
0000
0000
0380
0380
0380
0380
0380
0380
0380
0380
0380
0380
0380
0380
0380
0380
0380
0380
0380
0380
0380
0380
0380
0380
0380
0380
0380
0380
0380
0380
0380
0300
ENDCHAR
STARTCHAR $012B
ENCODING 299
SWIDTH 185 0
DWIDTH 8 0
BBX 13 28 -3 1
BITMAP
FFF8
FFF8
FFF8
0000
0000
0000
0380
0380
0380
0380
0380
0380
0380
0380
0380
0380
0380
0380
0380
0380
0380
0380
0380
0380
0380
0380
0380
0380
ENDCHAR
STARTCHAR $012C
ENCODING 300
SWIDTH 222 0
DWIDTH 9 0
BBX 12 37 -1 1
BITMAP
E070
E070
E070
7FC0
0F00
0E00
0000
0600
0E00
0E00
0E00
0E00
0E00
0E00
0E00
0E00
0E00
0E00
0E00
0E00
0E00
0E00
0E00
0E00
0E00
0E00
0E00
0E00
0E00
0E00
0E00
0E00
0E00
0E00
0E00
0E00
0E00
ENDCHAR
STARTCHAR $012D
ENCODING 301
SWIDTH 185 0
DWIDTH 8 0
BBX 12 30 -1 0
BITMAP
8070
C0E0
E1C0
7FC0
0C00
0C00
0000
0600
0E00
0E00
0E00
0E00
0E00
0E00
0E00
0E00
0E00
0E00
0E00
0E00
0E00
0E00
0E00
0E00
0E00
0E00
0E00
0E00
0E00
0600
ENDCHAR
STARTCHAR $012E
ENCODING 302
SWIDTH 222 0
DWIDTH 9 0
BBX 6 40 0 -10
BITMAP
1C
1C
1C
1C
1C
1C
1C
1C
1C
1C
1C
1C
1C
1C
1C
1C
1C
1C
1C
1C
1C
1C
1C
1C
1C
1C
1C
1C
1C
1C
1C
38
70
E0
E0
E0
E0
FC
FC
7C
ENDCHAR
STARTCHAR $012F
ENCODING 303
SWIDTH 185 0
DWIDTH 8 0
BBX 7 40 -1 -10
BITMAP
0E
0E
0E
0E
00
00
00
06
0E
0E
0E
0E
0E
0E
0E
0E
0E
0E
0E
0E
0E
0E
0E
0E
0E
0E
0E
0E
0E
0E
1C
38
70
70
E0
E0
70
7E
3E
1E
ENDCHAR
STARTCHAR $0130
ENCODING 304
SWIDTH 222 0
DWIDTH 9 0
BBX 3 37 3 1
BITMAP
E0
E0
E0
E0
00
00
00
E0
E0
E0
E0
E0
E0
E0
E0
E0
E0
E0
E0
E0
E0
E0
E0
E0
E0
E0
E0
E0
E0
E0
E0
E0
E0
E0
E0
E0
E0
ENDCHAR
STARTCHAR $0131
ENCODING 305
SWIDTH 185 0
DWIDTH 8 0
BBX 3 22 3 1
BITMAP
E0
E0
E0
E0
E0
E0
E0
E0
E0
E0
E0
E0
E0
E0
E0
E0
E0
E0
E0
E0
E0
E0
ENDCHAR
STARTCHAR $0132
ENCODING 306
SWIDTH 666 0
DWIDTH 27 0
BBX 21 30 3 0
BITMAP
E00038
E00038
E00038
E00038
E00038
E00038
E00038
E00038
E00038
E00038
E00038
E00038
E00038
E00038
E00038
E00038
E00038
E00038
E00038
E00038
E00038
E00038
E38038
E38038
E38038
E3C0F8
E3E0F0
E1FFE0
E07F00
E07F00
ENDCHAR
STARTCHAR $0133
ENCODING 307
SWIDTH 407 0
DWIDTH 17 0
BBX 10 37 3 -6
BITMAP
E1C0
E1C0
E1C0
E1C0
0000
0000
0000
E0C0
E1C0
E1C0
E1C0
E1C0
E1C0
E1C0
E1C0
E1C0
E1C0
E1C0
E1C0
E1C0
E1C0
E1C0
E1C0
E1C0
E1C0
E1C0
E1C0
E1C0
E1C0
E1C0
01C0
01C0
01C0
03C0
1F80
1F00
1C00
ENDCHAR
STARTCHAR $0134
ENCODING 308
SWIDTH 481 0
DWIDTH 20 0
BBX 22 37 0 1
BITMAP
000700
000F80
000FC0
0038E0
00F07C
01F03C
000000
000300
000700
000700
000700
000700
000700
000700
000700
000700
000700
000700
000700
000700
000700
000700
000700
000700
000700
000700
000700
000700
000700
000700
E00700
700F00
780F00
7C0E00
1FF800
1FF800
0FF000
ENDCHAR
STARTCHAR $0135
ENCODING 309
SWIDTH 185 0
DWIDTH 8 0
BBX 12 37 -1 -6
BITMAP
1E00
3F00
7F80
F1F0
0000
0000
0000
0600
0E00
0E00
0E00
0E00
0E00
0E00
0E00
0E00
0E00
0E00
0E00
0E00
0E00
0E00
0E00
0E00
0E00
0E00
0E00
0E00
0E00
0E00
0E00
1C00
1C00
1C00
F000
F000
E000
ENDCHAR
STARTCHAR $0136
ENCODING 310
SWIDTH 592 0
DWIDTH 24 0
BBX 19 39 3 -9
BITMAP
E000E0
E001E0
E001E0
E007C0
E00F80
E00F00
E00E00
E01C00
E03800
E07800
E0F000
E1F000
E3C000
E38000
E38000
EF8000
FDC000
FCE000
FC7000
F87800
F07C00
E03E00
E00E00
E00E00
E00700
E007C0
E003C0
E001E0
E000E0
E00060
000000
007000
007000
007000
01C000
01C000
01C000
01C000
00C000
ENDCHAR
STARTCHAR $0137
ENCODING 311
SWIDTH 518 0
DWIDTH 21 0
BBX 16 39 3 -9
BITMAP
E000
E000
E000
E000
E000
E000
E000
E00F
E00F
E03E
E03C
E038
E070
E0F0
E1F0
E3C0
E380
E380
EE00
FF80
FF80
FFC0
F9F0
F0F0
E078
E038
E01C
E00E
E00F
E00F
0000
01C0
01C0
0380
0380
0380
0380
0E00
0600
ENDCHAR
STARTCHAR $0139
ENCODING 313
SWIDTH 444 0
DWIDTH 18 0
BBX 16 37 1 2
BITMAP
0F80
1F00
1E00
FC00
6000
2000
0000
3000
7000
7000
7000
7000
7000
7000
7000
7000
7000
7000
7000
7000
7000
7000
7000
7000
7000
7000
7000
7000
7000
7000
7000
7000
7000
7000
7FFF
7FFF
7FFF
ENDCHAR
STARTCHAR $013A
ENCODING 314
SWIDTH 185 0
DWIDTH 8 0
BBX 9 37 1 2
BITMAP
0F80
3F00
7E00
F000
E000
E000
0000
3000
7000
7000
7000
7000
7000
7000
7000
7000
7000
7000
7000
7000
7000
7000
7000
7000
7000
7000
7000
7000
7000
7000
7000
7000
7000
7000
7000
7000
7000
ENDCHAR
STARTCHAR $013B
ENCODING 315
SWIDTH 444 0
DWIDTH 18 0
BBX 15 39 3 -9
BITMAP
E000
E000
E000
E000
E000
E000
E000
E000
E000
E000
E000
E000
E000
E000
E000
E000
E000
E000
E000
E000
E000
E000
E000
E000
E000
E000
E000
FFFE
FFFE
FFFE
0000
0380
0380
0380
0380
0380
0380
0E00
0600
ENDCHAR
STARTCHAR $013C
ENCODING 316
SWIDTH 185 0
DWIDTH 8 0
BBX 4 39 1 -9
BITMAP
70
70
70
70
70
70
70
70
70
70
70
70
70
70
70
70
70
70
70
70
70
70
70
70
70
70
70
70
70
30
00
30
70
70
E0
E0
E0
E0
C0
ENDCHAR
STARTCHAR $013D
ENCODING 317
SWIDTH 444 0
DWIDTH 18 0
BBX 15 30 3 0
BITMAP
E1C0
E1C0
E1C0
E380
E380
E380
E380
E000
E000
E000
E000
E000
E000
E000
E000
E000
E000
E000
E000
E000
E000
E000
E000
E000
E000
E000
E000
FFFE
FFFE
FFFE
ENDCHAR
STARTCHAR $013E
ENCODING 318
SWIDTH 185 0
DWIDTH 8 0
BBX 10 30 3 0
BITMAP
E1C0
E380
E380
E380
E380
E380
EE00
E000
E000
E000
E000
E000
E000
E000
E000
E000
E000
E000
E000
E000
E000
E000
E000
E000
E000
E000
E000
E000
E000
E000
ENDCHAR
STARTCHAR $013F
ENCODING 319
SWIDTH 444 0
DWIDTH 18 0
BBX 15 30 3 0
BITMAP
E000
E000
E000
E000
E000
E000
E000
E000
E000
E000
E000
E000
E070
E070
E070
E070
E000
E000
E000
E000
E000
E000
E000
E000
E000
E000
E000
FFFE
FFFE
FFFE
ENDCHAR
STARTCHAR $0140
ENCODING 320
SWIDTH 259 0
DWIDTH 11 0
BBX 7 30 3 0
BITMAP
E0
E0
E0
E0
E0
E0
E0
E0
E0
E0
E0
E0
EE
EE
EE
EE
E0
E0
E0
E0
E0
E0
E0
E0
E0
E0
E0
E0
E0
E0
ENDCHAR
STARTCHAR $0141
ENCODING 321
SWIDTH 518 0
DWIDTH 21 0
BBX 19 30 1 0
BITMAP
1C0000
1C0000
1C0000
1C0000
1C0000
1C0000
1C0000
1C0800
1C0800
1C7800
1CF000
1DF000
1FC000
1F0000
1E0000
7C0000
FC0000
FC0000
9C0000
1C0000
1C0000
1C0000
1C0000
1C0000
1C0000
1C0000
1C0000
1FFFE0
1FFFE0
1FFFE0
ENDCHAR
STARTCHAR $0142
ENCODING 322
SWIDTH 296 0
DWIDTH 12 0
BBX 9 30 1 0
BITMAP
1C00
1C00
1C00
1C00
1C00
1C00
1C00
1C00
1C00
1C00
1C80
1D80
1F80
3C00
7C00
FC00
DC00
9C00
1C00
1C00
1C00
1C00
1C00
1C00
1C00
1C00
1C00
1C00
1C00
1C00
ENDCHAR
STARTCHAR $0143
ENCODING 323
SWIDTH 740 0
DWIDTH 30 0
BBX 24 37 3 2
BITMAP
0007C0
000F80
000F00
007800
003000
003000
000000
F00006
F80007
FC0007
FC0007
FC0007
EE0007
EF8007
E78007
E38007
E1C007
E1E007
E1F007
E07007
E07007
E03807
E03E07
E01E07
E00F07
E00707
E00387
E001C7
E001E7
E001E7
E000E7
E0003F
E0003F
E0003F
E0001F
E0000F
E00007
ENDCHAR
STARTCHAR $0144
ENCODING 324
SWIDTH 592 0
DWIDTH 24 0
BBX 19 31 3 1
BITMAP
000600
001E00
003E00
01F800
03E000
03C000
000000
000000
000000
E3F800
FFFF00
FFFF00
FC07C0
F801C0
F001C0
E001C0
E000E0
E000E0
E000E0
E000E0
E000E0
E000E0
E000E0
E000E0
E000E0
E000E0
E000E0
E000E0
E000E0
E000E0
E000E0
ENDCHAR
STARTCHAR $0145
ENCODING 325
SWIDTH 740 0
DWIDTH 30 0
BBX 24 39 3 -9
BITMAP
F00007
F80007
FC0007
FC0007
EE0007
EE0007
EF8007
E38007
E38007
E1C007
E1F007
E1F007
E07007
E03807
E03807
E03E07
E00F07
E00F07
E00707
E001C7
E001C7
E001E7
E000E7
E00067
E0003F
E0003F
E0003F
E0001F
E00007
E00006
000000
003800
003800
003800
003800
003800
007000
007000
006000
ENDCHAR
STARTCHAR $0146
ENCODING 326
SWIDTH 592 0
DWIDTH 24 0
BBX 19 31 3 -8
BITMAP
E3F800
FFFF00
FFFF00
FC07C0
F803C0
F001C0
E001C0
E000E0
E000E0
E000E0
E000E0
E000E0
E000E0
E000E0
E000E0
E000E0
E000E0
E000E0
E000E0
E000E0
E000E0
E000E0
000000
000000
01F000
01C000
01C000
01C000
01C000
01C000
038000
ENDCHAR
STARTCHAR $0147
ENCODING 327
SWIDTH 740 0
DWIDTH 30 0
BBX 24 37 3 1
BITMAP
0F81C0
01C380
01C700
007E00
003C00
003800
000000
F00006
F80007
FC0007
FC0007
FC0007
EE0007
EF8007
E78007
E38007
E1C007
E1E007
E1F007
E07007
E07007
E03807
E03E07
E01E07
E00F07
E00707
E00387
E001C7
E001E7
E001E7
E000E7
E0003F
E0003F
E0003F
E0001F
E0000F
E00007
ENDCHAR
STARTCHAR $0148
ENCODING 328
SWIDTH 592 0
DWIDTH 24 0
BBX 19 30 3 0
BITMAP
1C0E00
0F1C00
0FB800
03F000
000000
000000
000000
E3F800
E3F800
FFFF00
FC0780
FC07C0
F001C0
E001C0
E001C0
E000E0
E000E0
E000E0
E000E0
E000E0
E000E0
E000E0
E000E0
E000E0
E000E0
E000E0
E000E0
E000E0
E000E0
E00060
ENDCHAR
STARTCHAR $014A
ENCODING 330
SWIDTH 740 0
DWIDTH 30 0
BBX 24 40 3 -10
BITMAP
F00007
F80007
FC0007
FC0007
EE0007
EE0007
EF8007
E38007
E38007
E1C007
E1F007
E1F007
E07007
E03807
E03807
E03E07
E00F07
E00F07
E00707
E001C7
E001C7
E001E7
E000E7
E00067
E0003F
E0003F
E0003F
E0001F
E00007
E00007
000007
000007
000007
01C007
00701C
00701C
00783C
003FF8
001FF0
000FC0
ENDCHAR
STARTCHAR $014B
ENCODING 331
SWIDTH 592 0
DWIDTH 24 0
BBX 19 30 3 -7
BITMAP
E3F800
FFFF00
FFFF00
FC07C0
F803C0
F001C0
E001C0
E000E0
E000E0
E000E0
E000E0
E000E0
E000E0
E000E0
E000E0
E000E0
E000E0
E000E0
E000E0
E000E0
E000E0
E000E0
0000E0
0000E0
0001C0
0001C0
0001C0
000F00
000E00
000E00
ENDCHAR
STARTCHAR $014C
ENCODING 332
SWIDTH 851 0
DWIDTH 35 0
BBX 31 36 1 0
BITMAP
007FFC00
007FFC00
007FFC00
00000000
00000000
00000000
000FF800
00FFFE00
01FFFF00
03C007E0
078001F0
0F8000F0
1C00007C
3C00003C
7C00001C
7000001E
7000000E
7000000E
E000000E
E000000E
E000000E
E000000E
E000000E
E000000E
7000000E
7000001E
7800001E
7C00001C
1E00007C
1F000078
0F8000F0
03C007E0
03E00FC0
01FFFF00
003FF800
001FF000
ENDCHAR
STARTCHAR $014D
ENCODING 333
SWIDTH 666 0
DWIDTH 27 0
BBX 24 28 1 1
BITMAP
0FFFC0
0FFFC0
0FFFC0
000000
000000
000000
01FF00
07FFE0
0FFFE0
1E00F8
3C007C
7C003C
70001C
F0001C
F0001C
E0001F
E00007
E00007
E0001C
F0001C
F0001C
70001C
7C0038
3C0038
1E00F8
0FFFE0
07FFE0
01FF00
ENDCHAR
STARTCHAR $014E
ENCODING 334
SWIDTH 851 0
DWIDTH 35 0
BBX 31 36 1 0
BITMAP
00381C00
003FF800
003FF800
000FE000
00000000
00000000
000FF800
00FFFE00
01FFFF00
03C007E0
078001F0
0F8000F0
1C00007C
3C00003C
7C00001C
7000001E
7000000E
7000000E
E000000E
E000000E
E000000E
E000000E
E000000E
E000000E
7000000E
7000001E
7800001E
7C00001C
1E00007C
1F000078
0F8000F0
03C007E0
03E00FC0
01FFFF00
003FF800
001FF000
ENDCHAR
STARTCHAR $014F
ENCODING 335
SWIDTH 666 0
DWIDTH 27 0
BBX 24 30 1 0
BITMAP
0381C0
0381C0
0381C0
01FF00
003000
003000
000000
00FF00
01FF00
0FFFE0
1F00F0
1E00F8
7C003C
78001C
70001C
F0001C
E0001E
E0001F
E00007
E0001C
E0001C
F0001C
70001C
78001C
7C0038
1E00F8
1F00F0
0FFFE0
01FF00
00FF00
ENDCHAR
STARTCHAR $0150
ENCODING 336
SWIDTH 851 0
DWIDTH 35 0
BBX 31 37 1 1
BITMAP
0000C0E0
0003C1C0
0007C380
000F1F00
001C1E00
00381C00
00000000
000FF000
000FF800
01FFFF00
03E00FC0
03C007E0
0F8000F0
1C000078
1C00007C
7C00001C
7800001E
7000001E
7000000E
E000000E
E000000E
E000000E
E000000E
E000000E
E000000E
7000000E
7000000E
7000001E
7C00001C
3C00003C
1E00007C
0F8000F0
078001F0
03C007E0
01FFFF00
00FFFE00
003FF800
ENDCHAR
STARTCHAR $0151
ENCODING 337
SWIDTH 666 0
DWIDTH 27 0
BBX 24 30 1 0
BITMAP
000E1C
007C3C
00783C
01F1E0
0181C0
0181C0
000000
00FF00
01FF00
0FFFE0
1F00F0
1E00F8
7C003C
78001C
70001C
F0001C
E0001E
E0001F
E00007
E0001C
E0001C
F0001C
70001C
78001C
7C0038
1E00F8
1F00F0
0FFFE0
01FF00
00FF00
ENDCHAR
STARTCHAR $0152
ENCODING 338
SWIDTH 1185 0
DWIDTH 48 0
BBX 44 30 1 0
BITMAP
003FF80FFFF0
00FFFE0FFFF0
01FFFF0FFFF0
03C007EE0000
070001FE0000
0E0000FE0000
1C00007E0000
3C00003E0000
7C00001E0000
7000001E0000
7000000E0000
7000000E0000
E000000E0000
E000000FFFE0
E000000FFFE0
E000000FFFE0
E000000E0000
E000000E0000
7000000E0000
7000001E0000
7800001E0000
7C00001E0000
1C00007E0000
1C00007E0000
0F8000FE0000
03C007EE0000
03E00FCE0000
01FFFF0FFFF0
003FF80FFFF0
001FF00FFFF0
ENDCHAR
STARTCHAR $0153
ENCODING 339
SWIDTH 1148 0
DWIDTH 46 0
BBX 43 22 1 1
BITMAP
01FF001FF000
07FF80FFFC00
0FFFC0FFFE00
1E00E3E00F00
3C0073C00780
7C003B800780
70001F000180
E0001F000080
E0001F0000C0
E0001FFFFFE0
E0001FFFFFE0
E0001FFFFFE0
E0001C000000
F0001E000000
F0001F000000
70001F000180
7C003B800780
3C003B800780
1E00E3F00F00
0FFFC07FFE00
07FFC07FFC00
01FF001FF000
ENDCHAR
STARTCHAR $0154
ENCODING 340
SWIDTH 592 0
DWIDTH 24 0
BBX 21 37 3 2
BITMAP
003E00
007C00
007800
03F000
018000
018000
000000
FFF800
FFF800
FFFF00
E00780
E007C0
E000E0
E000E0
E000E0
E000F8
E00038
E00038
E000F8
E000E0
E000E0
E000E0
E007C0
E007C0
E3FF00
E1F000
E0F000
E07000
E03800
E03C00
E03E00
E00F00
E00F00
E00700
E001C0
E001C0
E001E0
ENDCHAR
STARTCHAR $0155
ENCODING 341
SWIDTH 296 0
DWIDTH 12 0
BBX 9 30 3 1
BITMAP
0F80
3F00
7E00
F000
C000
8000
0000
E380
E380
FF80
FC00
FC00
F000
E000
E000
E000
E000
E000
E000
E000
E000
E000
E000
E000
E000
E000
E000
E000
E000
E000
ENDCHAR
STARTCHAR $0156
ENCODING 342
SWIDTH 592 0
DWIDTH 24 0
BBX 21 39 3 -9
BITMAP
FFF800
FFFF00
FFFF00
E007C0
E000E0
E000E0
E000E0
E000F0
E000F8
E00038
E00078
E000F8
E000E0
E000E0
E000E0
E007C0
E3FF80
E3FF00
E1F000
E07000
E07000
E03800
E03E00
E01E00
E00F00
E00700
E00380
E001C0
E001E0
E001E0
000000
01C000
01C000
01C000
01C000
01C000
01C000
038000
030000
ENDCHAR
STARTCHAR $0157
ENCODING 343
SWIDTH 296 0
DWIDTH 12 0
BBX 10 31 1 -8
BITMAP
71C0
7FC0
7FC0
7E00
7C00
7C00
7000
7000
7000
7000
7000
7000
7000
7000
7000
7000
7000
7000
7000
7000
7000
7000
0000
0000
7000
7000
7000
E000
E000
E000
E000
ENDCHAR
STARTCHAR $0158
ENCODING 344
SWIDTH 592 0
DWIDTH 24 0
BBX 21 37 3 1
BITMAP
1C0F00
0E1E00
0E3E00
03F000
01E000
01C000
000000
FFF800
FFF800
FFFF00
E00780
E007C0
E000E0
E000E0
E000E0
E000F8
E00038
E00038
E000F8
E000E0
E000E0
E000E0
E007C0
E007C0
E3FF00
E1F000
E0F000
E07000
E03800
E03C00
E03E00
E00F00
E00F00
E00700
E001C0
E001C0
E001E0
ENDCHAR
STARTCHAR $0159
ENCODING 345
SWIDTH 296 0
DWIDTH 12 0
BBX 13 30 -1 0
BITMAP
F038
78F0
3DF0
1FC0
0380
0380
0000
0618
0E38
0FF8
0FE0
0FC0
0F80
0F00
0E00
0E00
0E00
0E00
0E00
0E00
0E00
0E00
0E00
0E00
0E00
0E00
0E00
0E00
0E00
0600
ENDCHAR
STARTCHAR $015A
ENCODING 346
SWIDTH 481 0
DWIDTH 20 0
BBX 18 37 1 1
BITMAP
000800
007800
007800
03F000
038000
038000
000000
07F000
0FF000
1FFE00
3C0F00
7C0F00
700700
E00700
E00700
E00000
F00000
F80000
7C0000
1F8000
1F8000
0FF800
007E00
007E00
000F00
0007C0
0003C0
0001C0
E001C0
E001C0
E001C0
F00700
F80700
7C0F00
1FFE00
1FFC00
0FF000
ENDCHAR
STARTCHAR $015B
ENCODING 347
SWIDTH 370 0
DWIDTH 15 0
BBX 15 30 0 1
BITMAP
0038
00F0
01F0
0FC0
0300
0200
0000
07C0
0FC0
1FF8
3C38
7C38
7038
7000
7800
7C00
1F80
1F80
03F0
0078
007C
003E
E00E
E00E
700E
7038
3838
1FF8
0FC0
07C0
ENDCHAR
STARTCHAR $015C
ENCODING 348
SWIDTH 481 0
DWIDTH 20 0
BBX 18 36 1 0
BITMAP
03F000
07F800
0E7800
1C0E00
000000
000000
0FF000
1FFC00
1FFE00
7C0F00
780700
700700
E00700
E00000
E00000
F00000
7C0000
3C0000
1F8000
0FF800
07FC00
007E00
000F00
000F80
0007C0
0001C0
0001C0
E001C0
E001C0
E00180
F00700
7C0F00
3C0F00
1FFE00
0FF000
07E000
ENDCHAR
STARTCHAR $015D
ENCODING 349
SWIDTH 370 0
DWIDTH 15 0
BBX 15 30 0 0
BITMAP
0380
07C0
0FC0
1C78
383C
303E
0000
07C0
0FC0
1FF8
3C38
7C38
7038
7000
7800
7C00
1F80
1F80
03F0
0078
007C
003E
E00E
E00E
700E
7038
3838
1FF8
0FC0
07C0
ENDCHAR
STARTCHAR $015E
ENCODING 350
SWIDTH 481 0
DWIDTH 20 0
BBX 18 39 1 -10
BITMAP
0FF000
1FFC00
1FFE00
7C0F00
780700
700700
E00700
E00000
E00000
F00000
7C0000
3C0000
1F8000
0FF800
07F800
007E00
000F00
000F00
0007C0
0001C0
0001C0
E001C0
E001C0
E001C0
E00700
700F00
780F00
7FFE00
0FF800
07F800
018000
03F000
03F000
03F800
000800
001800
023800
03F000
03E000
ENDCHAR
STARTCHAR $015F
ENCODING 351
SWIDTH 370 0
DWIDTH 15 0
BBX 13 31 1 -9
BITMAP
1F80
3FE0
7FF0
F070
E070
E070
E000
F000
F800
7E00
1FC0
1FC0
01F0
0078
0078
0038
E038
E038
E070
FFF0
FFF0
7FC0
0300
0300
0FC0
0FC0
07E0
0070
1C70
1C70
0FC0
ENDCHAR
STARTCHAR $0160
ENCODING 352
SWIDTH 481 0
DWIDTH 20 0
BBX 18 36 1 0
BITMAP
1C3E00
0FF000
0FF000
03C000
000000
000000
0FF000
1FFC00
1FFE00
7C0F00
780700
700700
E00700
E00000
E00000
F00000
7C0000
3C0000
1F8000
0FF800
07FC00
007E00
000F00
000F80
0007C0
0001C0
0001C0
E001C0
E001C0
E00180
F00700
7C0F00
3C0F00
1FFE00
0FF000
07E000
ENDCHAR
STARTCHAR $0161
ENCODING 353
SWIDTH 370 0
DWIDTH 15 0
BBX 15 30 0 0
BITMAP
703E
387C
1C78
0FC0
0380
0380
0000
07C0
0FC0
1FF8
3C38
7C38
7038
7000
7800
7C00
1F80
1F80
03F0
0078
007C
003E
E00E
E00E
700E
7038
3838
1FF8
0FC0
07C0
ENDCHAR
STARTCHAR $0162
ENCODING 354
SWIDTH 444 0
DWIDTH 18 0
BBX 16 39 0 -10
BITMAP
FFFF
FFFF
FFFF
01C0
01C0
01C0
01C0
01C0
01C0
01C0
01C0
01C0
01C0
01C0
01C0
01C0
01C0
01C0
01C0
01C0
01C0
01C0
01C0
01C0
01C0
01C0
01C0
01C0
01C0
01C0
0180
03F0
03F0
03F0
0038
0038
0E38
03F0
03E0
ENDCHAR
STARTCHAR $0163
ENCODING 355
SWIDTH 333 0
DWIDTH 14 0
BBX 13 39 0 -10
BITMAP
0F80
0F80
0F80
0F80
0F80
0F80
0F80
FFF8
FFF8
FFF8
0F80
0F80
0F80
0F80
0F80
0F80
0F80
0F80
0F80
0F80
0F80
0F80
0F80
0F80
0F80
0F80
0F80
0F80
0F80
0F80
0E00
0F80
0F80
1FC0
0070
0060
1C40
0FC0
07C0
ENDCHAR
STARTCHAR $0164
ENCODING 356
SWIDTH 444 0
DWIDTH 18 0
BBX 16 37 0 1
BITMAP
7C0E
3E1C
1E38
03F0
01E0
01C0
0000
FFFF
FFFF
FFFF
01E0
01C0
01C0
01C0
01C0
01C0
01C0
01C0
01C0
01C0
01C0
01C0
01C0
01C0
01C0
01C0
01C0
01C0
01C0
01C0
01C0
01C0
01C0
01C0
01C0
01C0
01C0
ENDCHAR
STARTCHAR $0165
ENCODING 357
SWIDTH 333 0
DWIDTH 14 0
BBX 13 30 0 0
BITMAP
0FB8
0FB8
0FB8
0FB8
0FB8
0FB8
0F80
FFF8
FFF8
FFF8
0F80
0F80
0F80
0F80
0F80
0F80
0F80
0F80
0F80
0F80
0F80
0F80
0F80
0F80
0F80
0F80
0F80
0F80
0F80
0780
ENDCHAR
STARTCHAR $0168
ENCODING 360
SWIDTH 666 0
DWIDTH 27 0
BBX 21 37 3 1
BITMAP
018000
07C000
0FC600
0C7F00
001C00
000800
000000
E00030
E00038
E00038
E00038
E00038
E00038
E00038
E00038
E00038
E00038
E00038
E00038
E00038
E00038
E00038
E00038
E00038
E00038
E00038
E00038
E00038
E000E0
E000E0
F000E0
7000E0
7800E0
7C01C0
1FFF00
1FFF00
03FE00
ENDCHAR
STARTCHAR $0169
ENCODING 361
SWIDTH 592 0
DWIDTH 24 0
BBX 19 30 3 0
BITMAP
020000
1FFC00
1FFE00
0C7800
000000
000000
000000
E00060
E000E0
E000E0
E000E0
E000E0
E000E0
E000E0
E000E0
E000E0
E000E0
E000E0
E000E0
E000E0
E000E0
E000E0
E001E0
E001E0
F001E0
7C07E0
3C07E0
1FFEE0
0FF0E0
07F060
ENDCHAR
STARTCHAR $016A
ENCODING 362
SWIDTH 666 0
DWIDTH 27 0
BBX 21 36 3 0
BITMAP
1FFF00
1FFF00
1FFF00
000000
000000
000000
E00038
E00038
E00038
E00038
E00038
E00038
E00038
E00038
E00038
E00038
E00038
E00038
E00038
E00038
E00038
E00038
E00038
E00038
E00038
E00038
E00030
E000E0
F000E0
F000E0
7000E0
7C01C0
3C0380
1FFF00
03FE00
03FC00
ENDCHAR
STARTCHAR $016B
ENCODING 363
SWIDTH 592 0
DWIDTH 24 0
BBX 19 28 3 1
BITMAP
1FFF00
1FFF00
1FFF00
000000
000000
000000
E000E0
E000E0
E000E0
E000E0
E000E0
E000E0
E000E0
E000E0
E000E0
E000E0
E000E0
E000E0
E000E0
E000E0
E000E0
E001E0
F001E0
F801E0
7C07E0
1FFEE0
1FFEE0
0FF0E0
ENDCHAR
STARTCHAR $016C
ENCODING 364
SWIDTH 666 0
DWIDTH 27 0
BBX 21 37 3 1
BITMAP
0E0700
0E0700
0E0700
03FE00
00E000
004000
000000
E00030
E00038
E00038
E00038
E00038
E00038
E00038
E00038
E00038
E00038
E00038
E00038
E00038
E00038
E00038
E00038
E00038
E00038
E00038
E00038
E00038
E000E0
E000E0
F000E0
7000E0
7800E0
7C01C0
1FFF00
1FFF00
03FE00
ENDCHAR
STARTCHAR $016D
ENCODING 365
SWIDTH 592 0
DWIDTH 24 0
BBX 19 30 3 0
BITMAP
1C0600
1C0E00
1C0E00
0FF800
01E000
01C000
000000
E00060
E000E0
E000E0
E000E0
E000E0
E000E0
E000E0
E000E0
E000E0
E000E0
E000E0
E000E0
E000E0
E000E0
E000E0
E001E0
E001E0
F001E0
7C07E0
3C07E0
1FFEE0
0FF0E0
07F060
ENDCHAR
STARTCHAR $016E
ENCODING 366
SWIDTH 666 0
DWIDTH 27 0
BBX 21 40 3 0
BITMAP
01F000
018800
018800
020E00
020E00
020E00
038800
01F000
01F000
000000
E00030
E00038
E00038
E00038
E00038
E00038
E00038
E00038
E00038
E00038
E00038
E00038
E00038
E00038
E00038
E00038
E00038
E00038
E00038
E00038
E00038
E000E0
E000E0
F000E0
7000E0
7800E0
7C01C0
1FFF00
1FFF00
03FE00
ENDCHAR
STARTCHAR $016F
ENCODING 367
SWIDTH 592 0
DWIDTH 24 0
BBX 19 33 3 0
BITMAP
01F000
023800
023800
0E0800
021800
023800
03F000
000000
000000
000000
E00060
E000E0
E000E0
E000E0
E000E0
E000E0
E000E0
E000E0
E000E0
E000E0
E000E0
E000E0
E000E0
E000E0
E000E0
E001E0
E001E0
F001E0
7C07E0
3C07E0
1FFEE0
0FF0E0
07F060
ENDCHAR
STARTCHAR $0170
ENCODING 368
SWIDTH 666 0
DWIDTH 27 0
BBX 21 37 3 2
BITMAP
007838
00F1F0
01F1E0
0387C0
030600
020600
000000
E00030
E00038
E00038
E00038
E00038
E00038
E00038
E00038
E00038
E00038
E00038
E00038
E00038
E00038
E00038
E00038
E00038
E00038
E00038
E00038
E00038
E000E0
E000E0
F000E0
7000E0
7800E0
7C01C0
1FFF00
1FFF00
03FE00
ENDCHAR
STARTCHAR $0171
ENCODING 369
SWIDTH 592 0
DWIDTH 24 0
BBX 19 31 3 1
BITMAP
000020
006060
0070E0
03C1C0
078F80
0F8F00
0C0600
000000
000000
E000E0
E000E0
E000E0
E000E0
E000E0
E000E0
E000E0
E000E0
E000E0
E000E0
E000E0
E000E0
E000E0
E000E0
E000E0
E001E0
F001E0
F801E0
7C07E0
1FFEE0
1FFEE0
0FF0E0
ENDCHAR
STARTCHAR $0172
ENCODING 370
SWIDTH 666 0
DWIDTH 27 0
BBX 21 39 3 -9
BITMAP
E00038
E00038
E00038
E00038
E00038
E00038
E00038
E00038
E00038
E00038
E00038
E00038
E00038
E00038
E00038
E00038
E00038
E00038
E00038
E00038
E00038
E000E0
F000E0
F000E0
7000E0
7C01C0
3C01C0
1FFF00
03FE00
03FE00
003000
007000
007000
01C000
01F000
00F000
007E00
003E00
001C00
ENDCHAR
STARTCHAR $0173
ENCODING 371
SWIDTH 592 0
DWIDTH 24 0
BBX 19 31 3 -8
BITMAP
E000E0
E000E0
E000E0
E000E0
E000E0
E000E0
E000E0
E000E0
E000E0
E000E0
E000E0
E000E0
E000E0
E000E0
E000E0
E001E0
F001E0
F801E0
7C07E0
1FFEE0
1FFEE0
0FF0E0
0001C0
0001C0
000700
000E00
000E00
000700
0007E0
0003E0
0001E0
ENDCHAR
STARTCHAR $0174
ENCODING 372
SWIDTH 962 0
DWIDTH 39 0
BBX 37 37 0 1
BITMAP
0000380000
00007C0000
0000FC0000
0001C70000
000F83C000
000F03E000
0000000000
E000300038
E000380038
7000380038
70007C0038
7000FC0038
7000FC0038
1C00FC0070
1C00FC0070
1C01DC0070
1C01C60070
1C01C700E0
1C01C701C0
0E01C701C0
0E01C701C0
0E070781C0
0E070381C0
07070381C0
0387038380
0387038380
0387038380
038E00E380
038E00EE00
038E00EE00
01CE00EE00
01F800EE00
01F800EE00
01F8007E00
0078007C00
0078007C00
0078007C00
ENDCHAR
STARTCHAR $0175
ENCODING 373
SWIDTH 814 0
DWIDTH 33 0
BBX 33 30 0 0
BITMAP
0001E00000
0003F00000
0007F80000
003E1C0000
0000000000
0000000000
0000000000
E000000300
E000000380
7000000380
7001800E00
7801C00E00
7C01E00E00
1C03E00E00
1C07E00E00
1C07E01C00
0E07B81C00
0E07381800
0E06387000
0E0E387000
070E387000
038E1C7000
03881CE000
03881CE000
03F81CE000
01F8048000
01F8058000
01F0078000
0070078000
0070078000
ENDCHAR
STARTCHAR $0176
ENCODING 374
SWIDTH 592 0
DWIDTH 24 0
BBX 24 37 0 1
BITMAP
003800
007C00
007E00
01C700
0783E0
0F81E0
000000
F0000E
F0001F
70001C
7C003C
3C003C
1C0038
1E0078
1E00F8
0E00E0
0F81E0
0781E0
0381C0
03C300
03C700
01C700
01FE00
00FE00
007E00
003800
003800
003800
003800
003800
003800
003800
003800
003800
003800
003800
003800
ENDCHAR
STARTCHAR $0177
ENCODING 375
SWIDTH 518 0
DWIDTH 21 0
BBX 21 37 0 -6
BITMAP
007800
00FC00
01FE00
0F8700
000000
000000
000000
F00030
F00038
7000F8
7000F0
3800E0
1C00E0
1C01C0
1C01C0
1E01C0
0E0380
0E0700
0E0700
038F00
038F00
038E00
03CE00
03EE00
01F800
01F800
00F800
007000
007000
007000
01F000
01C000
01C000
01C000
038000
038000
038000
ENDCHAR
STARTCHAR $0178
ENCODING 376
SWIDTH 592 0
DWIDTH 24 0
BBX 24 37 0 1
BITMAP
01C700
01C700
01C700
01C700
000000
000000
000000
F0000E
F0001F
70001C
7C003C
3C003C
1C0038
1E0078
1E00F8
0E00E0
0F81E0
0781E0
0381C0
03C300
03C700
01C700
01FE00
00FE00
007E00
003800
003800
003800
003800
003800
003800
003800
003800
003800
003800
003800
003800
ENDCHAR
STARTCHAR $0179
ENCODING 377
SWIDTH 481 0
DWIDTH 20 0
BBX 19 37 0 2
BITMAP
000E00
007E00
007E00
01F000
018000
018000
000000
3FFF80
7FFFC0
7FFFC0
0001C0
0001C0
000700
000700
000700
000E00
001E00
003E00
003800
007800
007800
007000
00E000
01C000
03C000
038000
038000
0F8000
0E0000
0E0000
1C0000
3C0000
7C0000
700000
FFFFE0
FFFFE0
FFFFE0
ENDCHAR
STARTCHAR $017A
ENCODING 378
SWIDTH 407 0
DWIDTH 17 0
BBX 16 31 0 1
BITMAP
0008
007C
007E
01F0
03E0
03C0
0200
0000
0000
7FFF
7FFF
3FFF
000E
001C
0038
0078
0070
0070
01C0
03C0
03C0
0380
0700
0E00
1E00
3C00
7C00
7000
FFFF
FFFF
FFFF
ENDCHAR
STARTCHAR $017B
ENCODING 379
SWIDTH 481 0
DWIDTH 20 0
BBX 19 37 0 1
BITMAP
007000
007000
007000
007000
000000
000000
000000
3FFF80
7FFFC0
7FFFC0
0001C0
0001C0
000700
000700
000700
000E00
001E00
003E00
003800
007800
007800
007000
00E000
01C000
03C000
038000
038000
0F8000
0E0000
0E0000
1C0000
3C0000
7C0000
700000
FFFFE0
FFFFE0
FFFFE0
ENDCHAR
STARTCHAR $017C
ENCODING 380
SWIDTH 407 0
DWIDTH 17 0
BBX 16 30 0 0
BITMAP
01C0
01C0
01C0
01C0
0000
0000
0000
3FFF
7FFF
7FFF
000E
000E
0038
0078
0078
0070
00E0
01C0
03C0
0380
0380
0E00
1E00
1E00
7C00
7800
7800
FFFF
FFFF
FFFF
ENDCHAR
STARTCHAR $017D
ENCODING 381
SWIDTH 481 0
DWIDTH 20 0
BBX 19 37 0 1
BITMAP
1E0700
0F1E00
0FBE00
03F800
00F000
007000
000000
3FFF80
7FFFC0
7FFFC0
0001C0
0001C0
000700
000700
000700
000E00
001E00
003E00
003800
007800
007800
007000
00E000
01C000
03C000
038000
038000
0F8000
0E0000
0E0000
1C0000
3C0000
7C0000
700000
FFFFE0
FFFFE0
FFFFE0
ENDCHAR
STARTCHAR $017E
ENCODING 382
SWIDTH 407 0
DWIDTH 17 0
BBX 16 30 0 0
BITMAP
7C3E
0E7C
0E78
03F0
0000
0000
0000
3FFF
7FFF
7FFF
000E
000E
0038
0078
0078
0070
00E0
01C0
03C0
0380
0380
0E00
1E00
1E00
7C00
7800
7800
FFFF
FFFF
FFFF
ENDCHAR
STARTCHAR $017F
ENCODING 383
SWIDTH 296 0
DWIDTH 12 0
BBX 12 30 0 0
BITMAP
0070
03F0
03F0
0F80
0F00
0E00
0E00
FE00
FE00
FE00
0E00
0E00
0E00
0E00
0E00
0E00
0E00
0E00
0E00
0E00
0E00
0E00
0E00
0E00
0E00
0E00
0E00
0E00
0E00
0600
ENDCHAR
STARTCHAR $018E
ENCODING 398
SWIDTH 518 0
DWIDTH 21 0
BBX 16 30 3 0
BITMAP
FFFF
FFFF
FFFF
0007
0007
0007
0007
0007
0007
0007
0007
0007
0007
FFFF
FFFF
FFFF
0007
0007
0007
0007
0007
0007
0007
0007
0007
0007
0007
FFFF
FFFF
FFFF
ENDCHAR
STARTCHAR $0192
ENCODING 402
SWIDTH 555 0
DWIDTH 23 0
BBX 21 39 1 -6
BITMAP
0000F8
0001F8
0001F8
000700
000E00
000E00
000E00
000E00
000E00
01FFE0
03FFC0
03FFC0
003800
003800
003800
003800
003800
003800
003000
007000
007000
007000
007000
007000
007000
004000
004000
01C000
01C000
01C000
01C000
01C000
01C000
038000
038000
030000
FE0000
FC0000
F80000
ENDCHAR
STARTCHAR $01A0
ENCODING 416
SWIDTH 851 0
DWIDTH 35 0
BBX 31 30 1 0
BITMAP
000FF80E
00FFFE0E
01FFFF0E
03C007EE
078001FC
0F8000FC
1C00007C
3C00003C
7C00001C
7000001E
7000000E
7000000E
E000000E
E000000E
E000000E
E000000E
E000000E
E000000E
7000000E
7000001E
7800001E
7C00001C
1E000070
1F000070
0F8000F0
03C007E0
03E00FC0
01FFFF00
003FF800
001FF000
ENDCHAR
STARTCHAR $01A1
ENCODING 417
SWIDTH 666 0
DWIDTH 27 0
BBX 25 22 1 1
BITMAP
01FF0380
07FFE300
0FFFE300
1E00FF00
3C007E00
7C003C00
70001C00
F0001C00
F0001C00
E0001F00
E0000F00
E0000700
E0001C00
F0001C00
F0001C00
70001C00
7C003800
3C003800
1E00F800
0FFFE000
07FFE000
01FF0000
ENDCHAR
STARTCHAR $01AF
ENCODING 431
SWIDTH 703 0
DWIDTH 29 0
BBX 25 30 3 0
BITMAP
E0003B80
E0003B00
E0003B00
E0003F00
E0003E00
E0003C00
E0003800
E0003800
E0003800
E0003800
E0003800
E0003800
E0003800
E0003800
E0003800
E0003800
E0003800
E0003800
E0003800
E0003800
E0003800
E000E000
F000E000
F000E000
7000E000
7C07C000
3C07C000
1FFF0000
03F80000
03F80000
ENDCHAR
STARTCHAR $01B0
ENCODING 432
SWIDTH 666 0
DWIDTH 27 0
BBX 24 22 3 1
BITMAP
E000E7
E000E7
E000E7
E000FC
E000FC
E000FC
E000F8
E000F0
E000E0
E000E0
E000E0
E000E0
E000E0
E000E0
E000E0
E001E0
F001E0
F801E0
7C07E0
1FFEE0
1FFEE0
0FF0E0
ENDCHAR
STARTCHAR $01CD
ENCODING 461
SWIDTH 740 0
DWIDTH 30 0
BBX 27 37 1 1
BITMAP
03C0E000
00E1C000
0071C000
003F0000
001E0000
000E0000
00000000
000C0000
000E0000
003F0000
003F0000
003F0000
0071C000
0071C000
0071C000
01F1C000
01E0E000
01C0E000
01C0E000
03803800
03803800
03803800
07003C00
0F003C00
0FFFFC00
1FFFFC00
1FFFFC00
1C000700
1C000700
1C000700
70000380
70000380
700003C0
E00003E0
E00000E0
E00000E0
E00000E0
ENDCHAR
STARTCHAR $01CE
ENCODING 462
SWIDTH 666 0
DWIDTH 27 0
BBX 24 30 1 0
BITMAP
0F81E0
07C380
03C700
007E00
003C00
003800
000000
00FF06
01FF07
0FFFE7
1F00FF
1E00FF
7C003F
78001F
70001F
F0001F
E00007
E00007
E00007
E00007
E00007
F0001F
70001F
78001F
7C003F
1E00E7
1F00E7
0FFFC7
01FF07
00FF06
ENDCHAR
STARTCHAR $01CF
ENCODING 463
SWIDTH 222 0
DWIDTH 9 0
BBX 13 37 -1 1
BITMAP
E078
70E0
31C0
1F80
0F00
0E00
0000
0600
0E00
0E00
0E00
0E00
0E00
0E00
0E00
0E00
0E00
0E00
0E00
0E00
0E00
0E00
0E00
0E00
0E00
0E00
0E00
0E00
0E00
0E00
0E00
0E00
0E00
0E00
0E00
0E00
0E00
ENDCHAR
STARTCHAR $01D0
ENCODING 464
SWIDTH 185 0
DWIDTH 8 0
BBX 13 30 -3 0
BITMAP
F078
38F0
1DF0
0FC0
0000
0000
0000
0380
0380
0380
0380
0380
0380
0380
0380
0380
0380
0380
0380
0380
0380
0380
0380
0380
0380
0380
0380
0380
0380
0380
ENDCHAR
STARTCHAR $01D1
ENCODING 465
SWIDTH 851 0
DWIDTH 35 0
BBX 31 36 1 0
BITMAP
00383C00
001FF000
000FE000
0007C000
00000000
00000000
000FF800
00FFFE00
01FFFF00
03C007E0
078001F0
0F8000F0
1C00007C
3C00003C
7C00001C
7000001E
7000000E
7000000E
E000000E
E000000E
E000000E
E000000E
E000000E
E000000E
7000000E
7000001E
7800001E
7C00001C
1E00007C
1F000078
0F8000F0
03C007E0
03E00FC0
01FFFF00
003FF800
001FF000
ENDCHAR
STARTCHAR $01D2
ENCODING 466
SWIDTH 666 0
DWIDTH 27 0
BBX 24 30 1 0
BITMAP
0F81E0
07C380
03C700
007E00
003C00
003800
000000
00FF00
01FF00
0FFFE0
1F00F0
1E00F8
7C003C
78001C
70001C
F0001C
E0001E
E0001F
E00007
E0001C
E0001C
F0001C
70001C
78001C
7C0038
1E00F8
1F00F0
0FFFE0
01FF00
00FF00
ENDCHAR
STARTCHAR $01D3
ENCODING 467
SWIDTH 666 0
DWIDTH 27 0
BBX 21 37 3 1
BITMAP
1E0700
0F0E00
0F8E00
01F800
00F000
007000
000000
E00030
E00038
E00038
E00038
E00038
E00038
E00038
E00038
E00038
E00038
E00038
E00038
E00038
E00038
E00038
E00038
E00038
E00038
E00038
E00038
E00038
E000E0
E000E0
F000E0
7000E0
7800E0
7C01C0
1FFF00
1FFF00
03FE00
ENDCHAR
STARTCHAR $01D4
ENCODING 468
SWIDTH 592 0
DWIDTH 24 0
BBX 19 30 3 0
BITMAP
1C0E00
0F1C00
0FB800
03F000
000000
000000
000000
E00060
E000E0
E000E0
E000E0
E000E0
E000E0
E000E0
E000E0
E000E0
E000E0
E000E0
E000E0
E000E0
E000E0
E000E0
E001E0
E001E0
F001E0
7C07E0
3C07E0
1FFEE0
0FF0E0
07F060
ENDCHAR
STARTCHAR $01D7
ENCODING 471
SWIDTH 666 0
DWIDTH 27 0
BBX 21 44 3 2
BITMAP
000F00
007E00
007E00
01F000
01E000
01C000
000000
038C00
038E00
038E00
038E00
038E00
000000
000000
000000
E00038
E00038
E00038
E00038
E00038
E00038
E00038
E00038
E00038
E00038
E00038
E00038
E00038
E00038
E00038
E00038
E00038
E00038
E00038
E00038
E00070
E000E0
F000E0
F000E0
7000E0
7C01C0
3FFF80
1FFF00
03FE00
ENDCHAR
STARTCHAR $01D8
ENCODING 472
SWIDTH 592 0
DWIDTH 24 0
BBX 19 39 3 0
BITMAP
000E00
001E00
003E00
01F800
03E000
03C000
000000
000000
000000
0E3800
0E3800
0E3800
0E3800
000000
000000
000000
E00060
E000E0
E000E0
E000E0
E000E0
E000E0
E000E0
E000E0
E000E0
E000E0
E000E0
E000E0
E000E0
E000E0
E000E0
E001E0
E001E0
F001E0
7C07E0
3C07E0
1FFEE0
0FF0E0
07E060
ENDCHAR
STARTCHAR $01D9
ENCODING 473
SWIDTH 666 0
DWIDTH 27 0
BBX 21 44 3 1
BITMAP
1E0700
0F0E00
0F8E00
01F800
00F000
007000
000000
038C00
038E00
038E00
038E00
038E00
000000
000000
000000
E00038
E00038
E00038
E00038
E00038
E00038
E00038
E00038
E00038
E00038
E00038
E00038
E00038
E00038
E00038
E00038
E00038
E00038
E00038
E00038
E00070
E000E0
F000E0
F000E0
7000E0
7C01C0
3FFF80
1FFF00
03FE00
ENDCHAR
STARTCHAR $01DA
ENCODING 474
SWIDTH 592 0
DWIDTH 24 0
BBX 19 37 3 1
BITMAP
1E0E00
0F1C00
0FB800
03F000
000000
000000
000000
061800
0E3800
0E3800
0E3800
063800
000000
000000
000000
E000E0
E000E0
E000E0
E000E0
E000E0
E000E0
E000E0
E000E0
E000E0
E000E0
E000E0
E000E0
E000E0
E000E0
E000E0
E001E0
F001E0
F803E0
7C07E0
1FFEE0
1FFCE0
0FF0E0
ENDCHAR
STARTCHAR $01DB
ENCODING 475
SWIDTH 666 0
DWIDTH 27 0
BBX 21 44 3 2
BITMAP
0F8000
07C000
03C000
01F800
003000
003000
000000
038C00
038E00
038E00
038E00
038E00
000000
000000
000000
E00038
E00038
E00038
E00038
E00038
E00038
E00038
E00038
E00038
E00038
E00038
E00038
E00038
E00038
E00038
E00038
E00038
E00038
E00038
E00038
E00070
E000E0
F000E0
F000E0
7000E0
7C01C0
3FFF80
1FFF00
03FE00
ENDCHAR
STARTCHAR $01DC
ENCODING 476
SWIDTH 592 0
DWIDTH 24 0
BBX 19 39 3 0
BITMAP
0C0000
1F0000
1F8000
03C000
01E000
01F000
000000
000000
000000
0E3800
0E3800
0E3800
0E3800
000000
000000
000000
E00060
E000E0
E000E0
E000E0
E000E0
E000E0
E000E0
E000E0
E000E0
E000E0
E000E0
E000E0
E000E0
E000E0
E000E0
E001E0
E001E0
F001E0
7C07E0
3C07E0
1FFEE0
0FF0E0
07E060
ENDCHAR
STARTCHAR $01DD
ENCODING 477
SWIDTH 666 0
DWIDTH 27 0
BBX 22 22 1 1
BITMAP
01FF00
07FF80
0FFFC0
1E01F8
3C0078
7C0038
70001C
00001C
00001C
00001C
FFFFFC
FFFFFC
FFFFFC
E0001C
E0001C
70001C
7C0038
3C0038
1E00F8
0FFFC0
07FFC0
01FF00
ENDCHAR
STARTCHAR $01E6
ENCODING 486
SWIDTH 888 0
DWIDTH 36 0
BBX 31 36 1 0
BITMAP
00383C00
001FF000
000FE000
0007C000
00000000
00000000
000FF800
00FFFF80
01FFFF80
03C007E0
078001F0
0F8000F0
1C00007C
3C00003C
7C00001C
70000000
70000000
70000000
E0000000
E0000000
E0000000
E0000000
E00FFFFE
E00FFFFE
F00FFFFE
7000000E
7800000E
7C00001C
1C00001C
1C000038
0F8000F0
03C003E0
03E003C0
01FFFF80
000FF800
000FF000
ENDCHAR
STARTCHAR $01E7
ENCODING 487
SWIDTH 666 0
DWIDTH 27 0
BBX 22 39 1 -9
BITMAP
0F81C0
07C380
03C700
01FE00
00FC00
007800
000000
00FF0C
01FF1C
0FFFDC
1F01FC
1E01FC
7C003C
78001C
70001C
E0001C
E0001C
E0001C
E0001C
E0001C
E0001C
F0001C
70001C
78001C
7C003C
1E00FC
1F00FC
0FFFDC
01FE1C
00FE1C
70001C
70001C
38001C
1C0038
1F80F8
1F80F0
0FFFE0
007F00
007F00
ENDCHAR
STARTCHAR $01EA
ENCODING 490
SWIDTH 851 0
DWIDTH 35 0
BBX 31 39 1 -9
BITMAP
000FF800
00FFFE00
01FFFF00
03C007E0
078001F0
0F8000F0
1C00007C
3C00003C
7C00001C
7000001E
7000000E
7000000E
E000000E
E000000E
E000000E
E000000E
E000000E
E000000E
7000000E
7000001E
7800001E
7C00001C
1E000070
1F000070
0F8000F0
03C007E0
03E00FC0
01FFFF00
003FF800
001FF000
0000E000
0001C000
00038000
00070000
0007C000
0003C000
0001F800
0000F800
00007000
ENDCHAR
STARTCHAR $01EB
ENCODING 491
SWIDTH 666 0
DWIDTH 27 0
BBX 24 31 1 -8
BITMAP
01FF00
07FFE0
0FFFE0
1E00F8
3C007C
7C003C
70001C
F0001C
F0001C
E0001F
E0000F
E00007
E0001C
F0001C
F0001C
70001C
7C0038
3C0038
1E00F8
0FFFE0
07FFE0
01FF00
000E00
000E00
003800
003800
003800
003800
003F00
001F00
000F00
ENDCHAR
STARTCHAR $01F0
ENCODING 496
SWIDTH 185 0
DWIDTH 8 0
BBX 12 37 -1 -6
BITMAP
E1F0
73E0
33C0
1F80
0000
0000
0000
0600
0E00
0E00
0E00
0E00
0E00
0E00
0E00
0E00
0E00
0E00
0E00
0E00
0E00
0E00
0E00
0E00
0E00
0E00
0E00
0E00
0E00
0E00
0E00
1C00
1C00
1C00
F000
F000
E000
ENDCHAR
STARTCHAR $01F4
ENCODING 500
SWIDTH 888 0
DWIDTH 36 0
BBX 31 37 1 1
BITMAP
00001800
00007C00
0000FC00
0007E000
00078000
00070000
00000000
000FF000
000FF800
01FFFF80
03E00FC0
03C007E0
0F8000F0
1C000078
1C00007C
7C00001C
78000000
70000000
70000000
E0000000
E0000000
E0000000
E0000000
E0000000
E00FFFFE
F00FFFFE
F00FFFFE
7000000E
7C00001C
3C00001C
1C00001C
0F8000F0
078001F0
03C003E0
01FFFF80
00FFFF80
000FF800
ENDCHAR
STARTCHAR $01F5
ENCODING 501
SWIDTH 666 0
DWIDTH 27 0
BBX 22 39 1 -7
BITMAP
000700
001F00
003F00
007800
007000
007000
000000
00FF0C
01FF1C
0FFFDC
1F01FC
1E01FC
7C003C
78001C
70001C
E0001C
E0001C
E0001C
E0001C
E0001C
E0001C
F0001C
70001C
78001C
7C003C
1E00FC
1F00FC
0FFFDC
01FE1C
00FE1C
70001C
70001C
38001C
1C0038
1F80F8
1F80F0
0FFFE0
007F00
007F00
ENDCHAR
STARTCHAR $01FA
ENCODING 506
SWIDTH 740 0
DWIDTH 30 0
BBX 27 47 1 1
BITMAP
0000E000
0003E000
0007E000
000F0000
001C0000
00380000
00000000
000F0000
000F0000
00310000
00718000
0071C000
0071C000
00318000
00310000
003F0000
00000000
00000000
000E0000
001F0000
003F0000
003F0000
0071C000
0071C000
0071C000
00F1C000
01F1C000
01C0E000
01C0E000
01C07000
03803800
03803800
03803800
0E003C00
0FFFFC00
0FFFFC00
1FFFFC00
1C000700
1C000700
1C000700
70000380
70000380
70000380
E00003E0
E00001E0
E00000E0
E00000E0
ENDCHAR
STARTCHAR $01FB
ENCODING 507
SWIDTH 666 0
DWIDTH 27 0
BBX 24 39 1 0
BITMAP
0001C0
000F80
000F00
007E00
007000
007000
000000
007C00
007E00
01C600
018700
018700
01C600
007800
007800
000000
00FF06
01FF07
0FFFE7
1F00FF
1E00FF
7C003F
78001F
70001F
F0001F
E00007
E00007
E00007
E00007
E0000F
F0001F
70001F
78001F
7C003F
1E00E7
1F00E7
0FFFC7
01FF07
00FF06
ENDCHAR
STARTCHAR $01FC
ENCODING 508
SWIDTH 1000 0
DWIDTH 40 0
BBX 36 37 1 2
BITMAP
000000E000
000007E000
000007E000
00001F0000
0000180000
0000180000
0000000000
00000FFFE0
00001FFFF0
00003FFFF0
00007F0000
0000FF0000
0000E70000
0001C70000
0001C70000
0007C70000
0007870000
0007070000
000F070000
001E070000
003E070000
003807FFF0
007807FFF0
007807FFE0
01F0070000
03FFFF0000
03FFFF0000
03FFFF0000
0780070000
0F80070000
1E00070000
1C00070000
1C00070000
7C00070000
F00007FFF0
F00007FFF0
E00007FFF0
ENDCHAR
STARTCHAR $01FD
ENCODING 509
SWIDTH 1148 0
DWIDTH 46 0
BBX 43 30 1 1
BITMAP
000000E00000
000007E00000
000007E00000
00001F000000
000018000000
000018000000
000000000000
00FF060FF800
01FF070FF800
0FFFE77FFE00
1F00FFF01F00
1E00FFF00F00
7C003F800180
78001F8000E0
70001F8000E0
F000070000E0
E00007FFFFE0
E00007FFFFE0
E00007FFFFE0
E00007000000
E00007000000
F0001F000000
70001F8001E0
78001F8001E0
7C003FE00180
1E00FFF00F00
1F00FFF01F00
0FFFC77FFE00
01FF070FF000
00FF060FE000
ENDCHAR
STARTCHAR $01FE
ENCODING 510
SWIDTH 851 0
DWIDTH 35 0
BBX 31 40 1 -3
BITMAP
00001800
00007800
0000F800
0007E000
00078010
00070010
0000001C
001FF030
003FF870
01FFFFE0
03E00FE0
03C007E0
0F8003F0
1C000778
1C00077C
7C001C1C
78003C1E
70003C1E
7000380E
E000E00E
E000E00E
E001C00E
E007C00E
E007C00E
E00F000E
700E000E
700E000E
7038001E
7C70001C
3C70003C
1DF0007C
0FC000F0
07C001F0
03C007E0
0FFFFF00
0FFFFE00
1E3FF800
3C000000
38000000
10000000
ENDCHAR
STARTCHAR $01FF
ENCODING 511
SWIDTH 666 0
DWIDTH 27 0
BBX 22 31 1 1
BITMAP
0007C0
000F80
000F00
007800
007000
007000
000018
00FF3C
01FF3C
0FFFF8
1F00F8
1E00F8
7C01F8
78039C
70071C
F00F1C
E01E1C
E03E1C
E0381C
E0701C
E0701C
E1C01C
73C01C
7BC01C
7F8038
1F00F8
1F00F0
1FFFE0
39FF00
30FF00
100000
ENDCHAR
STARTCHAR $0200
ENCODING 512
SWIDTH 740 0
DWIDTH 30 0
BBX 27 37 1 2
BITMAP
1C380000
0F1F0000
0F8F0000
03C7C000
00C0C000
0040C000
00000000
000C0000
000E0000
003F0000
003F0000
003F0000
0071C000
0071C000
0071C000
01F1C000
01E0E000
01C0E000
01C0E000
03803800
03803800
03803800
07003C00
0F003C00
0FFFFC00
1FFFFC00
1FFFFC00
1C000700
1C000700
1C000700
70000380
70000380
700003C0
E00003E0
E00000E0
E00000E0
E00000E0
ENDCHAR
STARTCHAR $0201
ENCODING 513
SWIDTH 666 0
DWIDTH 27 0
BBX 24 30 1 0
BITMAP
707000
787800
3C7800
0E0F00
030700
038700
000000
00FF06
01FF07
0FFFE7
1F00FF
1E00FF
7C003F
78001F
70001F
F0001F
E00007
E00007
E00007
E00007
E00007
F0001F
70001F
78001F
7C003F
1E00E7
1F00E7
0FFFC7
01FF07
00FF06
ENDCHAR
STARTCHAR $0204
ENCODING 516
SWIDTH 518 0
DWIDTH 21 0
BBX 19 39 0 0
BITMAP
004000
F06000
F07000
7C3800
0E1F00
0E0F00
020600
000000
000000
1FFFE0
1FFFE0
1FFFE0
1C0000
1C0000
1C0000
1C0000
1C0000
1C0000
1C0000
1C0000
1C0000
1C0000
1FFFE0
1FFFE0
1FFFE0
1C0000
1C0000
1C0000
1C0000
1C0000
1C0000
1C0000
1C0000
1C0000
1C0000
1C0000
1FFFE0
1FFFE0
1FFFE0
ENDCHAR
STARTCHAR $0205
ENCODING 517
SWIDTH 666 0
DWIDTH 27 0
BBX 22 30 1 0
BITMAP
707000
787800
3C7800
1E0F00
030700
038700
000000
00FF00
01FF00
0FFFE0
1F00F0
1E00F8
7C0038
78001C
70001C
E0001C
FFFFFC
FFFFFC
FFFFFC
E00000
E00000
E00000
70001C
78001C
7C0038
1E00E0
1F00E0
0FFFC0
01FE00
00FE00
ENDCHAR
STARTCHAR $0208
ENCODING 520
SWIDTH 222 0
DWIDTH 9 0
BBX 15 37 -6 2
BITMAP
E1F0
78F8
3C78
1E0E
0206
0206
0000
0070
0070
0070
0070
0070
0070
0070
0070
0070
0070
0070
0070
0070
0070
0070
0070
0070
0070
0070
0070
0070
0070
0070
0070
0070
0070
0070
0070
0070
0070
ENDCHAR
STARTCHAR $0209
ENCODING 521
SWIDTH 185 0
DWIDTH 8 0
BBX 16 31 -7 1
BITMAP
6000
F060
F070
7C3E
0F1F
0F8F
0201
0000
0000
0038
0038
0038
0038
0038
0038
0038
0038
0038
0038
0038
0038
0038
0038
0038
0038
0038
0038
0038
0038
0038
0038
ENDCHAR
STARTCHAR $020C
ENCODING 524
SWIDTH 851 0
DWIDTH 35 0
BBX 31 37 1 1
BITMAP
02070000
03C78000
03C7C000
01F0F800
00387800
00383800
00000000
000FF000
000FF800
01FFFF00
03E00FC0
03C007E0
0F8000F0
1C000078
1C00007C
7C00001C
7800001E
7000001E
7000000E
E000000E
E000000E
E000000E
E000000E
E000000E
E000000E
7000000E
7000000E
7000001E
7C00001C
3C00003C
1E00007C
0F8000F0
078001F0
03C007E0
01FFFF00
00FFFE00
003FF800
ENDCHAR
STARTCHAR $020D
ENCODING 525
SWIDTH 666 0
DWIDTH 27 0
BBX 24 30 1 0
BITMAP
707000
787800
3C7800
0E0F00
030700
038700
000000
00FF00
01FF00
0FFFE0
1F00F0
1E00F8
7C003C
78001C
70001C
F0001C
E0001E
E0001F
E00007
E0001C
E0001C
F0001C
70001C
78001C
7C0038
1E00F8
1F00F0
0FFFE0
01FF00
00FF00
ENDCHAR
STARTCHAR $0210
ENCODING 528
SWIDTH 592 0
DWIDTH 24 0
BBX 22 37 1 2
BITMAP
E1F000
78F800
3C7800
1E0E00
020600
020600
000000
3FFC00
7FFE00
7FFFC0
7801E0
7001E0
700038
700038
700038
70003C
70001C
70001C
70003C
700038
700038
700038
7001E0
7001E0
71FFC0
707800
707800
703800
700E00
700E00
700F00
7007C0
7003C0
7001C0
7000E0
7000F0
7000F8
ENDCHAR
STARTCHAR $0211
ENCODING 529
SWIDTH 296 0
DWIDTH 12 0
BBX 16 30 -4 0
BITMAP
E1C0
F1E0
F1F0
1C3E
0E1E
0E0E
0000
00C3
01C7
01FF
01FC
01F8
01F0
01E0
01C0
01C0
01C0
01C0
01C0
01C0
01C0
01C0
01C0
01C0
01C0
01C0
01C0
01C0
01C0
00C0
ENDCHAR
STARTCHAR $0214
ENCODING 532
SWIDTH 666 0
DWIDTH 27 0
BBX 21 39 3 0
BITMAP
800000
C0C000
E1C000
707800
1E3C00
1E3E00
0E0600
000000
000000
E00038
E00038
E00038
E00038
E00038
E00038
E00038
E00038
E00038
E00038
E00038
E00038
E00038
E00038
E00038
E00038
E00038
E00038
E00038
E00038
E00070
E000E0
F000E0
F000E0
7000E0
7C01C0
3C0380
1FFF00
03FE00
03FC00
ENDCHAR
STARTCHAR $0215
ENCODING 533
SWIDTH 592 0
DWIDTH 24 0
BBX 21 30 1 1
BITMAP
E1F000
78F800
3C7800
1E0E00
020600
020600
000000
300030
700038
700038
700038
700038
700038
700038
700038
700038
700038
700038
700038
700038
700038
700038
7000F8
7800F8
7C00F8
1E01F8
1F01F8
0FFF38
03F838
03F830
ENDCHAR
STARTCHAR $0218
ENCODING 536
SWIDTH 481 0
DWIDTH 20 0
BBX 18 39 1 -9
BITMAP
0FF000
1FFC00
1FFE00
7C0F00
780700
700700
E00700
E00000
E00000
F00000
7C0000
3C0000
1F8000
0FF800
07F800
007E00
000F00
000F00
0007C0
0001C0
0001C0
E001C0
E001C0
E001C0
F00700
7C0F00
3C0F00
1FFE00
0FF000
07F000
000000
01C000
01C000
01C000
038000
038000
038000
038000
030000
ENDCHAR
STARTCHAR $0219
ENCODING 537
SWIDTH 370 0
DWIDTH 15 0
BBX 15 31 0 -8
BITMAP
0FC0
1FF8
1FF8
7C38
7838
7038
7000
7C00
3C00
1F80
03F0
03F0
0078
003E
003E
E00E
700E
700E
7038
1FF8
1FF8
0FC0
0000
0000
0380
0380
0380
0380
0380
0380
0E00
ENDCHAR
STARTCHAR $021A
ENCODING 538
SWIDTH 444 0
DWIDTH 18 0
BBX 16 39 0 -9
BITMAP
FFFF
FFFF
FFFF
01C0
01C0
01C0
01C0
01C0
01C0
01C0
01C0
01C0
01C0
01C0
01C0
01C0
01C0
01C0
01C0
01C0
01C0
01C0
01C0
01C0
01C0
01C0
01C0
01C0
01C0
00C0
0000
01C0
01C0
01C0
0380
0380
0380
0380
0300
ENDCHAR
STARTCHAR $021B
ENCODING 539
SWIDTH 333 0
DWIDTH 14 0
BBX 13 39 0 -9
BITMAP
0F80
0F80
0F80
0F80
0F80
0F80
0F80
FFF8
FFF8
FFF8
0F80
0F80
0F80
0F80
0F80
0F80
0F80
0F80
0F80
0F80
0F80
0F80
0F80
0F80
0F80
0F80
0F80
0F80
0F80
0780
0000
0380
0380
0200
0E00
0E00
0E00
0E00
0600
ENDCHAR
STARTCHAR $0237
ENCODING 567
SWIDTH 185 0
DWIDTH 8 0
BBX 7 30 -1 -7
BITMAP
0E
0E
0E
0E
0E
0E
0E
0E
0E
0E
0E
0E
0E
0E
0E
0E
0E
0E
0E
0E
0E
0E
0E
0E
1C
1C
1C
F0
E0
E0
ENDCHAR
STARTCHAR $0258
ENCODING 600
SWIDTH 666 0
DWIDTH 27 0
BBX 22 22 1 1
BITMAP
01FF00
07FFE0
0FFFE0
1E00F8
3C0078
7C0038
70001C
E0001C
E0001C
FFFFFC
FFFFFC
FFFFFC
00001C
00001C
00001C
70001C
7C0038
3C0038
1E01E0
0FFFC0
07FFC0
01FE00
ENDCHAR
STARTCHAR $0259
ENCODING 601
SWIDTH 666 0
DWIDTH 27 0
BBX 22 22 1 1
BITMAP
01FF00
07FF80
0FFFC0
1E01F8
3C0078
7C0038
70001C
00001C
00001C
00001C
FFFFFC
FFFFFC
FFFFFC
E0001C
E0001C
70001C
7C0038
3C0038
1E00F8
0FFFC0
07FFC0
01FF00
ENDCHAR
STARTCHAR $02BE
ENCODING 702
SWIDTH 518 0
DWIDTH 21 0
BBX 15 16 3 13
BITMAP
1FC0
3FF8
7FF8
E03E
E01E
E00E
000E
0006
0006
000E
E00E
E00E
F038
7FF0
3FF0
0F80
ENDCHAR
STARTCHAR $02BF
ENCODING 703
SWIDTH 518 0
DWIDTH 21 0
BBX 15 16 3 13
BITMAP
0FF0
3FF8
7FF8
703E
E01E
E00E
E000
C000
C000
E000
E00E
E00E
703E
1FFC
1FF8
03C0
ENDCHAR
STARTCHAR $02C6
ENCODING 710
SWIDTH 518 0
DWIDTH 21 0
BBX 12 4 4 26
BITMAP
1E00
3F00
7F80
F1F0
ENDCHAR
STARTCHAR $02C7
ENCODING 711
SWIDTH 518 0
DWIDTH 21 0
BBX 12 4 4 26
BITMAP
E1F0
73E0
33C0
1F80
ENDCHAR
STARTCHAR $02D8
ENCODING 728
SWIDTH 444 0
DWIDTH 18 0
BBX 12 6 3 24
BITMAP
E070
E070
E070
7FC0
0F00
0E00
ENDCHAR
STARTCHAR $02D9
ENCODING 729
SWIDTH 222 0
DWIDTH 9 0
BBX 3 4 3 26
BITMAP
E0
E0
E0
E0
ENDCHAR
STARTCHAR $02DA
ENCODING 730
SWIDTH 333 0
DWIDTH 14 0
BBX 7 7 3 25
BITMAP
7C
EE
EE
82
82
82
7C
ENDCHAR
STARTCHAR $02DB
ENCODING 731
SWIDTH 296 0
DWIDTH 12 0
BBX 6 10 3 -9
BITMAP
70
E0
E0
E0
E0
E0
E0
FC
FC
7C
ENDCHAR
STARTCHAR $02DC
ENCODING 732
SWIDTH 444 0
DWIDTH 18 0
BBX 12 6 3 24
BITMAP
1000
F840
FC40
83F0
0180
0180
ENDCHAR
STARTCHAR $02DD
ENCODING 733
SWIDTH 555 0
DWIDTH 23 0
BBX 16 7 6 25
BITMAP
0200
060F
0E0F
1C3E
F8F0
F1F0
E040
ENDCHAR
STARTCHAR $0300
ENCODING 768
SWIDTH 0 0
DWIDTH 0 0
BBX 9 6 -19 25
BITMAP
F000
7800
3C00
1F80
0300
0200
ENDCHAR
STARTCHAR $0301
ENCODING 769
SWIDTH 0 0
DWIDTH 0 0
BBX 9 6 -16 25
BITMAP
0F80
3F00
7E00
F000
E000
E000
ENDCHAR
STARTCHAR $0302
ENCODING 770
SWIDTH 0 0
DWIDTH 0 0
BBX 12 4 -19 26
BITMAP
1E00
3F00
7F80
F1F0
ENDCHAR
STARTCHAR $0303
ENCODING 771
SWIDTH 0 0
DWIDTH 0 0
BBX 12 6 -19 24
BITMAP
7000
F840
FC40
8FF0
0180
0180
ENDCHAR
STARTCHAR $0304
ENCODING 772
SWIDTH 0 0
DWIDTH 0 0
BBX 13 3 -21 25
BITMAP
FFF8
FFF8
FFF8
ENDCHAR
STARTCHAR $0305
ENCODING 773
SWIDTH 0 0
DWIDTH 0 0
BBX 12 3 -15 27
BITMAP
FFF0
FFF0
FFF0
ENDCHAR
STARTCHAR $0306
ENCODING 774
SWIDTH 0 0
DWIDTH 0 0
BBX 12 6 -19 24
BITMAP
8070
C070
E070
7FC0
0C00
0C00
ENDCHAR
STARTCHAR $0307
ENCODING 775
SWIDTH 0 0
DWIDTH 0 0
BBX 3 4 -15 26
BITMAP
E0
E0
E0
E0
ENDCHAR
STARTCHAR $0308
ENCODING 776
SWIDTH 0 0
DWIDTH 0 0
BBX 9 4 -18 26
BITMAP
E380
E380
E380
E380
ENDCHAR
STARTCHAR $0309
ENCODING 777
SWIDTH 0 0
DWIDTH 0 0
BBX 7 7 -18 25
BITMAP
7E
E6
E2
0E
0E
0E
1C
ENDCHAR
STARTCHAR $030A
ENCODING 778
SWIDTH 0 0
DWIDTH 0 0
BBX 9 7 -18 25
BITMAP
7C00
EE00
EE00
8380
E300
E200
7E00
ENDCHAR
STARTCHAR $030B
ENCODING 779
SWIDTH 0 0
DWIDTH 0 0
BBX 15 6 -18 25
BITMAP
1E0E
3C7C
7C78
E1F0
C180
8180
ENDCHAR
STARTCHAR $030C
ENCODING 780
SWIDTH 0 0
DWIDTH 0 0
BBX 12 4 -19 26
BITMAP
E070
73E0
33C0
1F80
ENDCHAR
STARTCHAR $030F
ENCODING 783
SWIDTH 0 0
DWIDTH 0 0
BBX 15 7 -24 25
BITMAP
8000
C0C0
E1C0
7078
1E3C
1E3E
0C06
ENDCHAR
STARTCHAR $0311
ENCODING 785
SWIDTH 0 0
DWIDTH 0 0
BBX 12 6 -19 24
BITMAP
0C00
3FC0
7FC0
E1F0
C0F0
8070
ENDCHAR
STARTCHAR $0323
ENCODING 803
SWIDTH 0 0
DWIDTH 0 0
BBX 3 4 -15 -6
BITMAP
E0
E0
E0
E0
ENDCHAR
STARTCHAR $0326
ENCODING 806
SWIDTH 0 0
DWIDTH 0 0
BBX 4 7 -16 -8
BITMAP
70
70
70
E0
E0
E0
E0
ENDCHAR
STARTCHAR $0327
ENCODING 807
SWIDTH 0 0
DWIDTH 0 0
BBX 7 9 -16 -10
BITMAP
60
F8
FC
FE
02
02
8E
FC
FC
ENDCHAR
STARTCHAR $0328
ENCODING 808
SWIDTH 0 0
DWIDTH 0 0
BBX 7 10 -18 -9
BITMAP
1C
38
70
70
E0
E0
70
7E
3E
1E
ENDCHAR
STARTCHAR $032C
ENCODING 812
SWIDTH 0 0
DWIDTH 0 0
BBX 12 4 -19 -6
BITMAP
E1F0
7F80
3F80
1E00
ENDCHAR
STARTCHAR $032D
ENCODING 813
SWIDTH 0 0
DWIDTH 0 0
BBX 12 4 -19 -6
BITMAP
1F80
3FC0
73C0
E070
ENDCHAR
STARTCHAR $032E
ENCODING 814
SWIDTH 0 0
DWIDTH 0 0
BBX 12 4 -19 -6
BITMAP
E070
FFE0
FFC0
7F80
ENDCHAR
STARTCHAR $032F
ENCODING 815
SWIDTH 0 0
DWIDTH 0 0
BBX 12 6 -19 -7
BITMAP
0C00
3FC0
7FC0
E070
C070
8070
ENDCHAR
STARTCHAR $0330
ENCODING 816
SWIDTH 0 0
DWIDTH 0 0
BBX 12 4 -19 -6
BITMAP
7C40
FFE0
FFF0
0180
ENDCHAR
STARTCHAR $0331
ENCODING 817
SWIDTH 0 0
DWIDTH 0 0
BBX 13 3 -21 -6
BITMAP
FFF8
FFF8
FFF8
ENDCHAR
STARTCHAR $0332
ENCODING 818
SWIDTH 0 0
DWIDTH 0 0
BBX 12 3 -15 -6
BITMAP
FFF0
FFF0
FFF0
ENDCHAR
STARTCHAR $0333
ENCODING 819
SWIDTH 0 0
DWIDTH 0 0
BBX 12 9 -15 -12
BITMAP
FFF0
FFF0
FFF0
0000
0000
0000
FFF0
FFF0
FFF0
ENDCHAR
STARTCHAR $0338
ENCODING 824
SWIDTH 0 0
DWIDTH 0 0
BBX 13 33 -15 -6
BITMAP
0038
0038
0038
0070
0070
0070
0070
00E0
01C0
01C0
03C0
03C0
0380
0380
0380
0F80
0F00
0E00
0E00
1E00
1E00
1C00
1C00
1C00
7000
7000
7000
7000
E000
E000
E000
E000
E000
ENDCHAR
STARTCHAR $033F
ENCODING 831
SWIDTH 0 0
DWIDTH 0 0
BBX 12 9 -15 27
BITMAP
FFF0
FFF0
FFF0
0000
0000
0000
FFF0
FFF0
FFF0
ENDCHAR
STARTCHAR $034D
ENCODING 845
SWIDTH 0 0
DWIDTH 0 0
BBX 24 12 -21 -13
BITMAP
01C1C0
07C1E0
0FC1E0
7E003C
FFFFFE
FFFFFF
FFFFFF
1F00FE
1E00FC
03C1E0
01C180
01C100
ENDCHAR
STARTCHAR $0361
ENCODING 865
SWIDTH 259 0
DWIDTH 11 0
BBX 12 4 4 28
BITMAP
1FC0
FFE0
FFF0
E070
ENDCHAR
STARTCHAR $0391
ENCODING 913
SWIDTH 740 0
DWIDTH 30 0
BBX 27 30 1 0
BITMAP
000E0000
001F0000
003F0000
003F0000
00738000
0071C000
0071C000
00F1C000
01F1C000
01C0E000
01C0E000
01C0E000
03803800
03803800
03803800
0E003C00
0FFFFC00
0FFFFC00
1FFFFC00
1C000700
1C000700
1C000700
38000380
70000380
70000380
E00003E0
E00003E0
E00000E0
E00000E0
E00000C0
ENDCHAR
STARTCHAR $0392
ENCODING 914
SWIDTH 592 0
DWIDTH 24 0
BBX 19 30 3 0
BITMAP
FFF000
FFFC00
FFFE00
E00F00
E00700
E00700
E007C0
E003C0
E001C0
E00700
E00700
E00700
E00F00
FFFE00
FFFE00
FFFF00
E007C0
E007C0
E001C0
E000E0
E000E0
E000E0
E000E0
E000E0
E001C0
E007C0
E007C0
FFFF00
FFF800
FFF800
ENDCHAR
STARTCHAR $0393
ENCODING 915
SWIDTH 481 0
DWIDTH 20 0
BBX 15 30 3 0
BITMAP
FFFE
FFFE
FFFE
E000
E000
E000
E000
E000
E000
E000
E000
E000
E000
E000
E000
E000
E000
E000
E000
E000
E000
E000
E000
E000
E000
E000
E000
E000
E000
E000
ENDCHAR
STARTCHAR $0394
ENCODING 916
SWIDTH 629 0
DWIDTH 26 0
BBX 25 27 0 0
BITMAP
003E0000
003E0000
003E0000
007F0000
00770000
00770000
0077C000
00E3C000
01C1C000
01C1E000
03C0E000
03C0E000
0380E000
03803000
03803800
0E003800
0E003C00
0E003C00
1E001C00
1C001F00
1C001F00
7C000700
78000700
78000700
7FFFFF80
FFFFFF80
FFFFFF80
ENDCHAR
STARTCHAR $0395
ENCODING 917
SWIDTH 518 0
DWIDTH 21 0
BBX 16 30 3 0
BITMAP
FFFF
FFFF
FFFF
E000
E000
E000
E000
E000
E000
E000
E000
E000
E000
FFFF
FFFF
FFFF
E000
E000
E000
E000
E000
E000
E000
E000
E000
E000
E000
FFFF
FFFF
FFFF
ENDCHAR
STARTCHAR $0396
ENCODING 918
SWIDTH 481 0
DWIDTH 20 0
BBX 19 30 0 0
BITMAP
7FFFC0
7FFFC0
3FFFC0
0001C0
000380
000700
000700
000E00
000E00
003E00
003C00
003800
007800
007000
007000
01C000
03C000
03C000
038000
078000
0F8000
0E0000
1C0000
1C0000
7C0000
780000
780000
FFFFE0
FFFFE0
FFFFE0
ENDCHAR
STARTCHAR $0397
ENCODING 919
SWIDTH 666 0
DWIDTH 27 0
BBX 21 30 3 0
BITMAP
E00038
E00038
E00038
E00038
E00038
E00038
E00038
E00038
E00038
E00038
E00038
E00038
E00038
FFFFF8
FFFFF8
FFFFF8
E00038
E00038
E00038
E00038
E00038
E00038
E00038
E00038
E00038
E00038
E00038
E00038
E00038
E00030
ENDCHAR
STARTCHAR $0398
ENCODING 920
SWIDTH 851 0
DWIDTH 35 0
BBX 31 30 1 0
BITMAP
000FF800
00FFFE00
01FFFF00
03C007E0
078001F0
0F8000F0
1C00007C
3C00003C
7C00001C
7000001E
7000000E
7000000E
E000000E
E01FFC0E
E03FFC0E
E03FFC0E
E000000E
E000000E
7000000E
7000001E
7800001E
7C00001C
1E00007C
1F000078
0F8000F0
03C007E0
03E00FC0
01FFFF00
003FF800
001FF000
ENDCHAR
STARTCHAR $0399
ENCODING 921
SWIDTH 222 0
DWIDTH 9 0
BBX 3 30 3 0
BITMAP
E0
E0
E0
E0
E0
E0
E0
E0
E0
E0
E0
E0
E0
E0
E0
E0
E0
E0
E0
E0
E0
E0
E0
E0
E0
E0
E0
E0
E0
E0
ENDCHAR
STARTCHAR $039A
ENCODING 922
SWIDTH 592 0
DWIDTH 24 0
BBX 19 30 3 0
BITMAP
E000E0
E001E0
E001E0
E007C0
E00F80
E00F00
E00E00
E01C00
E03800
E07800
E0F000
E1F000
E3C000
E38000
E38000
EF8000
FDC000
FCE000
FC7000
F87800
F07C00
E03E00
E00E00
E00E00
E00700
E007C0
E003C0
E001E0
E000E0
E00060
ENDCHAR
STARTCHAR $039B
ENCODING 923
SWIDTH 740 0
DWIDTH 30 0
BBX 27 30 1 0
BITMAP
000E0000
001F0000
003F0000
003F0000
00778000
0077C000
0071C000
00F1C000
01F1C000
01C0E000
01C0E000
01C0E000
03803800
03803800
03803800
0E003C00
0E001C00
0E001C00
1E001C00
1C000700
1C000700
1C000700
38000380
70000380
70000380
E00003E0
E00003E0
E00000E0
E00000E0
E00000C0
ENDCHAR
STARTCHAR $039C
ENCODING 924
SWIDTH 925 0
DWIDTH 38 0
BBX 31 30 3 0
BITMAP
F000007E
F800007E
FC00007E
FC00007E
EE0000EE
EE0000EE
EE0000EE
EE0001CE
E600038E
E380038E
E380078E
E380078E
E1C0070E
E1C0070E
E0C0070E
E0701C0E
E0701C0E
E0701C0E
E070380E
E038380E
E038380E
E038F80E
E00EE00E
E00EE00E
E00EE00E
E00FC00E
E00FC00E
E007C00E
E007000E
E003000E
ENDCHAR
STARTCHAR $039D
ENCODING 925
SWIDTH 740 0
DWIDTH 30 0
BBX 24 30 3 0
BITMAP
F00007
F80007
FC0007
FC0007
EE0007
EE0007
EF8007
E38007
E38007
E1C007
E1F007
E1F007
E07007
E03807
E03807
E03E07
E00F07
E00F07
E00707
E001C7
E001C7
E001E7
E000E7
E00067
E0003F
E0003F
E0003F
E0001F
E00007
E00006
ENDCHAR
STARTCHAR $039E
ENCODING 926
SWIDTH 666 0
DWIDTH 27 0
BBX 24 30 1 0
BITMAP
FFFFFF
FFFFFF
FFFFFF
000000
000000
000000
000000
000000
000000
000000
000000
000000
000000
1FFFF0
1FFFF8
1FFFF8
000000
000000
000000
000000
000000
000000
000000
000000
000000
000000
000000
FFFFFF
FFFFFF
FFFFFE
ENDCHAR
STARTCHAR $039F
ENCODING 927
SWIDTH 851 0
DWIDTH 35 0
BBX 31 30 1 0
BITMAP
000FF800
00FFFE00
01FFFF00
03C007E0
078001F0
0F8000F0
1C00007C
3C00003C
7C00001C
7000001E
7000000E
7000000E
E000000E
E000000E
E000000E
E000000E
E000000E
E000000E
7000000E
7000001E
7800001E
7C00001C
1E00007C
1F000078
0F8000F0
03C007E0
03E00FC0
01FFFF00
003FF800
001FF000
ENDCHAR
STARTCHAR $03A0
ENCODING 928
SWIDTH 629 0
DWIDTH 26 0
BBX 21 27 3 0
BITMAP
FFFFF8
FFFFF8
FFFFF8
E00038
E00038
E00038
E00038
E00038
E00038
E00038
E00038
E00038
E00038
E00038
E00038
E00038
E00038
E00038
E00038
E00038
E00038
E00038
E00038
E00038
E00038
E00038
E00030
ENDCHAR
STARTCHAR $03A1
ENCODING 929
SWIDTH 592 0
DWIDTH 24 0
BBX 19 30 3 0
BITMAP
FFFE00
FFFF80
FFFFC0
E001C0
E000E0
E000E0
E000E0
E000E0
E000E0
E000E0
E000E0
E000E0
E000E0
E003C0
E007C0
FFFF00
FFFC00
FFF800
E00000
E00000
E00000
E00000
E00000
E00000
E00000
E00000
E00000
E00000
E00000
E00000
ENDCHAR
STARTCHAR $03A3
ENCODING 931
SWIDTH 444 0
DWIDTH 18 0
BBX 18 27 0 0
BITMAP
FFFFC0
FFFFC0
FFFFC0
700000
7C0000
3C0000
1E0000
0E0000
0E0000
0F8000
038000
038000
01C000
03C000
03C000
038000
078000
0F8000
0E0000
1C0000
1C0000
7C0000
780000
780000
FFFFC0
FFFFC0
FFFFC0
ENDCHAR
STARTCHAR $03A4
ENCODING 932
SWIDTH 444 0
DWIDTH 18 0
BBX 16 30 0 0
BITMAP
FFFF
FFFF
FFFF
01C0
01C0
01C0
01C0
01C0
01C0
01C0
01C0
01C0
01C0
01C0
01C0
01C0
01C0
01C0
01C0
01C0
01C0
01C0
01C0
01C0
01C0
01C0
01C0
01C0
01C0
00C0
ENDCHAR
STARTCHAR $03A5
ENCODING 933
SWIDTH 592 0
DWIDTH 24 0
BBX 24 30 0 0
BITMAP
F0001F
70001E
70001C
7C003C
1C0038
1C0038
1E00F8
0E00F0
0E00E0
0F81E0
0381C0
0381C0
03C700
01C700
01C700
01FE00
007E00
007E00
003800
003800
003800
003800
003800
003800
003800
003800
003800
003800
003800
001800
ENDCHAR
STARTCHAR $03A6
ENCODING 934
SWIDTH 814 0
DWIDTH 33 0
BBX 27 30 3 0
BITMAP
000E0000
000E0000
000E0000
000E0000
000E0000
000E0000
01FFE000
07FFFC00
0FFFFC00
7E0E1F80
F80E0380
F00E0380
E00E00E0
E00E00E0
E00E00E0
E00E00E0
E00E00E0
E00E00E0
F00E0380
7E0E1F80
3F0E1F80
1FFFFC00
01FFE000
00FFE000
000E0000
000E0000
000E0000
000E0000
000E0000
000E0000
ENDCHAR
STARTCHAR $03A7
ENCODING 935
SWIDTH 592 0
DWIDTH 24 0
BBX 22 30 1 0
BITMAP
E00038
700078
7000F8
7C00E0
1C01E0
1C01E0
0E01C0
0F8380
078700
038F00
03CE00
03CE00
01F800
007800
007800
01F800
01FE00
01FE00
03CE00
038700
038700
0E07C0
1E01C0
1E01C0
1C00E0
3800F8
700078
F00038
E0001C
E0000C
ENDCHAR
STARTCHAR $03A8
ENCODING 936
SWIDTH 777 0
DWIDTH 32 0
BBX 27 30 3 0
BITMAP
E00E00E0
E00E00E0
E00E00E0
E00E00E0
E00E00E0
E00E00E0
E00E00E0
E00E00E0
E00E00E0
E00E00E0
E00E01E0
E00E03E0
F00E0380
700E0780
780E0780
7C0E1F00
1F8E3C00
1F8E3C00
03FFF800
01FFC000
00FFC000
000E0000
000E0000
000E0000
000E0000
000E0000
000E0000
000E0000
000E0000
000E0000
ENDCHAR
STARTCHAR $03A9
ENCODING 937
SWIDTH 814 0
DWIDTH 33 0
BBX 30 28 1 1
BITMAP
003FE000
00FFFC00
01FFFC00
0FF03F00
1F000F80
1E000780
1C0003E0
380001F0
700000F0
70000070
E0000070
E0000070
E000007C
E000007C
E000007C
E000007C
E0000070
E0000070
F0000070
700000F0
780000F0
7C0000E0
1E0003E0
1F0003C0
0FC01F80
3FF03FE0
7FF03FE0
7FF03FE0
ENDCHAR
STARTCHAR $03B1
ENCODING 945
SWIDTH 703 0
DWIDTH 29 0
BBX 22 22 3 1
BITMAP
03F81C
07FF1C
0FFF1C
1E0738
3803F8
7001F8
F001F8
E000F8
E000F8
E000E0
E000E0
E000E0
E000E0
E001E0
E001E0
E001E0
7001F8
7801F8
7E0738
0FFE1C
07FE1C
03F804
ENDCHAR
STARTCHAR $03B2
ENCODING 946
SWIDTH 481 0
DWIDTH 20 0
BBX 15 39 1 -7
BITMAP
03F0
1FF8
1FF8
1C38
381C
700E
700E
700E
700E
700E
701E
703E
7078
73F0
73F0
73F0
7078
7078
703E
700E
700E
700E
700E
700E
700E
700E
780E
7C3E
7FF8
7FF8
7FF0
7800
7000
7000
7000
7000
E000
E000
C000
ENDCHAR
STARTCHAR $03B3
ENCODING 947
SWIDTH 481 0
DWIDTH 20 0
BBX 21 28 0 -5
BITMAP
F00038
780038
3C0038
1E00E0
0E00E0
0E00E0
0F81E0
0381C0
0381C0
03C1C0
01C380
01C700
01C700
01FF00
00FF00
007E00
007E00
007E00
007800
007800
007800
007000
007000
007000
007000
007000
007000
007000
ENDCHAR
STARTCHAR $03B4
ENCODING 948
SWIDTH 703 0
DWIDTH 29 0
BBX 22 30 3 0
BITMAP
1FFFE0
1FFFE0
1FFFE0
0F8000
03E000
03F000
007800
03FF00
03FF00
0FFFC0
1C01E0
1C01E0
700038
E0003C
E0003C
E0001C
E0001C
E0001C
E0001C
E0001C
E0001C
E0001C
F0003C
F0003C
700038
1E01E0
1F01E0
0FFFC0
01FE00
00FE00
ENDCHAR
STARTCHAR $03B5
ENCODING 949
SWIDTH 481 0
DWIDTH 20 0
BBX 15 25 3 0
BITMAP
0FF0
3FFC
7FFE
700E
E000
E000
E000
E000
E000
7000
7FC0
7FC0
7FC0
F800
F000
E000
E000
E000
E000
E000
E000
7C0E
7FFE
3FFE
0FF0
ENDCHAR
STARTCHAR $03B6
ENCODING 950
SWIDTH 407 0
DWIDTH 17 0
BBX 12 37 3 -6
BITMAP
FFF0
FFF0
FFF0
0380
0700
0E00
1C00
1C00
1C00
7000
7000
7000
E000
E000
E000
E000
E000
E000
E000
E000
E000
E000
E000
E000
E000
7000
7800
7F80
1FC0
1FC0
01C0
0070
0070
0070
0070
0070
0070
ENDCHAR
STARTCHAR $03B7
ENCODING 951
SWIDTH 592 0
DWIDTH 24 0
BBX 19 30 3 -7
BITMAP
E3F800
FFFF00
FFFF00
FC07C0
F803C0
F001C0
E001C0
E000E0
E000E0
E000E0
E000E0
E000E0
E000E0
E000E0
E000E0
E000E0
E000E0
E000E0
E000E0
E000E0
E000E0
E000E0
0000E0
0000E0
0000E0
0000E0
0000E0
0000E0
0000E0
000060
ENDCHAR
STARTCHAR $03B8
ENCODING 952
SWIDTH 555 0
DWIDTH 23 0
BBX 16 30 3 0
BITMAP
0FF0
1FF8
1FF8
7C3E
781E
700E
E00E
E007
E007
E007
E007
E007
E007
FFFF
FFFF
FFFF
E007
E007
E007
E007
E007
E007
E00E
E00E
700E
7C38
3C38
1FF8
0FC0
07C0
ENDCHAR
STARTCHAR $03B9
ENCODING 953
SWIDTH 333 0
DWIDTH 14 0
BBX 6 22 4 1
BITMAP
E0
E0
E0
E0
E0
E0
E0
E0
E0
E0
E0
E0
E0
E0
E0
60
70
70
70
7C
3C
1C
ENDCHAR
STARTCHAR $03BA
ENCODING 954
SWIDTH 518 0
DWIDTH 21 0
BBX 16 22 3 1
BITMAP
E00F
E01E
E03E
E038
E070
E070
E1F0
E3E0
E3C0
E380
E700
EE00
FF80
FFC0
FFC0
F1F0
E078
E078
E038
E00E
E00E
E00F
ENDCHAR
STARTCHAR $03BB
ENCODING 955
SWIDTH 592 0
DWIDTH 24 0
BBX 19 30 3 0
BITMAP
1C0000
1F0000
1F8000
03C000
01C000
01C000
007000
007000
007000
007000
007800
007800
01F800
01F800
01F800
03CE00
038E00
038E00
0F8E00
0F0700
0E0700
1E0700
1C0700
1C0780
7C07C0
7801C0
7001C0
F001C0
E001E0
E001E0
ENDCHAR
STARTCHAR $03BC
ENCODING 956
SWIDTH 592 0
DWIDTH 24 0
BBX 19 30 3 -7
BITMAP
E000E0
E000E0
E000E0
E000E0
E000E0
E000E0
E000E0
E000E0
E000E0
E000E0
E000E0
E000E0
E000E0
E000E0
E000E0
E001E0
F001E0
F801E0
FC07E0
EFFEE0
E7FEE0
E3F8E0
E00000
E00000
E00000
E00000
E00000
E00000
E00000
E00000
ENDCHAR
STARTCHAR $03BD
ENCODING 957
SWIDTH 481 0
DWIDTH 20 0
BBX 16 22 1 1
BITMAP
E00E
E00E
E00E
F007
7007
7007
7007
7007
3807
1C07
1C0E
1C0E
1C0E
1E0E
1E0E
0E38
0E78
0F78
0FF0
03E0
03C0
0380
ENDCHAR
STARTCHAR $03BE
ENCODING 958
SWIDTH 407 0
DWIDTH 17 0
BBX 10 37 3 -6
BITMAP
FFC0
FFC0
FFC0
7000
E000
E000
E000
E000
E000
F000
7C00
3C00
1F80
1F80
1F80
7C00
F800
F000
E000
E000
E000
E000
E000
E000
E000
F000
F800
7F80
1F80
1F80
01C0
01C0
01C0
01C0
01C0
01C0
01C0
ENDCHAR
STARTCHAR $03BF
ENCODING 959
SWIDTH 666 0
DWIDTH 27 0
BBX 24 22 1 1
BITMAP
01FF00
07FFE0
0FFFE0
1E00F8
3C007C
7C003C
70001C
F0001C
F0001C
E0001F
E0000F
E00007
E0001C
F0001C
F0001C
70001C
7C0038
3C0038
1E00F8
0FFFE0
07FFE0
01FF00
ENDCHAR
STARTCHAR $03C0
ENCODING 960
SWIDTH 666 0
DWIDTH 27 0
BBX 21 22 3 1
BITMAP
FFFFF8
FFFFF8
FFFFF8
1C01C0
1C01C0
1C01C0
1C01C0
1C01C0
1C01C0
1C01C0
1C01C0
1C01C0
1C01C0
1C01C0
1C01C0
1C01C0
1C01C0
1C01C0
1C01C0
1C00E0
1C00E0
1C0020
ENDCHAR
STARTCHAR $03C1
ENCODING 961
SWIDTH 592 0
DWIDTH 24 0
BBX 19 28 3 -5
BITMAP
03F800
1FFC00
1FFE00
7C0F00
780780
7007C0
E001C0
E001C0
E001C0
E000E0
E000E0
E000E0
E000E0
E001C0
E001C0
E001C0
E003C0
E007C0
FC0F00
FFFE00
FFFE00
E3F000
E00000
E00000
E00000
E00000
E00000
E00000
ENDCHAR
STARTCHAR $03C2
ENCODING 962
SWIDTH 555 0
DWIDTH 23 0
BBX 16 30 3 -7
BITMAP
03F0
1FF8
1FF8
7C0E
7807
7007
E006
E000
E000
E000
E000
E000
E000
E000
E000
E000
7000
7800
7C00
1FF8
1FFC
03FE
000F
000F
0007
0007
0007
0007
0007
0003
ENDCHAR
STARTCHAR $03C3
ENCODING 963
SWIDTH 740 0
DWIDTH 30 0
BBX 25 24 3 0
BITMAP
00000780
00FFFF80
01FFFF80
0FFFE000
1F03E000
1E01E000
7000F800
F0007C00
F0003C00
E0001C00
E0001C00
E0001C00
E0001C00
E0001C00
E0001C00
E0001C00
F0003C00
F0003C00
70003800
1E01E000
1F01E000
0FFFC000
01FE0000
00FE0000
ENDCHAR
STARTCHAR $03C4
ENCODING 964
SWIDTH 481 0
DWIDTH 20 0
BBX 13 22 3 1
BITMAP
FFF8
FFF8
FFF8
0E00
0E00
0E00
0E00
0E00
0E00
0E00
0E00
0E00
0E00
0F80
0780
0380
0380
0380
01C0
01F8
00F8
0038
ENDCHAR
STARTCHAR $03C5
ENCODING 965
SWIDTH 555 0
DWIDTH 23 0
BBX 16 22 3 1
BITMAP
E00E
E00F
E00F
E007
E007
E007
E007
E007
E007
E007
E007
E007
E007
E007
E007
E00F
E00E
E00E
F03E
7FFC
3FF8
0FC0
ENDCHAR
STARTCHAR $03C6
ENCODING 966
SWIDTH 703 0
DWIDTH 29 0
BBX 22 28 3 -5
BITMAP
0C07E0
1C0FF0
1C0FF8
7C3E38
783C1C
70381C
E0381C
E0381C
E0381C
E0381C
E0381C
E0381C
E0781C
E0781C
E0781C
F0783C
7C7838
3C7838
1E79E0
0FFFC0
07FFC0
03FE00
007800
007800
007800
007800
007800
007800
ENDCHAR
STARTCHAR $03C7
ENCODING 967
SWIDTH 555 0
DWIDTH 23 0
BBX 16 28 3 -5
BITMAP
E007
F00F
F00F
700E
7C0E
3C0E
1C38
1E38
1E38
0E70
0FF0
07F0
03C0
03C0
03C0
03C0
03F0
03F0
0E70
0E78
0E78
1C38
1C3E
1C1E
700E
700F
700F
E007
ENDCHAR
STARTCHAR $03C8
ENCODING 968
SWIDTH 703 0
DWIDTH 29 0
BBX 22 36 3 -6
BITMAP
003800
003800
003800
003800
003800
003800
003800
E0380C
E0381C
E0381C
E0381C
E0381C
E0381C
E0381C
E0381C
E0381C
E0381C
E0381C
E0381C
E0381C
E0381C
E0381C
E0381C
E0381C
E0381C
7C38F8
3C3CF0
1FFFE0
03FF00
03FF00
003800
003800
003800
003800
003800
001800
ENDCHAR
STARTCHAR $03C9
ENCODING 969
SWIDTH 703 0
DWIDTH 29 0
BBX 24 22 3 1
BITMAP
E0001C
E0001C
E0001C
E0001C
E0000E
E00007
E00007
E01807
E03807
E03807
E03807
E03807
E03807
E03807
E03807
E03804
E0781C
E0781C
707E1C
7FEFF8
3FCFF8
1F87E0
ENDCHAR
STARTCHAR $03D1
ENCODING 977
SWIDTH 592 0
DWIDTH 24 0
BBX 18 31 3 1
BITMAP
0FF000
1FF800
1FF800
703E00
E01E00
E00E00
E00700
E00700
E00700
F00700
7E0700
3E0700
1FFFC0
007FC0
007FC0
000700
E00700
E00700
E00700
E00700
E00700
E00700
E00700
E00700
E00700
F00E00
F80E00
7C3E00
1FF800
1FF800
0FF000
ENDCHAR
STARTCHAR $03D5
ENCODING 981
SWIDTH 666 0
DWIDTH 27 0
BBX 24 36 1 -6
BITMAP
003800
003800
003800
003800
003800
003800
003800
00FF00
01FF00
0FFFE0
1F3CF0
1E38F8
7C3838
78381C
70381C
E0381C
E0381E
E0381F
E03807
E0381C
E0381C
F0381C
70381C
78381C
7C383C
1E38F8
1F3CF0
0FFFE0
01FF00
00FF00
003800
003800
003800
003800
003800
001800
ENDCHAR
STARTCHAR $03D6
ENCODING 982
SWIDTH 703 0
DWIDTH 29 0
BBX 24 30 3 0
BITMAP
01FE00
1FFF80
1FFFC0
1E01E0
000070
000038
000038
E0001C
E0001C
E0001C
E0001C
E0001C
E0001C
E0000E
E00007
E03807
E03807
E03807
E03807
E03807
E03807
E03807
E03804
E03804
E0781C
707E1C
787E1C
7FCFF8
1F87E0
1F83E0
ENDCHAR
STARTCHAR $03F0
ENCODING 1008
SWIDTH 592 0
DWIDTH 24 0
BBX 21 22 1 1
BITMAP
600020
780070
3C00F8
1C00F8
1E01F0
1E01E0
0E01E0
0E03C0
0E07C0
0E3FC0
0FFF80
0FFF00
0FC700
1F0700
1E0700
1C01C0
3C01C0
7C01C0
7C01E0
F800F8
F000F8
700038
ENDCHAR
STARTCHAR $03F1
ENCODING 1009
SWIDTH 703 0
DWIDTH 29 0
BBX 22 31 3 -8
BITMAP
01FE00
07FF80
0FFFC0
1E01E0
3800F0
7000F8
F0003C
E0001C
E0001C
E0001C
E0001C
E0001C
E0001C
E0001C
E0001C
F0003C
F00038
F80038
FE01E0
7FFFC0
7FFFC0
7DFE00
1E0000
1F0000
0F8000
03FE00
03FE00
007FE0
0000F8
000078
00001C
ENDCHAR
STARTCHAR $03F4
ENCODING 1012
SWIDTH 814 0
DWIDTH 33 0
BBX 31 30 1 0
BITMAP
000FF800
00FFFE00
01FFFF00
03C007E0
078001F0
0F8000F0
1C00007C
3C00003C
7C00001C
7000001E
7000000E
7000000E
E000000E
FFFFFFFE
FFFFFFFE
FFFFFFFE
E000000E
E000000E
7000000E
7000001E
7800001E
7C00001C
1E00007C
1F000078
0F8000F0
03C007E0
03E00FC0
01FFFF00
003FF800
001FF000
ENDCHAR
STARTCHAR $03F5
ENCODING 1013
SWIDTH 629 0
DWIDTH 26 0
BBX 22 22 1 1
BITMAP
01FF00
07FFE0
0FFFE0
1E00F8
3C007C
7C003C
700000
E00000
E00000
FFFF00
FFFF00
FFFF00
E00000
F00000
F00000
700000
7C003C
3C003C
1E00F8
0FFFE0
07FFE0
01FF00
ENDCHAR
STARTCHAR $0E3F
ENCODING 3647
SWIDTH 592 0
DWIDTH 24 0
BBX 19 36 3 -3
BITMAP
01C000
01C000
01C000
FFF000
FFFC00
FFFE00
E00F00
E00700
E00700
E007C0
E001C0
E001C0
E00700
E00700
E00700
E00F00
FFFE00
FFFE00
FFFF00
E007C0
E003C0
E001C0
E000E0
E000E0
E000E0
E000E0
E000E0
E001C0
E007C0
E00780
FFFF00
FFF800
FFF800
01C000
01C000
00C000
ENDCHAR
STARTCHAR $1E0C
ENCODING 7692
SWIDTH 740 0
DWIDTH 30 0
BBX 25 37 3 -6
BITMAP
FFFE0000
FFFF8000
FFFFC000
E001F800
E0007C00
E0003C00
E0001C00
E0000E00
E0000700
E0000700
E0000380
E0000380
E0000380
E0000380
E0000380
E0000380
E0000380
E0000380
E0000380
E0000700
E0000700
E0000700
E0001C00
E0001C00
E0003C00
E001F800
E001F000
FFFFC000
FFFE0000
FFFE0000
00000000
00000000
00000000
01C00000
01C00000
01C00000
01C00000
ENDCHAR
STARTCHAR $1E0D
ENCODING 7693
SWIDTH 703 0
DWIDTH 29 0
BBX 24 36 1 -6
BITMAP
000007
000007
000007
000007
000007
000007
000007
00FF07
01FF07
0FFFE7
1F00FF
1E00FF
7C003F
78001F
70001F
F0001F
E00007
E00007
E00007
E00007
E00007
F00007
70001F
78001F
7C003F
1E00E7
1F00E7
0FFFC7
01FF07
00FF06
000000
003800
003800
003800
003800
001800
ENDCHAR
STARTCHAR $1E0E
ENCODING 7694
SWIDTH 740 0
DWIDTH 30 0
BBX 25 36 3 -6
BITMAP
FFFE0000
FFFF8000
FFFFC000
E001F800
E0007C00
E0003C00
E0001C00
E0000E00
E0000700
E0000700
E0000380
E0000380
E0000380
E0000380
E0000380
E0000380
E0000380
E0000380
E0000380
E0000700
E0000700
E0000700
E0001C00
E0001C00
E0003C00
E001F800
E001F000
FFFFC000
FFFE0000
FFFE0000
00000000
00000000
00000000
7FFF0000
7FFF0000
3FFF0000
ENDCHAR
STARTCHAR $1E0F
ENCODING 7695
SWIDTH 703 0
DWIDTH 29 0
BBX 24 36 1 -6
BITMAP
000007
000007
000007
000007
000007
000007
000007
00FF07
01FF07
0FFFE7
1F00FF
1E00FF
7C003F
78001F
70001F
F0001F
E00007
E00007
E00007
E00007
E00007
F00007
70001F
78001F
7C003F
1E00E7
1F00E7
0FFFC7
01FF07
00FF06
000000
000000
000000
03FFE0
03FFE0
03FFE0
ENDCHAR
STARTCHAR $1E24
ENCODING 7716
SWIDTH 666 0
DWIDTH 27 0
BBX 21 37 3 -6
BITMAP
E00038
E00038
E00038
E00038
E00038
E00038
E00038
E00038
E00038
E00038
E00038
E00038
E00038
FFFFF8
FFFFF8
FFFFF8
E00038
E00038
E00038
E00038
E00038
E00038
E00038
E00038
E00038
E00038
E00038
E00038
E00038
E00030
000000
000000
000000
007000
007000
007000
007000
ENDCHAR
STARTCHAR $1E25
ENCODING 7717
SWIDTH 592 0
DWIDTH 24 0
BBX 19 37 3 -6
BITMAP
E00000
E00000
E00000
E00000
E00000
E00000
E00000
E3F800
E3F800
FFFF00
FC0780
FC07C0
F001C0
E001C0
E001C0
E000E0
E000E0
E000E0
E000E0
E000E0
E000E0
E000E0
E000E0
E000E0
E000E0
E000E0
E000E0
E000E0
E000E0
E00060
000000
000000
000000
01C000
01C000
01C000
01C000
ENDCHAR
STARTCHAR $1E26
ENCODING 7718
SWIDTH 666 0
DWIDTH 27 0
BBX 21 37 3 1
BITMAP
038E00
038E00
038E00
038E00
000000
000000
000000
E00030
E00038
E00038
E00038
E00038
E00038
E00038
E00038
E00038
E00038
E00038
E00038
E00038
E00038
FFFFF8
FFFFF8
FFFFF8
E00038
E00038
E00038
E00038
E00038
E00038
E00038
E00038
E00038
E00038
E00038
E00038
E00038
ENDCHAR
STARTCHAR $1E27
ENCODING 7719
SWIDTH 592 0
DWIDTH 24 0
BBX 19 37 3 1
BITMAP
0E3800
0E3800
0E3800
0E3800
000000
000000
000000
E00000
E00000
E00000
E00000
E00000
E00000
E00000
E00000
E3F800
FFFF00
FFFF00
FC07C0
F801C0
F001C0
E001C0
E000E0
E000E0
E000E0
E000E0
E000E0
E000E0
E000E0
E000E0
E000E0
E000E0
E000E0
E000E0
E000E0
E000E0
E000E0
ENDCHAR
STARTCHAR $1E2A
ENCODING 7722
SWIDTH 666 0
DWIDTH 27 0
BBX 21 37 3 -6
BITMAP
E00038
E00038
E00038
E00038
E00038
E00038
E00038
E00038
E00038
E00038
E00038
E00038
E00038
FFFFF8
FFFFF8
FFFFF8
E00038
E00038
E00038
E00038
E00038
E00038
E00038
E00038
E00038
E00038
E00038
E00038
E00038
E00030
000000
000000
000000
0E0700
03FF00
03FF00
01FE00
ENDCHAR
STARTCHAR $1E2B
ENCODING 7723
SWIDTH 592 0
DWIDTH 24 0
BBX 19 37 3 -6
BITMAP
E00000
E00000
E00000
E00000
E00000
E00000
E00000
E3F800
E3F800
FFFF00
FC0780
FC07C0
F001C0
E001C0
E001C0
E000E0
E000E0
E000E0
E000E0
E000E0
E000E0
E000E0
E000E0
E000E0
E000E0
E000E0
E000E0
E000E0
E000E0
E00060
000000
000000
000000
1C0E00
0FFE00
07FC00
03F800
ENDCHAR
STARTCHAR $1E2E
ENCODING 7726
SWIDTH 222 0
DWIDTH 9 0
BBX 10 44 0 2
BITMAP
03C0
0780
0F80
7C00
1800
1000
0000
E380
E380
E380
E380
E380
0000
0000
0000
1C00
1C00
1C00
1C00
1C00
1C00
1C00
1C00
1C00
1C00
1C00
1C00
1C00
1C00
1C00
1C00
1C00
1C00
1C00
1C00
1C00
1C00
1C00
1C00
1C00
1C00
1C00
1C00
1C00
ENDCHAR
STARTCHAR $1E2F
ENCODING 7727
SWIDTH 185 0
DWIDTH 8 0
BBX 10 39 0 0
BITMAP
0180
07C0
0FC0
1E00
3800
7000
6000
0000
0000
E380
E380
E380
E380
0000
0000
0000
1C00
1C00
1C00
1C00
1C00
1C00
1C00
1C00
1C00
1C00
1C00
1C00
1C00
1C00
1C00
1C00
1C00
1C00
1C00
1C00
1C00
1C00
1800
ENDCHAR
STARTCHAR $1E36
ENCODING 7734
SWIDTH 444 0
DWIDTH 18 0
BBX 15 37 3 -6
BITMAP
E000
E000
E000
E000
E000
E000
E000
E000
E000
E000
E000
E000
E000
E000
E000
E000
E000
E000
E000
E000
E000
E000
E000
E000
E000
E000
E000
FFFE
FFFE
FFFE
0000
0000
0000
0380
0380
0380
0380
ENDCHAR
STARTCHAR $1E37
ENCODING 7735
SWIDTH 185 0
DWIDTH 8 0
BBX 3 37 3 -6
BITMAP
E0
E0
E0
E0
E0
E0
E0
E0
E0
E0
E0
E0
E0
E0
E0
E0
E0
E0
E0
E0
E0
E0
E0
E0
E0
E0
E0
E0
E0
E0
00
00
00
E0
E0
E0
E0
ENDCHAR
STARTCHAR $1E38
ENCODING 7736
SWIDTH 444 0
DWIDTH 18 0
BBX 21 43 -3 -7
BITMAP
FFFE00
FFFE00
FFFE00
000000
000000
000000
038000
038000
038000
038000
038000
038000
038000
038000
038000
038000
038000
038000
038000
038000
038000
038000
038000
038000
038000
038000
038000
038000
038000
038000
038000
038000
038000
03FFF8
03FFF8
03FFF0
000000
000000
000000
000E00
000E00
000E00
000E00
ENDCHAR
STARTCHAR $1E39
ENCODING 7737
SWIDTH 185 0
DWIDTH 8 0
BBX 13 43 -3 -7
BITMAP
FFF8
FFF8
FFF8
0000
0000
0000
0380
0380
0380
0380
0380
0380
0380
0380
0380
0380
0380
0380
0380
0380
0380
0380
0380
0380
0380
0380
0380
0380
0380
0380
0380
0380
0380
0380
0380
0300
0000
0000
0000
0380
0380
0380
0380
ENDCHAR
STARTCHAR $1E42
ENCODING 7746
SWIDTH 925 0
DWIDTH 38 0
BBX 31 37 3 -6
BITMAP
F000007E
F800007E
FC00007E
FC00007E
EE0000EE
EE0000EE
EE0000EE
EE0001CE
E600038E
E380038E
E380078E
E380078E
E1C0070E
E1C0070E
E0C0070E
E0701C0E
E0701C0E
E0701C0E
E070380E
E038380E
E038380E
E038F80E
E00EE00E
E00EE00E
E00EE00E
E00FC00E
E00FC00E
E007C00E
E007000E
E003000E
00000000
00000000
00000000
00070000
00070000
00070000
00070000
ENDCHAR
STARTCHAR $1E43
ENCODING 7747
SWIDTH 925 0
DWIDTH 38 0
BBX 33 30 3 -7
BITMAP
EFF01FE000
FFFC3FF800
FFFE3FFC00
F00FE01E00
E007C00E00
E007C00E00
E007C00E00
E003C00700
E001C00380
E001C00380
E001C00380
E001C00380
E001C00380
E001C00380
E001C00380
E001C00380
E001C00380
E001C00380
E001C00380
E001C00380
E001C00380
E001C00380
0000000000
0000000000
0000000000
0001C00000
0001C00000
0001C00000
0001C00000
0001800000
ENDCHAR
STARTCHAR $1E44
ENCODING 7748
SWIDTH 740 0
DWIDTH 30 0
BBX 24 37 3 1
BITMAP
003800
003800
003800
003800
000000
000000
000000
F00006
F80007
FC0007
FC0007
FC0007
EE0007
EF8007
E78007
E38007
E1C007
E1E007
E1F007
E07007
E07007
E03807
E03E07
E01E07
E00F07
E00707
E00387
E001C7
E001E7
E001E7
E000E7
E0003F
E0003F
E0003F
E0001F
E0000F
E00007
ENDCHAR
STARTCHAR $1E45
ENCODING 7749
SWIDTH 592 0
DWIDTH 24 0
BBX 19 28 3 1
BITMAP
01C000
01C000
01C000
01C000
000000
000000
E3F800
FFFF00
FFFF00
FC07C0
F801C0
F001C0
E001C0
E000E0
E000E0
E000E0
E000E0
E000E0
E000E0
E000E0
E000E0
E000E0
E000E0
E000E0
E000E0
E000E0
E000E0
E000E0
ENDCHAR
STARTCHAR $1E46
ENCODING 7750
SWIDTH 740 0
DWIDTH 30 0
BBX 24 37 3 -6
BITMAP
F00007
F80007
FC0007
FC0007
EE0007
EE0007
EF8007
E38007
E38007
E1C007
E1F007
E1F007
E07007
E03807
E03807
E03E07
E00F07
E00F07
E00707
E001C7
E001C7
E001E7
E000E7
E00067
E0003F
E0003F
E0003F
E0001F
E00007
E00006
000000
000000
000000
003800
003800
003800
003800
ENDCHAR
STARTCHAR $1E47
ENCODING 7751
SWIDTH 592 0
DWIDTH 24 0
BBX 19 30 3 -7
BITMAP
E3F800
FFFF00
FFFF00
FC07C0
F803C0
F001C0
E001C0
E000E0
E000E0
E000E0
E000E0
E000E0
E000E0
E000E0
E000E0
E000E0
E000E0
E000E0
E000E0
E000E0
E000E0
E000E0
000000
000000
000000
00C000
01C000
01C000
01C000
00C000
ENDCHAR
STARTCHAR $1E58
ENCODING 7768
SWIDTH 592 0
DWIDTH 24 0
BBX 21 37 3 1
BITMAP
01C000
01C000
01C000
01C000
000000
000000
000000
FFF800
FFF800
FFFF00
E00780
E007C0
E000E0
E000E0
E000E0
E000F8
E00038
E00038
E000F8
E000E0
E000E0
E000E0
E007C0
E007C0
E3FF00
E1F000
E0F000
E07000
E03800
E03C00
E03E00
E00F00
E00F00
E00700
E001C0
E001C0
E001E0
ENDCHAR
STARTCHAR $1E59
ENCODING 7769
SWIDTH 296 0
DWIDTH 12 0
BBX 9 28 3 1
BITMAP
7000
7000
7000
7000
0000
0000
E380
FF80
FF80
FC00
F800
F000
E000
E000
E000
E000
E000
E000
E000
E000
E000
E000
E000
E000
E000
E000
E000
E000
ENDCHAR
STARTCHAR $1E5A
ENCODING 7770
SWIDTH 592 0
DWIDTH 24 0
BBX 21 37 3 -6
BITMAP
FFF800
FFFF00
FFFF00
E007C0
E000E0
E000E0
E000E0
E000F0
E000F8
E00038
E00078
E000F8
E000E0
E000E0
E000E0
E007C0
E3FF80
E3FF00
E1F000
E07000
E07000
E03800
E03E00
E01E00
E00F00
E00700
E00380
E001C0
E001E0
E001E0
000000
000000
000000
01C000
01C000
01C000
01C000
ENDCHAR
STARTCHAR $1E5B
ENCODING 7771
SWIDTH 296 0
DWIDTH 12 0
BBX 9 30 3 -7
BITMAP
E380
FF80
FF80
FC00
F800
F000
E000
E000
E000
E000
E000
E000
E000
E000
E000
E000
E000
E000
E000
E000
E000
E000
0000
0000
0000
E000
E000
E000
E000
E000
ENDCHAR
STARTCHAR $1E5C
ENCODING 7772
SWIDTH 592 0
DWIDTH 24 0
BBX 21 43 3 -7
BITMAP
1FFF00
1FFF00
1FFF00
000000
000000
000000
FFF800
FFFF00
FFFF00
E007C0
E000E0
E000E0
E000E0
E000F0
E000F8
E00038
E00078
E000F8
E000E0
E000E0
E000E0
E007C0
E3FF00
E3FF00
E1F000
E07000
E07000
E03800
E03E00
E01E00
E00F00
E00700
E00380
E001C0
E001E0
E001E0
000000
000000
000000
01C000
01C000
01C000
01C000
ENDCHAR
STARTCHAR $1E5D
ENCODING 7773
SWIDTH 296 0
DWIDTH 12 0
BBX 13 36 -1 -7
BITMAP
FFF8
FFF8
FFF8
0000
0000
0000
0E38
0FF8
0FF8
0FC0
0F80
0F80
0E00
0E00
0E00
0E00
0E00
0E00
0E00
0E00
0E00
0E00
0E00
0E00
0E00
0E00
0E00
0E00
0000
0000
0000
0600
0E00
0E00
0E00
0600
ENDCHAR
STARTCHAR $1E62
ENCODING 7778
SWIDTH 481 0
DWIDTH 20 0
BBX 18 36 1 -6
BITMAP
0FF000
1FFC00
1FFE00
7C0F00
780700
700700
E00700
E00000
E00000
F00000
7C0000
3C0000
1F8000
0FF800
07F800
007E00
000F00
000F00
0007C0
0001C0
0001C0
E001C0
E001C0
E001C0
F00700
7C0F00
3C0F00
1FFE00
0FF000
07F000
000000
01C000
01C000
01C000
01C000
00C000
ENDCHAR
STARTCHAR $1E63
ENCODING 7779
SWIDTH 370 0
DWIDTH 15 0
BBX 15 28 0 -5
BITMAP
0FC0
1FF8
1FF8
7C38
7838
7038
7000
7C00
3C00
1F80
03F0
03F0
0078
003E
003E
E00E
700E
700E
7038
1FF8
1FF8
0FC0
0000
0000
0380
0380
0380
0380
ENDCHAR
STARTCHAR $1E6C
ENCODING 7788
SWIDTH 444 0
DWIDTH 18 0
BBX 16 37 0 -6
BITMAP
FFFF
FFFF
FFFF
01C0
01C0
01C0
01C0
01C0
01C0
01C0
01C0
01C0
01C0
01C0
01C0
01C0
01C0
01C0
01C0
01C0
01C0
01C0
01C0
01C0
01C0
01C0
01C0
01C0
01C0
00C0
0000
0000
0000
01C0
01C0
01C0
01C0
ENDCHAR
STARTCHAR $1E6D
ENCODING 7789
SWIDTH 333 0
DWIDTH 14 0
BBX 13 37 0 -6
BITMAP
0F80
0F80
0F80
0F80
0F80
0F80
0F80
FFF8
FFF8
FFF8
0F80
0F80
0F80
0F80
0F80
0F80
0F80
0F80
0F80
0F80
0F80
0F80
0F80
0F80
0F80
0F80
0F80
0F80
0F80
0780
0000
0000
0000
0F80
0F80
0F80
0F80
ENDCHAR
STARTCHAR $1E6E
ENCODING 7790
SWIDTH 444 0
DWIDTH 18 0
BBX 16 36 0 -6
BITMAP
FFFF
FFFF
FFFF
01C0
01C0
01C0
01C0
01C0
01C0
01C0
01C0
01C0
01C0
01C0
01C0
01C0
01C0
01C0
01C0
01C0
01C0
01C0
01C0
01C0
01C0
01C0
01C0
01C0
01C0
00C0
0000
0000
0000
7FFE
7FFE
3FFC
ENDCHAR
STARTCHAR $1E6F
ENCODING 7791
SWIDTH 333 0
DWIDTH 14 0
BBX 13 36 0 -6
BITMAP
0F80
0F80
0F80
0F80
0F80
0F80
0F80
FFF8
FFF8
FFF8
0F80
0F80
0F80
0F80
0F80
0F80
0F80
0F80
0F80
0F80
0F80
0F80
0F80
0F80
0F80
0F80
0F80
0F80
0F80
0780
0000
0000
0000
FFF8
FFF8
FFF8
ENDCHAR
STARTCHAR $1E80
ENCODING 7808
SWIDTH 962 0
DWIDTH 39 0
BBX 37 37 0 2
BITMAP
0007C00000
0003E00000
0001E00000
0000FC0000
0000180000
0000180000
0000000000
E000300038
E000380038
7000380038
70007C0038
7000FC0038
7000FC0038
1C00FC0070
1C00FC0070
1C01DC0070
1C01C60070
1C01C700E0
1C01C701C0
0E01C701C0
0E01C701C0
0E070781C0
0E070381C0
07070381C0
0387038380
0387038380
0387038380
038E00E380
038E00EE00
038E00EE00
01CE00EE00
01F800EE00
01F800EE00
01F8007E00
0078007C00
0078007C00
0078007C00
ENDCHAR
STARTCHAR $1E81
ENCODING 7809
SWIDTH 814 0
DWIDTH 33 0
BBX 33 31 0 1
BITMAP
0008000000
001C000000
003E000000
0007C00000
0003E00000
0001E00000
0000000000
0000000000
0000000000
E000000380
7000000380
7000000380
7001C00E00
7C01E00E00
3C01E00E00
1C07E00E00
1C07E01C00
1C07E01C00
0E07381C00
0E06387000
0E06387000
0E0E387000
038E1C7000
038E1C7000
03881CE000
03F81CE000
03F80CC000
01F8048000
01F0078000
00F0078000
0070078000
ENDCHAR
STARTCHAR $1E82
ENCODING 7810
SWIDTH 962 0
DWIDTH 39 0
BBX 37 37 0 2
BITMAP
0000078000
00000F0000
00001F0000
0000F80000
0000F00000
0000E00000
0000000000
E000300038
E000380038
7000380038
70007C0038
7000FC0038
7000FC0038
1C00FC0070
1C00FC0070
1C01DC0070
1C01C60070
1C01C700E0
1C01C701C0
0E01C701C0
0E01C701C0
0E070781C0
0E070381C0
07070381C0
0387038380
0387038380
0387038380
038E00E380
038E00EE00
038E00EE00
01CE00EE00
01F800EE00
01F800EE00
01F8007E00
0078007C00
0078007C00
0078007C00
ENDCHAR
STARTCHAR $1E83
ENCODING 7811
SWIDTH 814 0
DWIDTH 33 0
BBX 33 31 0 1
BITMAP
0000040000
00003C0000
00003C0000
0001F80000
0003C00000
0007C00000
0000000000
0000000000
0000000000
E000000380
7000000380
7000000380
7001C00E00
7C01E00E00
3C01E00E00
1C07E00E00
1C07E01C00
1C07E01C00
0E07381C00
0E06387000
0E06387000
0E0E387000
038E1C7000
038E1C7000
03881CE000
03F81CE000
03F80CC000
01F8048000
01F0078000
00F0078000
0070078000
ENDCHAR
STARTCHAR $1E84
ENCODING 7812
SWIDTH 962 0
DWIDTH 39 0
BBX 37 37 0 1
BITMAP
0001C70000
0001C70000
0001C70000
0001C70000
0000000000
0000000000
0000000000
E000300038
E000380038
7000380038
70007C0038
7000FC0038
7000FC0038
1C00FC0070
1C00FC0070
1C01DC0070
1C01C60070
1C01C700E0
1C01C701C0
0E01C701C0
0E01C701C0
0E070781C0
0E070381C0
07070381C0
0387038380
0387038380
0387038380
038E00E380
038E00EE00
038E00EE00
01CE00EE00
01F800EE00
01F800EE00
01F8007E00
0078007C00
0078007C00
0078007C00
ENDCHAR
STARTCHAR $1E85
ENCODING 7813
SWIDTH 814 0
DWIDTH 33 0
BBX 33 30 0 0
BITMAP
000E380000
000E380000
000E380000
000E380000
0000000000
0000000000
0000000000
E000000300
E000000380
7000000380
7001800E00
7801C00E00
7C01E00E00
1C03E00E00
1C07E00E00
1C07E01C00
0E07B81C00
0E07381800
0E06387000
0E0E387000
070E387000
038E1C7000
03881CE000
03881CE000
03F81CE000
01F8048000
01F8058000
01F0078000
0070078000
0070078000
ENDCHAR
STARTCHAR $1E92
ENCODING 7826
SWIDTH 481 0
DWIDTH 20 0
BBX 19 37 0 -6
BITMAP
7FFFC0
7FFFC0
3FFFC0
0001C0
000380
000700
000700
000E00
000E00
003E00
003C00
003800
007800
007000
007000
01C000
03C000
03C000
038000
078000
0F8000
0E0000
1C0000
1C0000
7C0000
780000
780000
FFFFE0
FFFFE0
FFFFE0
000000
000000
000000
007000
007000
007000
007000
ENDCHAR
STARTCHAR $1E93
ENCODING 7827
SWIDTH 407 0
DWIDTH 17 0
BBX 16 30 0 -7
BITMAP
7FFF
7FFF
3FFF
000E
001C
0038
0078
0070
0070
01C0
03C0
03C0
0380
0700
0E00
1E00
3C00
7C00
7000
FFFF
FFFF
FFFF
0000
0000
0000
00C0
01C0
01C0
01C0
00C0
ENDCHAR
STARTCHAR $1E97
ENCODING 7831
SWIDTH 333 0
DWIDTH 14 0
BBX 13 37 0 1
BITMAP
7DC0
7DC0
7DC0
7DC0
0000
0000
0000
0780
0F80
0F80
0F80
0F80
0F80
0F80
0F80
FFF8
FFF8
FFF8
0F80
0F80
0F80
0F80
0F80
0F80
0F80
0F80
0F80
0F80
0F80
0F80
0F80
0F80
0F80
0F80
0F80
0F80
0F80
ENDCHAR
STARTCHAR $1EA0
ENCODING 7840
SWIDTH 740 0
DWIDTH 30 0
BBX 27 37 1 -6
BITMAP
000E0000
001F0000
003F0000
003F0000
00738000
0071C000
0071C000
00F1C000
01F1C000
01C0E000
01C0E000
01C0E000
03803800
03803800
03803800
0E003C00
0FFFFC00
0FFFFC00
1FFFFC00
1C000700
1C000700
1C000700
38000380
70000380
70000380
E00003E0
E00003E0
E00000E0
E00000E0
E00000C0
00000000
00000000
00000000
000E0000
000E0000
000E0000
000E0000
ENDCHAR
STARTCHAR $1EA1
ENCODING 7841
SWIDTH 666 0
DWIDTH 27 0
BBX 24 28 1 -5
BITMAP
01FF07
07FFE7
0FFFE7
1E00FF
3C007F
7C003F
70001F
F0001F
F0001F
E00007
E00007
E00007
E00007
F0000F
F0001F
70001F
7C003F
3C003F
1E00E7
0FFFC7
07FFC7
01FF07
000000
000000
003800
003800
003800
003800
ENDCHAR
STARTCHAR $1EA2
ENCODING 7842
SWIDTH 740 0
DWIDTH 30 0
BBX 27 39 1 0
BITMAP
003F0000
00738000
0071C000
0001C000
00038000
00070000
000E0000
00000000
00000000
000E0000
001F0000
003F0000
003F0000
0071C000
0071C000
0071C000
00F1C000
01F1C000
01C0E000
01C0E000
01C0E000
03803800
03803800
03803800
0E003C00
0FFFFC00
0FFFFC00
1FFFFC00
1C000700
1C000700
1C000700
38000380
70000380
70000380
E00003E0
E00001E0
E00000E0
E00000E0
C00000C0
ENDCHAR
STARTCHAR $1EA3
ENCODING 7843
SWIDTH 666 0
DWIDTH 27 0
BBX 24 31 1 1
BITMAP
007E00
00E700
01C700
000700
000E00
000E00
003800
000000
000000
01FF07
07FFE7
0FFFE7
1E00FF
3C003F
7C003F
70001F
F0001F
F0001F
E00007
E00007
E00007
E00007
F0001F
F0001F
70001F
7C003F
3C003F
1E00E7
0FFFC7
07FF87
01FF07
ENDCHAR
STARTCHAR $1EA4
ENCODING 7844
SWIDTH 740 0
DWIDTH 30 0
BBX 27 44 1 1
BITMAP
0000C000
0001E000
0001E000
000FC000
001E0000
003E0000
00000000
000C0000
000E0000
003F0000
00718000
0071C000
03C0F800
00000000
00000000
000E0000
001F0000
003F0000
003F0000
0071C000
0071C000
0071C000
00F1C000
01F1C000
01C0E000
01C0E000
01C07000
03803800
03803800
03803800
0E003C00
0FFFFC00
0FFFFC00
1FFFFC00
1C000700
1C000700
1C000700
30000380
70000380
70000380
E00003E0
E00001E0
E00000E0
E00000E0
ENDCHAR
STARTCHAR $1EA5
ENCODING 7845
SWIDTH 666 0
DWIDTH 27 0
BBX 24 36 1 1
BITMAP
0007C0
000F80
000F00
007800
007000
007000
000000
007C00
007E00
01C700
038180
0381C0
000000
00FF06
01FF07
0FFFE7
1F00FF
1E00FF
7C003F
78001F
70001F
F0001F
E00007
E00007
E00007
E00007
E0000F
F0001F
70001F
78001F
7C003F
1E00E7
1F00E7
0FFFC7
01FF07
00FF06
ENDCHAR
STARTCHAR $1EA6
ENCODING 7846
SWIDTH 740 0
DWIDTH 30 0
BBX 27 44 1 1
BITMAP
00400000
00E00000
01F00000
007E0000
001F0000
000F0000
00000000
000C0000
000E0000
003F0000
00718000
0071C000
03C0F800
00000000
00000000
000E0000
001F0000
003F0000
003F0000
0071C000
0071C000
0071C000
00F1C000
01F1C000
01C0E000
01C0E000
01C07000
03803800
03803800
03803800
0E003C00
0FFFFC00
0FFFFC00
1FFFFC00
1C000700
1C000700
1C000700
30000380
70000380
70000380
E00003E0
E00001E0
E00000E0
E00000E0
ENDCHAR
STARTCHAR $1EA7
ENCODING 7847
SWIDTH 666 0
DWIDTH 27 0
BBX 24 36 1 1
BITMAP
03C000
01E000
01F000
007E00
001C00
000800
000000
007C00
007E00
01C700
038180
0381C0
000000
00FF06
01FF07
0FFFE7
1F00FF
1E00FF
7C003F
78001F
70001F
F0001F
E00007
E00007
E00007
E00007
E0000F
F0001F
70001F
78001F
7C003F
1E00E7
1F00E7
0FFFC7
01FF07
00FF06
ENDCHAR
STARTCHAR $1EA8
ENCODING 7848
SWIDTH 740 0
DWIDTH 30 0
BBX 27 46 1 0
BITMAP
0007E000
0007F000
00073800
000E3800
00007000
0000E000
0000C000
00000000
00000000
000E0000
001F0000
003F0000
0071C000
03E0F000
03C0F800
00000000
000E0000
000E0000
003F0000
003F0000
003F0000
0071C000
0071C000
0071C000
01F1C000
01C0E000
01C0E000
01C0E000
03803800
03803800
03803800
06003C00
0F007C00
0FFFFC00
1FFFFC00
1FFFFE00
1C000700
1C000700
38000700
70000380
70000380
E00003C0
E00003E0
E00000E0
E00000E0
E00000E0
ENDCHAR
STARTCHAR $1EA9
ENCODING 7849
SWIDTH 666 0
DWIDTH 27 0
BBX 24 37 1 1
BITMAP
000FC0
001CE0
0038E0
0000E0
0001C0
0001C0
000700
000000
000000
007E00
00EF00
01CF00
0381C0
000000
000000
01FF07
07FFE7
0FFFE7
1E00FF
3C003F
7C003F
70001F
F0001F
F0001F
E00007
E00007
E00007
E00007
F0001F
F0001F
70001F
7C003F
3C007F
1E00E7
0FFFC7
07FF87
01FF07
ENDCHAR
STARTCHAR $1EAA
ENCODING 7850
SWIDTH 740 0
DWIDTH 30 0
BBX 27 43 1 0
BITMAP
00300000
00F80000
01F8C000
01C7E000
00038000
00010000
000E0000
001F0000
003F0000
0071C000
03E0F000
03C0F800
00000000
000E0000
000E0000
003F0000
003F0000
003F0000
0071C000
0071C000
0071C000
01F1C000
01E0E000
01C0E000
01C0E000
03803800
03803800
03803800
06003C00
0F007C00
0FFFFC00
1FFFFC00
1FFFFE00
1C000700
1C000700
1C000700
70000380
70000380
700003C0
E00003E0
E00000E0
E00000E0
E00000E0
ENDCHAR
STARTCHAR $1EAB
ENCODING 7851
SWIDTH 666 0
DWIDTH 27 0
BBX 24 34 1 1
BITMAP
01F100
03FF80
03FFC0
000600
000000
000000
007E00
00E700
01C700
0381C0
000000
000000
01FF07
07FFE7
0FFFE7
1E00FF
3C003F
7C003F
70001F
F0001F
F0001F
E00007
E00007
E00007
E00007
F0001F
F0001F
70001F
7C003F
3C007F
1E00E7
0FFFC7
07FF87
01FF07
ENDCHAR
STARTCHAR $1EAC
ENCODING 7852
SWIDTH 740 0
DWIDTH 30 0
BBX 27 44 1 -6
BITMAP
000E0000
001F0000
003F0000
0071C000
03E0F000
03C0F800
00000000
000C0000
000E0000
003F0000
003F0000
003F0000
0071C000
0071C000
0071C000
01F1C000
01E0E000
01C0E000
01C0E000
03803800
03803800
03803800
07003C00
0F003C00
0FFFFC00
1FFFFC00
1FFFFC00
1C000700
1C000700
1C000700
70000380
70000380
700003C0
E00003E0
E00000E0
E00000E0
E00000E0
00000000
00000000
00000000
000E0000
000E0000
000E0000
000E0000
ENDCHAR
STARTCHAR $1EAD
ENCODING 7853
SWIDTH 666 0
DWIDTH 27 0
BBX 24 36 1 -6
BITMAP
003800
007C00
007E00
01C700
078380
0F81C0
000000
00FF06
01FF07
0FFFE7
1F00FF
1E00FF
7C003F
78001F
70001F
F0001F
E00007
E00007
E00007
E00007
E00007
F0001F
70001F
78001F
7C003F
1E00E7
1F00E7
0FFFC7
01FF07
00FF06
000000
003800
003800
003800
003800
001800
ENDCHAR
STARTCHAR $1EAE
ENCODING 7854
SWIDTH 740 0
DWIDTH 30 0
BBX 27 44 1 1
BITMAP
00002000
0001E000
0001E000
000FC000
000E0000
000E0000
00000000
00C06000
01C0E000
01C0E000
007FC000
007FC000
000E0000
00000000
00000000
000E0000
001F0000
003F0000
003F0000
0071C000
0071C000
0071C000
00F1C000
01F1C000
01C0E000
01C0E000
01C07000
03803800
03803800
03803800
0E003C00
0FFFFC00
0FFFFC00
1FFFFC00
1C000700
1C000700
1C000700
30000380
70000380
70000380
E00003E0
E00001E0
E00000E0
E00000E0
ENDCHAR
STARTCHAR $1EAF
ENCODING 7855
SWIDTH 666 0
DWIDTH 27 0
BBX 24 37 1 1
BITMAP
0000C0
0001C0
0001C0
000FC0
007E00
007E00
003000
000000
000000
0381C0
03FF80
03FF00
007E00
000000
000000
01FF07
07FFE7
0FFFE7
1E00FF
3C003F
7C003F
70001F
F0001F
F0001F
E00007
E00007
E00007
E00007
F0001F
F0001F
70001F
7C003F
3C007F
1E00E7
0FFFC7
07FF87
01FF07
ENDCHAR
STARTCHAR $1EB0
ENCODING 7856
SWIDTH 740 0
DWIDTH 30 0
BBX 27 44 1 1
BITMAP
01800000
01E00000
01F00000
007E0000
001E0000
000E0000
00000000
00C06000
01C0E000
01C0E000
007FC000
007FC000
000E0000
00000000
00000000
000E0000
001F0000
003F0000
003F0000
0071C000
0071C000
0071C000
00F1C000
01F1C000
01C0E000
01C0E000
01C07000
03803800
03803800
03803800
0E003C00
0FFFFC00
0FFFFC00
1FFFFC00
1C000700
1C000700
1C000700
30000380
70000380
70000380
E00003E0
E00001E0
E00000E0
E00000E0
ENDCHAR
STARTCHAR $1EB1
ENCODING 7857
SWIDTH 666 0
DWIDTH 27 0
BBX 24 36 1 1
BITMAP
038000
03E000
03F000
007800
001800
000800
000000
038180
0381C0
03FF00
007E00
007E00
000000
00FF06
01FF07
0FFFE7
1F00FF
1E00FF
7C003F
78001F
70001F
F0001F
E00007
E00007
E00007
E00007
E0000F
F0001F
70001F
78001F
7C003F
1E00E7
1F00E7
0FFFC7
01FF07
00FF06
ENDCHAR
STARTCHAR $1EB2
ENCODING 7858
SWIDTH 740 0
DWIDTH 30 0
BBX 27 44 1 1
BITMAP
003F0000
003F8000
0039C000
0071C000
00038000
00070000
00060000
00CE6000
01CEE000
01C0E000
007FC000
007FC000
000E0000
00000000
00000000
000E0000
001F0000
003F0000
003F0000
0071C000
0071C000
0071C000
00F1C000
01F1C000
01C0E000
01C0E000
01C07000
03803800
03803800
03803800
0E003C00
0FFFFC00
0FFFFC00
1FFFFC00
1C000700
1C000700
1C000700
30000380
70000380
70000380
E00003E0
E00001E0
E00000E0
E00000E0
ENDCHAR
STARTCHAR $1EB3
ENCODING 7859
SWIDTH 666 0
DWIDTH 27 0
BBX 24 36 1 0
BITMAP
007E00
00E700
01C700
000700
000E00
000E00
003800
038180
0381C0
03FF00
007E00
007E00
000000
00FF06
01FF07
0FFFE7
1F00FF
1E00FF
7C003F
78001F
70001F
F0001F
E00007
E00007
E00007
E00007
E0000F
F0001F
70001F
78001F
7C003F
1E00E7
1F00E7
0FFFC7
01FF07
00FF06
ENDCHAR
STARTCHAR $1EB4
ENCODING 7860
SWIDTH 740 0
DWIDTH 30 0
BBX 27 43 1 0
BITMAP
00300000
00FFE000
01FFE000
0187C000
00000000
00000000
01C0E000
01C0E000
01C0E000
007FC000
000E0000
000E0000
00000000
000E0000
000E0000
003F0000
003F0000
003F0000
0071C000
0071C000
0071C000
01F1C000
01E0E000
01C0E000
01C0E000
03803800
03803800
03803800
06003C00
0F007C00
0FFFFC00
1FFFFC00
1FFFFE00
1C000700
1C000700
1C000700
70000380
70000380
700003C0
E00003E0
E00000E0
E00000E0
E00000E0
ENDCHAR
STARTCHAR $1EB5
ENCODING 7861
SWIDTH 666 0
DWIDTH 27 0
BBX 24 36 1 0
BITMAP
01C000
03E100
03F100
023FC0
000600
000600
000000
038180
0381C0
03FF00
007E00
007E00
000000
00FF06
01FF07
0FFFE7
1F00FF
1E00FF
7C003F
78001F
70001F
F0001F
E00007
E00007
E00007
E00007
E0000F
F0001F
70001F
78001F
7C003F
1E00E7
1F00E7
0FFFC7
01FF07
00FF06
ENDCHAR
STARTCHAR $1EB6
ENCODING 7862
SWIDTH 740 0
DWIDTH 30 0
BBX 27 44 1 -6
BITMAP
01C0E000
01C0E000
01C0E000
007FC000
001E0000
000E0000
00000000
000C0000
000E0000
003F0000
003F0000
003F0000
0071C000
0071C000
0071C000
01F1C000
01E0E000
01C0E000
01C0E000
03803800
03803800
03803800
07003C00
0F003C00
0FFFFC00
1FFFFC00
1FFFFC00
1C000700
1C000700
1C000700
70000380
70000380
700003C0
E00003E0
E00000E0
E00000E0
E00000E0
00000000
00000000
00000000
000E0000
000E0000
000E0000
000E0000
ENDCHAR
STARTCHAR $1EB7
ENCODING 7863
SWIDTH 666 0
DWIDTH 27 0
BBX 24 36 1 -6
BITMAP
0381C0
0381C0
0381C0
01FF00
003C00
003800
000000
00FF06
01FF07
0FFFE7
1F00FF
1E00FF
7C003F
78001F
70001F
F0001F
E00007
E00007
E00007
E00007
E00007
F0001F
70001F
78001F
7C003F
1E00E7
1F00E7
0FFFC7
01FF07
00FF06
000000
003800
003800
003800
003800
001800
ENDCHAR
STARTCHAR $1EB8
ENCODING 7864
SWIDTH 518 0
DWIDTH 21 0
BBX 16 37 3 -6
BITMAP
FFFF
FFFF
FFFF
E000
E000
E000
E000
E000
E000
E000
E000
E000
E000
FFFF
FFFF
FFFF
E000
E000
E000
E000
E000
E000
E000
E000
E000
E000
E000
FFFF
FFFF
FFFF
0000
0000
0000
0380
0380
0380
0380
ENDCHAR
STARTCHAR $1EB9
ENCODING 7865
SWIDTH 666 0
DWIDTH 27 0
BBX 22 28 1 -5
BITMAP
01FF00
07FFE0
0FFFE0
1E00F8
3C0078
7C0038
70001C
E0001C
E0001C
FFFFFC
FFFFFC
FFFFFC
E00000
E00000
E00000
70001C
7C0038
3C0038
1E00E0
0FFFC0
07FFC0
01FE00
000000
000000
003800
003800
003800
003800
ENDCHAR
STARTCHAR $1EBA
ENCODING 7866
SWIDTH 518 0
DWIDTH 21 0
BBX 16 39 3 0
BITMAP
0FF0
0C30
0C30
0070
00E0
01C0
0180
0000
0000
FFFF
FFFF
FFFF
E000
E000
E000
E000
E000
E000
E000
E000
E000
E000
FFFF
FFFF
FFFF
E000
E000
E000
E000
E000
E000
E000
E000
E000
E000
E000
FFFF
FFFF
FFFF
ENDCHAR
STARTCHAR $1EBB
ENCODING 7867
SWIDTH 666 0
DWIDTH 27 0
BBX 22 31 1 1
BITMAP
007E00
00E600
01C600
000600
000E00
000E00
003800
000000
000000
01FF00
07FFE0
0FFFE0
1E00F8
3C0038
7C0038
70001C
E0001C
E0001C
FFFFFC
FFFFFC
FFFFFC
E00000
E00000
E00000
70001C
7C0038
3C0030
1E00E0
0FFFC0
07FF80
01FE00
ENDCHAR
STARTCHAR $1EBC
ENCODING 7868
SWIDTH 518 0
DWIDTH 21 0
BBX 16 37 3 1
BITMAP
0C00
1F08
1F88
11F8
0030
0030
0000
FFFF
FFFF
FFFF
E000
E000
E000
E000
E000
E000
E000
E000
E000
E000
E000
FFFF
FFFF
FFFF
E000
E000
E000
E000
E000
E000
E000
E000
E000
E000
FFFF
FFFF
FFFF
ENDCHAR
STARTCHAR $1EBD
ENCODING 7869
SWIDTH 666 0
DWIDTH 27 0
BBX 22 30 1 0
BITMAP
01C000
03E100
03F100
023FC0
000600
000600
000000
00FF00
01FF00
0FFFE0
1F00F0
1E00F8
7C0038
78001C
70001C
E0001C
FFFFFC
FFFFFC
FFFFFC
E00000
E00000
E00000
70001C
78001C
7C0038
1E00E0
1F00E0
0FFFC0
01FE00
00FE00
ENDCHAR
STARTCHAR $1EBE
ENCODING 7870
SWIDTH 518 0
DWIDTH 21 0
BBX 16 44 3 1
BITMAP
0008
007C
007E
01F0
0380
0380
0200
03C0
03C0
0FF0
1F38
1E38
700E
0000
0000
FFFF
FFFF
FFFF
E000
E000
E000
E000
E000
E000
E000
E000
E000
E000
FFFF
FFFF
FFFF
E000
E000
E000
E000
E000
E000
E000
E000
E000
E000
FFFF
FFFF
FFFF
ENDCHAR
STARTCHAR $1EBF
ENCODING 7871
SWIDTH 666 0
DWIDTH 27 0
BBX 22 36 1 1
BITMAP
0007C0
001F80
003F00
007800
007000
007000
000000
007C00
007E00
01CF00
038180
0381C0
000000
00FF00
01FF00
0FFFE0
1F00F8
1E00F8
7C0038
78001C
70001C
E0001C
FFFFFC
FFFFFC
FFFFFC
E00000
E00000
E00000
70001C
78001C
7C0038
1E00E0
1F00E0
0FFFC0
01FE00
00FC00
ENDCHAR
STARTCHAR $1EC0
ENCODING 7872
SWIDTH 518 0
DWIDTH 21 0
BBX 16 44 3 1
BITMAP
1000
3E00
3E00
0F80
01C0
01C0
0040
03C0
03C0
0FF0
1F38
1E38
700E
0000
0000
FFFF
FFFF
FFFF
E000
E000
E000
E000
E000
E000
E000
E000
E000
E000
FFFF
FFFF
FFFF
E000
E000
E000
E000
E000
E000
E000
E000
E000
E000
FFFF
FFFF
FFFF
ENDCHAR
STARTCHAR $1EC1
ENCODING 7873
SWIDTH 666 0
DWIDTH 27 0
BBX 22 36 1 1
BITMAP
03C000
01E000
01F000
007E00
001C00
000800
000000
007C00
007E00
01CF00
038180
0381C0
000000
00FF00
01FF00
0FFFE0
1F00F8
1E00F8
7C0038
78001C
70001C
E0001C
FFFFFC
FFFFFC
FFFFFC
E00000
E00000
E00000
70001C
78001C
7C0038
1E00E0
1F00E0
0FFFC0
01FE00
00FC00
ENDCHAR
STARTCHAR $1EC2
ENCODING 7874
SWIDTH 518 0
DWIDTH 21 0
BBX 16 46 3 0
BITMAP
0078
00FC
01CE
0186
000E
000E
0038
0000
0000
03C0
07F0
0FF0
1E38
380E
300E
0000
FFFF
FFFF
FFFF
E000
E000
E000
E000
E000
E000
E000
E000
E000
E000
E000
FFFF
FFFF
FFFF
E000
E000
E000
E000
E000
E000
E000
E000
E000
E000
FFFF
FFFF
FFFF
ENDCHAR
STARTCHAR $1EC3
ENCODING 7875
SWIDTH 666 0
DWIDTH 27 0
BBX 22 37 1 1
BITMAP
000FC0
001CE0
0038E0
0001C0
000180
000100
000700
000000
000000
007E00
00EF00
01CF00
0387C0
000000
000000
01FF00
07FFE0
0FFFE0
1E00F8
3C0038
7C0038
70001C
E0001C
E0001C
FFFFFC
FFFFFC
FFFFFC
E00000
E00000
E00000
70001C
7C0038
3C0070
1E00E0
0FFFC0
07FF80
01FE00
ENDCHAR
STARTCHAR $1EC4
ENCODING 7876
SWIDTH 518 0
DWIDTH 21 0
BBX 16 43 3 0
BITMAP
0C00
1F08
1F88
11F8
0030
0030
03C0
07F0
0FF0
1E38
380E
300E
0000
FFFF
FFFF
FFFF
E000
E000
E000
E000
E000
E000
E000
E000
E000
E000
E000
FFFF
FFFF
FFFF
E000
E000
E000
E000
E000
E000
E000
E000
E000
E000
FFFF
FFFF
FFFF
ENDCHAR
STARTCHAR $1EC5
ENCODING 7877
SWIDTH 666 0
DWIDTH 27 0
BBX 22 34 1 1
BITMAP
01F100
03FF80
03FFC0
000600
000000
000000
007E00
00EF00
01CF00
0381C0
000000
000000
01FF00
07FFE0
0FFFE0
1E00F8
3C0038
7C0038
70001C
E0001C
E0001C
FFFFFC
FFFFFC
FFFFFC
E00000
E00000
E00000
70001C
7C0038
3C0070
1E00E0
0FFFC0
07FF80
01FE00
ENDCHAR
STARTCHAR $1EC6
ENCODING 7878
SWIDTH 518 0
DWIDTH 21 0
BBX 16 44 3 -6
BITMAP
03C0
07E0
0FF0
1E38
381C
300E
0000
FFFF
FFFF
FFFF
E000
E000
E000
E000
E000
E000
E000
E000
E000
E000
E000
FFFF
FFFF
FFFF
E000
E000
E000
E000
E000
E000
E000
E000
E000
E000
FFFF
FFFF
FFFF
0000
0000
0000
0380
0380
0380
0380
ENDCHAR
STARTCHAR $1EC7
ENCODING 7879
SWIDTH 666 0
DWIDTH 27 0
BBX 22 36 1 -6
BITMAP
003800
007C00
007E00
03C700
078380
0F81C0
000000
00FF00
01FF00
0FFFE0
1F00F0
1E00F8
7C0038
78001C
70001C
E0001C
FFFFFC
FFFFFC
FFFFFC
E00000
E00000
E00000
70001C
78001C
7C0038
1E00E0
1F00E0
0FFFC0
01FE00
00FE00
000000
003800
003800
003800
003800
001800
ENDCHAR
STARTCHAR $1EC8
ENCODING 7880
SWIDTH 222 0
DWIDTH 9 0
BBX 9 39 0 0
BITMAP
7E00
E700
E380
0380
0700
0E00
1C00
0000
0000
1C00
1C00
1C00
1C00
1C00
1C00
1C00
1C00
1C00
1C00
1C00
1C00
1C00
1C00
1C00
1C00
1C00
1C00
1C00
1C00
1C00
1C00
1C00
1C00
1C00
1C00
1C00
1C00
1C00
1800
ENDCHAR
STARTCHAR $1EC9
ENCODING 7881
SWIDTH 185 0
DWIDTH 8 0
BBX 7 31 0 1
BITMAP
7E
E6
E2
0E
1C
1C
1C
00
00
1C
1C
1C
1C
1C
1C
1C
1C
1C
1C
1C
1C
1C
1C
1C
1C
1C
1C
1C
1C
1C
1C
ENDCHAR
STARTCHAR $1ECA
ENCODING 7882
SWIDTH 222 0
DWIDTH 9 0
BBX 3 37 3 -6
BITMAP
E0
E0
E0
E0
E0
E0
E0
E0
E0
E0
E0
E0
E0
E0
E0
E0
E0
E0
E0
E0
E0
E0
E0
E0
E0
E0
E0
E0
E0
E0
00
00
00
E0
E0
E0
E0
ENDCHAR
STARTCHAR $1ECB
ENCODING 7883
SWIDTH 185 0
DWIDTH 8 0
BBX 3 37 3 -6
BITMAP
E0
E0
E0
E0
00
00
00
E0
E0
E0
E0
E0
E0
E0
E0
E0
E0
E0
E0
E0
E0
E0
E0
E0
E0
E0
E0
E0
E0
E0
00
00
00
E0
E0
E0
E0
ENDCHAR
STARTCHAR $1ECC
ENCODING 7884
SWIDTH 851 0
DWIDTH 35 0
BBX 31 36 1 -6
BITMAP
000FF800
00FFFE00
01FFFF00
03C007E0
078001F0
0F8000F0
1C00007C
3C00003C
7C00001C
7000001E
7000000E
7000000E
E000000E
E000000E
E000000E
E000000E
E000000E
E000000E
7000000E
7000001E
7800001E
7C00001C
1E00007C
1F000078
0F8000F0
03C007E0
03E00FC0
01FFFF00
003FF800
001FF000
00000000
0001C000
0001C000
0001C000
0001C000
00018000
ENDCHAR
STARTCHAR $1ECD
ENCODING 7885
SWIDTH 666 0
DWIDTH 27 0
BBX 24 28 1 -5
BITMAP
01FF00
07FFE0
0FFFE0
1E00F8
3C007C
7C003C
70001C
F0001C
F0001C
E0001F
E0000F
E00007
E0001C
F0001C
F0001C
70001C
7C0038
3C0038
1E00F8
0FFFE0
07FFE0
01FF00
000000
000000
003800
003800
003800
003800
ENDCHAR
STARTCHAR $1ECE
ENCODING 7886
SWIDTH 851 0
DWIDTH 35 0
BBX 31 39 1 0
BITMAP
0007E000
000E6000
000E2000
00002000
00006000
0000E000
0001C000
00000000
00000000
000FF800
00FFFE00
01FFFF00
03C007E0
078001F0
0F8000F0
1C00007C
3C00003C
7C00001C
7000001E
7000000E
7000000E
E000000E
E000000E
E000000E
E000000E
E000000E
E000000E
7000000E
7000001E
7800001E
7C00001C
1E00007C
1F000078
0F8000F0
03C007E0
03E00FC0
01FFFF00
003FF800
001FF000
ENDCHAR
STARTCHAR $1ECF
ENCODING 7887
SWIDTH 666 0
DWIDTH 27 0
BBX 24 31 1 1
BITMAP
007E00
00E700
01C700
000600
000E00
000E00
003800
000000
000000
01FF00
07FFE0
0FFFE0
1E00F8
3C003C
7C003C
70001C
F0001C
F0001C
E0001F
E00007
E00007
E0001C
F0001C
F0001C
70001C
7C0038
3C0038
1E00F8
0FFFE0
07FFE0
01FF00
ENDCHAR
STARTCHAR $1ED0
ENCODING 7888
SWIDTH 851 0
DWIDTH 35 0
BBX 31 43 1 1
BITMAP
00003C00
0001F800
0001F800
0007C000
00078000
00070000
00000000
0003E000
0007E000
000EF800
001C7C00
00383C00
00000000
000FF000
000FF800
01FFFF00
03E007C0
03C007E0
0F8000F0
1C000078
1C00007C
7C00001C
7800001E
7000001E
7000000E
E000000E
E000000E
E000000E
E000000E
E000000E
E000000E
7000000E
7000000E
7000001E
7C00001C
3C00003C
1E00007C
0F8000F0
078001F0
03C007E0
01FFFF00
003FF800
003FF800
ENDCHAR
STARTCHAR $1ED1
ENCODING 7889
SWIDTH 666 0
DWIDTH 27 0
BBX 24 36 1 1
BITMAP
0007C0
001F80
003F00
007800
007000
007000
000000
007C00
007E00
01C700
038180
0381C0
000000
00FF00
01FF00
0FFFE0
1F00F8
1E00F8
7C003C
78001C
70001C
F0001C
E0001F
E0001F
E00007
E0001C
E0001C
F0001C
70001C
78001C
7C0038
1E00F8
1F00F0
0FFFE0
01FF00
00FF00
ENDCHAR
STARTCHAR $1ED2
ENCODING 7890
SWIDTH 851 0
DWIDTH 35 0
BBX 31 44 1 1
BITMAP
00300000
00380000
00380000
003F0000
0007E000
0007E000
0000C000
00000000
00000000
0007E000
000EF000
000EF800
00383C00
00000000
00000000
000FF800
00FFFE00
01FFFF00
03C007E0
078000F0
0F8000F0
1C00007C
3C00001C
7C00001C
7000001E
7000000E
7000000E
E000000E
E000000E
E000000E
E000000E
E000000E
E000000E
7000000E
7000001E
7800001E
7C00001C
1E00007C
1F000078
0F8000F0
03C007E0
01FFFF00
01FFFF00
003FF800
ENDCHAR
STARTCHAR $1ED3
ENCODING 7891
SWIDTH 666 0
DWIDTH 27 0
BBX 24 36 1 1
BITMAP
03C000
01E000
01F000
007E00
001C00
000800
000000
007C00
007E00
01C700
038180
0381C0
000000
00FF00
01FF00
0FFFE0
1F00F8
1E00F8
7C003C
78001C
70001C
F0001C
E0001F
E0001F
E00007
E0001C
E0001C
F0001C
70001C
78001C
7C0038
1E00F8
1F00F0
0FFFE0
01FF00
00FF00
ENDCHAR
STARTCHAR $1ED4
ENCODING 7892
SWIDTH 851 0
DWIDTH 35 0
BBX 31 44 1 1
BITMAP
0000FC00
0001CC00
0001C400
00001C00
00003800
00003800
00003800
00000000
00000000
0007E000
000EF000
000EF800
00383C00
00000000
00000000
000FF800
00FFFE00
01FFFF00
03C007E0
078000F0
0F8000F0
1C00007C
3C00001C
7C00001C
7000001E
7000000E
7000000E
E000000E
E000000E
E000000E
E000000E
E000000E
E000000E
7000000E
7000001E
7800001E
7C00001C
1E00007C
1F000078
0F8000F0
03C007E0
01FFFF00
01FFFF00
003FF800
ENDCHAR
STARTCHAR $1ED5
ENCODING 7893
SWIDTH 666 0
DWIDTH 27 0
BBX 24 37 1 1
BITMAP
000FC0
001CE0
0038E0
0000E0
0001C0
0001C0
000700
000000
000000
007E00
00EF00
01CF00
0381C0
000000
000000
01FF00
07FFE0
0FFFE0
1E00F8
3C003C
7C003C
70001C
F0001C
F0001C
E0001F
E00007
E0000E
E0001C
F0001C
F0001C
70001C
7C0038
3C0078
1E00F8
0FFFE0
07FFE0
01FF00
ENDCHAR
STARTCHAR $1ED6
ENCODING 7894
SWIDTH 851 0
DWIDTH 35 0
BBX 31 41 1 1
BITMAP
000F1800
001FFC00
003FFC00
00002000
00000000
00000000
0007E000
000EF000
000EF800
00383C00
00000000
00000000
000FF800
00FFFE00
01FFFF00
03C007E0
078001F0
0F8000F0
1C00007C
3C00003C
7C00001C
7000001E
7000000E
7000000E
E000000E
E000000E
E000000E
E000000E
E000000E
E000000E
7000000E
7000001E
7800001E
7C00001C
1E00007C
1F000078
0F8000F0
03C007E0
03E00FC0
01FFFF00
003FF800
ENDCHAR
STARTCHAR $1ED7
ENCODING 7895
SWIDTH 666 0
DWIDTH 27 0
BBX 24 34 1 1
BITMAP
01F100
03FF80
03FFC0
000600
000000
000000
007E00
00EF00
01CF00
0381C0
000000
000000
01FF00
07FFE0
0FFFE0
1E00F8
3C003C
7C003C
70001C
F0001C
F0001C
E0001F
E00007
E00006
E0001C
F0001C
F0001C
70001C
7C0038
3C0078
1E00F8
0FFFE0
07FFE0
01FF00
ENDCHAR
STARTCHAR $1ED8
ENCODING 7896
SWIDTH 851 0
DWIDTH 35 0
BBX 31 41 1 -5
BITMAP
0007E000
000EF000
000EF800
00383C00
00000000
00000000
000FF800
00FFFE00
01FFFF00
03C007E0
078001F0
0F8000F0
1C00007C
3C00003C
7C00001C
7000001E
7000000E
7000000E
E000000E
E000000E
E000000E
E000000E
E000000E
E000000E
7000000E
7000001E
7800001E
7C00001C
1E00007C
1F000078
0F8000F0
03C007E0
03E00FC0
01FFFF00
003FF800
001FF000
00000000
0001C000
0001C000
0001C000
0001C000
ENDCHAR
STARTCHAR $1ED9
ENCODING 7897
SWIDTH 666 0
DWIDTH 27 0
BBX 24 36 1 -6
BITMAP
003800
007C00
007E00
01C700
078380
0F81C0
000000
00FF00
01FF00
0FFFE0
1F00F0
1E00F8
7C003C
78001C
70001C
F0001C
E0001E
E0001F
E00007
E0001C
E0001C
F0001C
70001C
78001C
7C0038
1E00F8
1F00F0
0FFFE0
01FF00
00FF00
000000
003800
003800
003800
003800
001800
ENDCHAR
STARTCHAR $1EDA
ENCODING 7898
SWIDTH 851 0
DWIDTH 35 0
BBX 31 37 1 1
BITMAP
00001800
00007800
0000F800
0007E000
00078000
00070000
00000000
000FF00E
000FF80E
01FFFF0E
03E00FCE
03C007EE
0F8000FC
1C00007C
1C00007C
7C00001C
7800001E
7000001E
7000000E
E000000E
E000000E
E000000E
E000000E
E000000E
E000000E
7000000E
7000000E
7000001E
7C00001C
3C000038
1E000070
0F8000F0
078001F0
03C007E0
01FFFF00
00FFFE00
003FF800
ENDCHAR
STARTCHAR $1EDB
ENCODING 7899
SWIDTH 666 0
DWIDTH 27 0
BBX 25 30 1 1
BITMAP
0007C000
000F8000
000F0000
00780000
00700000
00700000
00000000
00FF0180
01FF0380
0FFFE300
1F00FF00
1E00FF00
7C003C00
78001C00
70001C00
F0001C00
E0001E00
E0001F00
E0000700
E0001C00
E0001C00
F0001C00
70001C00
78001C00
7C003800
1E00F800
1F00F000
0FFFE000
01FF0000
00FF0000
ENDCHAR
STARTCHAR $1EDC
ENCODING 7900
SWIDTH 851 0
DWIDTH 35 0
BBX 31 37 1 1
BITMAP
00380000
003F0000
003F0000
0007C000
0003C000
0001C000
00000000
000FF00E
000FF80E
01FFFF0E
03E00FCE
03C007EE
0F8000FC
1C00007C
1C00007C
7C00001C
7800001E
7000001E
7000000E
E000000E
E000000E
E000000E
E000000E
E000000E
E000000E
7000000E
7000000E
7000001E
7C00001C
3C000038
1E000070
0F8000F0
078001F0
03C007E0
01FFFF00
00FFFE00
003FF800
ENDCHAR
STARTCHAR $1EDD
ENCODING 7901
SWIDTH 666 0
DWIDTH 27 0
BBX 25 30 1 1
BITMAP
03800000
01E00000
01F00000
007E0000
001C0000
00080000
00000000
00FF0180
01FF0380
0FFFE300
1F00FF00
1E00FF00
7C003C00
78001C00
70001C00
F0001C00
E0001E00
E0001F00
E0000700
E0001C00
E0001C00
F0001C00
70001C00
78001C00
7C003800
1E00F800
1F00F000
0FFFE000
01FF0000
00FF0000
ENDCHAR
STARTCHAR $1EDE
ENCODING 7902
SWIDTH 851 0
DWIDTH 35 0
BBX 31 39 1 0
BITMAP
0007E000
000E6000
000E2000
00002000
00006000
0000E000
0001C000
00000000
00000000
000FF80E
00FFFE0E
01FFFF0E
03C007EE
078001FC
0F8000FC
1C00007C
3C00003C
7C00001C
7000001E
7000000E
7000000E
E000000E
E000000E
E000000E
E000000E
E000000E
E000000E
7000000E
7000001E
7800001E
7C00001C
1E000070
1F000070
0F8000F0
03C007E0
03E00FC0
01FFFF00
003FF800
001FF000
ENDCHAR
STARTCHAR $1EDF
ENCODING 7903
SWIDTH 666 0
DWIDTH 27 0
BBX 25 31 1 1
BITMAP
007E0000
00E70000
01C70000
00060000
000E0000
000E0000
00380000
00000000
00000000
01FF0380
07FFE300
0FFFE300
1E00FF00
3C003C00
7C003C00
70001C00
F0001C00
F0001C00
E0001F00
E0000700
E0000700
E0001C00
F0001C00
F0001C00
70001C00
7C003800
3C003800
1E00F800
0FFFE000
07FFE000
01FF0000
ENDCHAR
STARTCHAR $1EE0
ENCODING 7904
SWIDTH 851 0
DWIDTH 35 0
BBX 31 36 1 0
BITMAP
000F1800
001FF800
003FF800
00002000
00000000
00000000
000FF80E
00FFFE0E
01FFFF0E
03C007EE
078001FC
0F8000FC
1C00007C
3C00003C
7C00001C
7000001E
7000000E
7000000E
E000000E
E000000E
E000000E
E000000E
E000000E
E000000E
7000000E
7000001E
7800001E
7C00001C
1E000070
1F000070
0F8000F0
03C007E0
03E00FC0
01FFFF00
003FF800
001FF000
ENDCHAR
STARTCHAR $1EE1
ENCODING 7905
SWIDTH 666 0
DWIDTH 27 0
BBX 25 30 1 0
BITMAP
00400000
03E10000
03F10000
020FC000
00060000
00060000
00000000
00FF0180
01FF0380
0FFFE300
1F00FF00
1E00FF00
7C003C00
78001C00
70001C00
F0001C00
E0001E00
E0001F00
E0000700
E0001C00
E0001C00
F0001C00
70001C00
78001C00
7C003800
1E00F800
1F00F000
0FFFE000
01FF0000
00FF0000
ENDCHAR
STARTCHAR $1EE2
ENCODING 7906
SWIDTH 851 0
DWIDTH 35 0
BBX 31 36 1 -6
BITMAP
000FF80E
00FFFE0E
01FFFF0E
03C007EE
078001FC
0F8000FC
1C00007C
3C00003C
7C00001C
7000001E
7000000E
7000000E
E000000E
E000000E
E000000E
E000000E
E000000E
E000000E
7000000E
7000001E
7800001E
7C00001C
1E000070
1F000070
0F8000F0
03C007E0
03E00FC0
01FFFF00
003FF800
001FF000
00000000
0001C000
0001C000
0001C000
0001C000
00018000
ENDCHAR
STARTCHAR $1EE3
ENCODING 7907
SWIDTH 666 0
DWIDTH 27 0
BBX 25 28 1 -5
BITMAP
01FF0380
07FFE300
0FFFE300
1E00FF00
3C007E00
7C003C00
70001C00
F0001C00
F0001C00
E0001F00
E0000F00
E0000700
E0001C00
F0001C00
F0001C00
70001C00
7C003800
3C003800
1E00F800
0FFFE000
07FFE000
01FF0000
00000000
00000000
00380000
00380000
00380000
00380000
ENDCHAR
STARTCHAR $1EE4
ENCODING 7908
SWIDTH 666 0
DWIDTH 27 0
BBX 21 36 3 -6
BITMAP
E00038
E00038
E00038
E00038
E00038
E00038
E00038
E00038
E00038
E00038
E00038
E00038
E00038
E00038
E00038
E00038
E00038
E00038
E00038
E00038
E00038
E000E0
F000E0
F000E0
7000E0
7C01C0
3C01C0
1FFF00
03FE00
03FE00
000000
007000
007000
007000
007000
006000
ENDCHAR
STARTCHAR $1EE5
ENCODING 7909
SWIDTH 592 0
DWIDTH 24 0
BBX 19 28 3 -5
BITMAP
E000E0
E000E0
E000E0
E000E0
E000E0
E000E0
E000E0
E000E0
E000E0
E000E0
E000E0
E000E0
E000E0
E000E0
E000E0
E001E0
F001E0
F801E0
7C07E0
1FFEE0
1FFEE0
0FF0E0
000000
000000
01C000
01C000
01C000
01C000
ENDCHAR
STARTCHAR $1EE6
ENCODING 7910
SWIDTH 666 0
DWIDTH 27 0
BBX 21 39 3 0
BITMAP
01F800
039C00
038E00
003800
003000
003000
007000
000000
000000
E00038
E00038
E00038
E00038
E00038
E00038
E00038
E00038
E00038
E00038
E00038
E00038
E00038
E00038
E00038
E00038
E00038
E00038
E00038
E00038
E00070
E000E0
F000E0
F000E0
7000E0
7C01C0
3C0380
1FFF00
03FE00
03FC00
ENDCHAR
STARTCHAR $1EE7
ENCODING 7911
SWIDTH 592 0
DWIDTH 24 0
BBX 19 31 3 1
BITMAP
03F000
033800
023800
003800
007000
007000
004000
000000
000000
E000E0
E000E0
E000E0
E000E0
E000E0
E000E0
E000E0
E000E0
E000E0
E000E0
E000E0
E000E0
E000E0
E000E0
E000E0
E001E0
F001E0
F801E0
7C07E0
1FFEE0
1FFEE0
0FF0E0
ENDCHAR
STARTCHAR $1EE8
ENCODING 7912
SWIDTH 703 0
DWIDTH 29 0
BBX 25 37 3 2
BITMAP
000F0000
007E0000
007E0000
01F00000
01E00000
01C00000
00000000
E0003180
E0003B80
E0003B00
E0003F00
E0003F00
E0003C00
E0003800
E0003800
E0003800
E0003800
E0003800
E0003800
E0003800
E0003800
E0003800
E0003800
E0003800
E0003800
E0003800
E0003800
E0003800
E000E000
E000E000
F000E000
7000E000
7800E000
7C07C000
1FFF0000
1FFF0000
03F80000
ENDCHAR
STARTCHAR $1EE9
ENCODING 7913
SWIDTH 666 0
DWIDTH 27 0
BBX 24 31 3 1
BITMAP
000600
001E00
003E00
01F800
03E000
03C000
000000
000000
000000
E000E7
E000E7
E000E7
E000FC
E000FC
E000FC
E000F8
E000E0
E000E0
E000E0
E000E0
E000E0
E000E0
E000E0
E000E0
E001E0
F001E0
F801E0
7C07E0
1FFEE0
1FFEE0
0FF0E0
ENDCHAR
STARTCHAR $1EEA
ENCODING 7914
SWIDTH 703 0
DWIDTH 29 0
BBX 25 37 3 2
BITMAP
0F800000
07C00000
03C00000
01F80000
00300000
00300000
00000000
E0003180
E0003B80
E0003B00
E0003F00
E0003F00
E0003C00
E0003800
E0003800
E0003800
E0003800
E0003800
E0003800
E0003800
E0003800
E0003800
E0003800
E0003800
E0003800
E0003800
E0003800
E0003800
E000E000
E000E000
F000E000
7000E000
7800E000
7C07C000
1FFF0000
1FFF0000
03F80000
ENDCHAR
STARTCHAR $1EEB
ENCODING 7915
SWIDTH 666 0
DWIDTH 27 0
BBX 24 31 3 1
BITMAP
0C0000
1E0000
1E0000
03C000
01E000
01F000
000000
000000
000000
E000E7
E000E7
E000E7
E000FC
E000FC
E000FC
E000F8
E000E0
E000E0
E000E0
E000E0
E000E0
E000E0
E000E0
E000E0
E001E0
F001E0
F801E0
7C07E0
1FFEE0
1FFEE0
0FF0E0
ENDCHAR
STARTCHAR $1EEC
ENCODING 7916
SWIDTH 703 0
DWIDTH 29 0
BBX 25 39 3 0
BITMAP
01F80000
039C0000
038E0000
00380000
00300000
00300000
00700000
00000000
00000000
E0003B80
E0003B00
E0003B00
E0003F00
E0003C00
E0003C00
E0003800
E0003800
E0003800
E0003800
E0003800
E0003800
E0003800
E0003800
E0003800
E0003800
E0003800
E0003800
E0003800
E0003800
E0007000
E000E000
F000E000
F000E000
7000E000
7C07C000
3C078000
1FFF0000
03F80000
03F80000
ENDCHAR
STARTCHAR $1EED
ENCODING 7917
SWIDTH 666 0
DWIDTH 27 0
BBX 24 31 3 1
BITMAP
03F000
033800
023800
003800
007000
007000
004000
000000
000000
E000E7
E000E7
E000E7
E000FC
E000FC
E000FC
E000F8
E000E0
E000E0
E000E0
E000E0
E000E0
E000E0
E000E0
E000E0
E001E0
F001E0
F801E0
7C07E0
1FFEE0
1FFEE0
0FF0E0
ENDCHAR
STARTCHAR $1EEE
ENCODING 7918
SWIDTH 703 0
DWIDTH 29 0
BBX 25 37 3 1
BITMAP
01800000
07C00000
0FC60000
0C7F0000
001C0000
00080000
00000000
E0003180
E0003B80
E0003B00
E0003F00
E0003F00
E0003C00
E0003800
E0003800
E0003800
E0003800
E0003800
E0003800
E0003800
E0003800
E0003800
E0003800
E0003800
E0003800
E0003800
E0003800
E0003800
E000E000
E000E000
F000E000
7000E000
7800E000
7C07C000
1FFF0000
1FFF0000
03F80000
ENDCHAR
STARTCHAR $1EEF
ENCODING 7919
SWIDTH 666 0
DWIDTH 27 0
BBX 24 30 3 0
BITMAP
020000
1FFC00
1FFE00
0C7800
000000
000000
000000
E00066
E000E7
E000E7
E000FE
E000FC
E000FC
E000F8
E000F8
E000E0
E000E0
E000E0
E000E0
E000E0
E000E0
E000E0
E001E0
E001E0
F001E0
7C07E0
3C07E0
1FFEE0
0FF0E0
07F060
ENDCHAR
STARTCHAR $1EF0
ENCODING 7920
SWIDTH 703 0
DWIDTH 29 0
BBX 25 36 3 -6
BITMAP
E0003B80
E0003B00
E0003B00
E0003F00
E0003E00
E0003C00
E0003800
E0003800
E0003800
E0003800
E0003800
E0003800
E0003800
E0003800
E0003800
E0003800
E0003800
E0003800
E0003800
E0003800
E0003800
E000E000
F000E000
F000E000
7000E000
7C07C000
3C07C000
1FFF0000
03F80000
03F80000
00000000
00700000
00700000
00700000
00700000
00600000
ENDCHAR
STARTCHAR $1EF1
ENCODING 7921
SWIDTH 666 0
DWIDTH 27 0
BBX 24 28 3 -5
BITMAP
E000E7
E000E7
E000E7
E000FC
E000FC
E000FC
E000F8
E000F0
E000E0
E000E0
E000E0
E000E0
E000E0
E000E0
E000E0
E001E0
F001E0
F801E0
7C07E0
1FFEE0
1FFEE0
0FF0E0
000000
000000
01C000
01C000
01C000
01C000
ENDCHAR
STARTCHAR $1EF2
ENCODING 7922
SWIDTH 592 0
DWIDTH 24 0
BBX 24 37 0 2
BITMAP
03C000
01E000
01F000
007E00
001C00
000800
000000
F0000E
F0001F
70001C
7C003C
3C003C
1C0038
1E0078
1E00F8
0E00E0
0F81E0
0781E0
0381C0
03C300
03C700
01C700
01FE00
00FE00
007E00
003800
003800
003800
003800
003800
003800
003800
003800
003800
003800
003800
003800
ENDCHAR
STARTCHAR $1EF3
ENCODING 7923
SWIDTH 518 0
DWIDTH 21 0
BBX 21 39 0 -7
BITMAP
020000
070000
0F8000
01F000
00F800
007800
000800
000000
000000
F00038
700078
7000F8
7000E0
1C00E0
1C00E0
1C01C0
1E01C0
1E01C0
0E0700
0E0700
070700
038F00
038E00
038E00
03CE00
01F800
01F800
01F800
007000
007000
007000
01F000
01F000
01C000
01C000
01C000
038000
038000
030000
ENDCHAR
STARTCHAR $1EF4
ENCODING 7924
SWIDTH 592 0
DWIDTH 24 0
BBX 24 37 0 -6
BITMAP
F0001F
70001E
70001C
7C003C
1C0038
1C0038
1E00F8
0E00F0
0E00E0
0F81E0
0381C0
0381C0
03C700
01C700
01C700
01FE00
007E00
007E00
003800
003800
003800
003800
003800
003800
003800
003800
003800
003800
003800
001800
000000
000000
000000
003800
003800
003800
003800
ENDCHAR
STARTCHAR $1EF5
ENCODING 7925
SWIDTH 518 0
DWIDTH 21 0
BBX 21 30 0 -7
BITMAP
F00038
700078
7000F8
7000E0
1C00E0
1C00E0
1C01C0
1E01C0
1E01C0
0E0700
0E0700
060700
038700
038E00
038E00
03CE00
01FC00
01F800
01F800
007800
007800
007000
007000
007000
01C000
01C1C0
01C1C0
0381C0
0381C0
038180
ENDCHAR
STARTCHAR $1EF6
ENCODING 7926
SWIDTH 592 0
DWIDTH 24 0
BBX 24 39 0 0
BITMAP
007E00
00E700
01C700
000700
000E00
000E00
003800
000000
000000
F0001F
70001E
78001C
7C003C
1C0038
1C0038
1E00F8
0E00E0
0F00E0
0F81E0
0381C0
0381C0
03C700
01C700
01E700
01FE00
007E00
007E00
003800
003800
003800
003800
003800
003800
003800
003800
003800
003800
003800
001800
ENDCHAR
STARTCHAR $1EF7
ENCODING 7927
SWIDTH 518 0
DWIDTH 21 0
BBX 21 39 0 -7
BITMAP
01FE00
019E00
018E00
000E00
001C00
003800
003000
000000
000000
F00038
700078
7000F8
7000E0
1C00E0
1C00E0
1C01C0
1E01C0
1E01C0
0E0700
0E0700
070700
038F00
038E00
038E00
03CE00
01F800
01F800
01F800
007000
007000
007000
01F000
01F000
01C000
01C000
01C000
038000
038000
030000
ENDCHAR
STARTCHAR $1EF8
ENCODING 7928
SWIDTH 592 0
DWIDTH 24 0
BBX 24 37 0 1
BITMAP
004000
03E100
03F100
020FC0
000600
000600
000000
F0000E
F0001F
70001C
7C003C
3C003C
1C0038
1E0078
1E00F8
0E00E0
0F81E0
0781E0
0381C0
03C300
03C700
01C700
01FE00
00FE00
007E00
003800
003800
003800
003800
003800
003800
003800
003800
003800
003800
003800
003800
ENDCHAR
STARTCHAR $1EF9
ENCODING 7929
SWIDTH 518 0
DWIDTH 21 0
BBX 21 37 0 -6
BITMAP
018100
03FF00
03FF00
023E00
000000
000000
000000
F00030
F00038
7000F8
7000F0
3800E0
1C00E0
1C01C0
1C01C0
1E01C0
0E0380
0E0700
0E0700
038F00
038F00
038E00
03CE00
03EE00
01F800
01F800
00F800
007000
007000
007000
01F000
01C000
01C000
01C000
038000
038000
038000
ENDCHAR
STARTCHAR $2000
ENCODING 8192
SWIDTH 518 0
DWIDTH 21 0
BBX 0 0 0 0
BITMAP
ENDCHAR
STARTCHAR $2001
ENCODING 8193
SWIDTH 1000 0
DWIDTH 40 0
BBX 0 0 0 0
BITMAP
ENDCHAR
STARTCHAR $2002
ENCODING 8194
SWIDTH 518 0
DWIDTH 21 0
BBX 0 0 0 0
BITMAP
ENDCHAR
STARTCHAR $2003
ENCODING 8195
SWIDTH 1000 0
DWIDTH 40 0
BBX 0 0 0 0
BITMAP
ENDCHAR
STARTCHAR $2004
ENCODING 8196
SWIDTH 333 0
DWIDTH 14 0
BBX 0 0 0 0
BITMAP
ENDCHAR
STARTCHAR $2005
ENCODING 8197
SWIDTH 259 0
DWIDTH 11 0
BBX 0 0 0 0
BITMAP
ENDCHAR
STARTCHAR $2006
ENCODING 8198
SWIDTH 185 0
DWIDTH 8 0
BBX 0 0 0 0
BITMAP
ENDCHAR
STARTCHAR $2007
ENCODING 8199
SWIDTH 555 0
DWIDTH 23 0
BBX 0 0 0 0
BITMAP
ENDCHAR
STARTCHAR $2008
ENCODING 8200
SWIDTH 259 0
DWIDTH 11 0
BBX 0 0 0 0
BITMAP
ENDCHAR
STARTCHAR $2009
ENCODING 8201
SWIDTH 185 0
DWIDTH 8 0
BBX 0 0 0 0
BITMAP
ENDCHAR
STARTCHAR $200A
ENCODING 8202
SWIDTH 111 0
DWIDTH 5 0
BBX 0 0 0 0
BITMAP
ENDCHAR
STARTCHAR $200B
ENCODING 8203
SWIDTH 0 0
DWIDTH 0 0
BBX 0 0 0 0
BITMAP
ENDCHAR
STARTCHAR $200C
ENCODING 8204
SWIDTH 0 0
DWIDTH 0 0
BBX 0 0 0 0
BITMAP
ENDCHAR
STARTCHAR $200D
ENCODING 8205
SWIDTH 0 0
DWIDTH 0 0
BBX 0 0 0 0
BITMAP
ENDCHAR
STARTCHAR $2010
ENCODING 8208
SWIDTH 333 0
DWIDTH 14 0
BBX 10 3 1 9
BITMAP
FFC0
FFC0
FFC0
ENDCHAR
STARTCHAR $2011
ENCODING 8209
SWIDTH 333 0
DWIDTH 14 0
BBX 10 3 1 9
BITMAP
FFC0
FFC0
FFC0
ENDCHAR
STARTCHAR $2012
ENCODING 8210
SWIDTH 592 0
DWIDTH 24 0
BBX 18 3 3 13
BITMAP
FFFFC0
FFFFC0
FFFFC0
ENDCHAR
STARTCHAR $2013
ENCODING 8211
SWIDTH 518 0
DWIDTH 21 0
BBX 19 3 0 9
BITMAP
FFFFE0
FFFFE0
FFFFE0
ENDCHAR
STARTCHAR $2014
ENCODING 8212
SWIDTH 1000 0
DWIDTH 40 0
BBX 40 3 0 9
BITMAP
FFFFFFFFFF
FFFFFFFFFF
FFFFFFFFFF
ENDCHAR
STARTCHAR $2015
ENCODING 8213
SWIDTH 1148 0
DWIDTH 46 0
BBX 40 3 3 9
BITMAP
FFFFFFFFFF
FFFFFFFFFF
FFFFFFFFFF
ENDCHAR
STARTCHAR $2016
ENCODING 8214
SWIDTH 407 0
DWIDTH 17 0
BBX 10 33 3 -6
BITMAP
E1C0
E1C0
E1C0
E1C0
E1C0
E1C0
E1C0
E1C0
E1C0
E1C0
E1C0
E1C0
E1C0
E1C0
E1C0
E1C0
E1C0
E1C0
E1C0
E1C0
E1C0
E1C0
E1C0
E1C0
E1C0
E1C0
E1C0
E1C0
E1C0
E1C0
E1C0
E1C0
E0C0
ENDCHAR
STARTCHAR $2017
ENCODING 8215
SWIDTH 444 0
DWIDTH 18 0
BBX 12 9 3 -12
BITMAP
FFF0
FFF0
FFF0
0000
0000
0000
FFF0
FFF0
FFF0
ENDCHAR
STARTCHAR $2018
ENCODING 8216
SWIDTH 333 0
DWIDTH 14 0
BBX 6 7 4 23
BITMAP
E0
E0
E0
70
70
30
1C
ENDCHAR
STARTCHAR $2019
ENCODING 8217
SWIDTH 333 0
DWIDTH 14 0
BBX 6 7 4 23
BITMAP
1C
38
70
70
E0
E0
E0
ENDCHAR
STARTCHAR $201A
ENCODING 8218
SWIDTH 370 0
DWIDTH 15 0
BBX 4 7 4 -2
BITMAP
70
70
70
70
E0
E0
E0
ENDCHAR
STARTCHAR $201C
ENCODING 8220
SWIDTH 518 0
DWIDTH 21 0
BBX 12 7 4 23
BITMAP
E380
E380
E380
71C0
71C0
31C0
1C70
ENDCHAR
STARTCHAR $201D
ENCODING 8221
SWIDTH 481 0
DWIDTH 20 0
BBX 10 7 4 23
BITMAP
71C0
71C0
71C0
7380
E380
E380
E380
ENDCHAR
STARTCHAR $201E
ENCODING 8222
SWIDTH 518 0
DWIDTH 21 0
BBX 10 7 4 -2
BITMAP
71C0
71C0
71C0
73C0
E380
E380
E380
ENDCHAR
STARTCHAR $2020
ENCODING 8224
SWIDTH 555 0
DWIDTH 23 0
BBX 16 34 3 -3
BITMAP
0380
0380
0380
0380
0380
0380
0380
FFFF
FFFF
FFFF
0380
0380
0380
0380
0380
0380
0380
0380
0380
0380
0380
0380
0380
0380
0380
0380
0380
0380
0380
0380
0380
0380
0380
0380
ENDCHAR
STARTCHAR $2021
ENCODING 8225
SWIDTH 555 0
DWIDTH 23 0
BBX 16 36 3 -6
BITMAP
0380
0380
0380
0380
0380
0380
0380
FFFF
FFFF
FFFF
0380
0380
0380
FFFF
FFFF
FFFF
0380
0380
0380
0380
0380
0380
0380
0380
0380
0380
0380
0380
0380
0380
0380
0380
0380
0380
0380
0300
ENDCHAR
STARTCHAR $2022
ENCODING 8226
SWIDTH 518 0
DWIDTH 21 0
BBX 15 15 3 3
BITMAP
0380
1FE0
1FF0
7FF8
FFFC
FFFE
FFFE
FFFE
FFFE
FFFE
7FFC
7FF8
7FF8
0FE0
07C0
ENDCHAR
STARTCHAR $2026
ENCODING 8230
SWIDTH 814 0
DWIDTH 33 0
BBX 27 4 3 1
BITMAP
E00E00E0
E00E00E0
E00E00E0
E00E00E0
ENDCHAR
STARTCHAR $202F
ENCODING 8239
SWIDTH 185 0
DWIDTH 8 0
BBX 0 0 0 0
BITMAP
ENDCHAR
STARTCHAR $2030
ENCODING 8240
SWIDTH 1185 0
DWIDTH 48 0
BBX 46 30 0 0
BITMAP
0FC007000000
1FF80E000000
1FF81C000000
70381C000000
E01C38000000
E00E38000000
E00E38000000
E00E70000000
E00EE0000000
7038E0000000
1FF8C0000000
1FF8C0000000
0FC1C0000000
0001C0000000
0001C0000000
000700000000
000707C00F80
000707E01FC0
000E3FF03FF0
000EF878707C
000EF87C703C
0038E01C701C
0038E01C401C
0038E01C401C
0070E01C701C
0070F81C703C
00707838707C
00703FF03FF0
01C01FE01FC0
00C00FC00F80
ENDCHAR
STARTCHAR $2031
ENCODING 8241
SWIDTH 1555 0
DWIDTH 63 0
BBX 62 30 0 0
BITMAP
0FC0070000000000
1FF80E0000000000
1FF81C0000000000
70381C0000000000
E01C380000000000
E00E380000000000
E00E380000000000
E00E700000000000
E00EE00000000000
7038E00000000000
1FF8C00000000000
1FF8C00000000000
0FC1C00000000000
0001C00000000000
0001C00000000000
0007000000000000
000707C00F800FC0
000707E01FC00FC0
000E3FF03FF03FF8
000EF878707C7038
000EF87C703C7038
0038E01C701C401C
0038E01C401CC01C
0038E01C401DC01C
0070E01C701DC01C
0070F81C703C7038
00707838707C7038
00703FF03FF03FF8
01C01FE01FC00FC0
00C00FC00F800F80
ENDCHAR
STARTCHAR $2032
ENCODING 8242
SWIDTH 259 0
DWIDTH 11 0
BBX 4 9 3 21
BITMAP
70
70
70
70
E0
E0
E0
E0
E0
ENDCHAR
STARTCHAR $2033
ENCODING 8243
SWIDTH 407 0
DWIDTH 17 0
BBX 10 9 3 21
BITMAP
71C0
71C0
71C0
71C0
E380
E380
E380
E380
E380
ENDCHAR
STARTCHAR $2034
ENCODING 8244
SWIDTH 555 0
DWIDTH 23 0
BBX 16 9 3 21
BITMAP
71C7
71C7
71C7
71C7
E38E
E38E
E38E
E38E
E38E
ENDCHAR
STARTCHAR $2035
ENCODING 8245
SWIDTH 259 0
DWIDTH 11 0
BBX 4 9 3 21
BITMAP
E0
E0
E0
E0
70
70
70
70
30
ENDCHAR
STARTCHAR $2036
ENCODING 8246
SWIDTH 407 0
DWIDTH 17 0
BBX 10 9 3 21
BITMAP
E380
E380
E380
E380
71C0
71C0
71C0
71C0
31C0
ENDCHAR
STARTCHAR $2037
ENCODING 8247
SWIDTH 555 0
DWIDTH 23 0
BBX 16 9 3 21
BITMAP
E38E
E38E
E38E
E38E
71C7
71C7
71C7
71C7
31C7
ENDCHAR
STARTCHAR $2039
ENCODING 8249
SWIDTH 259 0
DWIDTH 11 0
BBX 7 15 1 4
BITMAP
0E
1C
1C
7C
78
70
E0
F0
F0
70
1C
1C
1C
0E
06
ENDCHAR
STARTCHAR $203A
ENCODING 8250
SWIDTH 259 0
DWIDTH 11 0
BBX 6 15 1 4
BITMAP
E0
70
70
70
1C
1C
1C
1C
1C
1C
38
70
70
E0
E0
ENDCHAR
STARTCHAR $203B
ENCODING 8251
SWIDTH 592 0
DWIDTH 24 0
BBX 22 21 1 0
BITMAP
007000
00F800
01F800
0C78C0
1E01C0
1E01C0
0F8700
03CE00
03CE00
F1F8F8
F078FC
F078FC
F3FE38
0F8F00
0F8F00
1E07C0
1C71C0
1C71C0
01F800
007800
007800
ENDCHAR
STARTCHAR $203D
ENCODING 8253
SWIDTH 592 0
DWIDTH 24 0
BBX 18 33 3 0
BITMAP
01C000
01C000
01C000
0FF800
1FFC00
1FFE00
71C700
F1C380
F1C1C0
E1C1C0
E1C1C0
E1C1C0
01C1C0
01C1C0
01C1C0
01C700
01CF00
01EF00
01F800
01F000
01F000
01F000
01E000
01C000
01C000
000000
000000
000000
01C000
01C000
01C000
01C000
00C000
ENDCHAR
STARTCHAR $203F
ENCODING 8255
SWIDTH 518 0
DWIDTH 21 0
BBX 18 4 1 -6
BITMAP
E001C0
FFFF80
FFFF00
1FFE00
ENDCHAR
STARTCHAR $2040
ENCODING 8256
SWIDTH 518 0
DWIDTH 21 0
BBX 18 4 1 26
BITMAP
1FFE00
3FFF00
7FFF00
E001C0
ENDCHAR
STARTCHAR $2044
ENCODING 8260
SWIDTH 518 0
DWIDTH 21 0
BBX 15 33 3 -6
BITMAP
000E
001C
0038
0038
0038
0038
0070
0070
0070
0070
00E0
01C0
01C0
03C0
03C0
0380
0380
0380
0F80
0F00
0E00
0E00
1E00
1E00
1C00
1C00
1C00
7000
7000
7000
7000
E000
E000
ENDCHAR
STARTCHAR $2045
ENCODING 8261
SWIDTH 333 0
DWIDTH 14 0
BBX 9 39 3 -9
BITMAP
FF80
FF80
FF80
E000
E000
E000
E000
E000
E000
E000
E000
E000
E000
E000
E000
E000
E000
E000
FF80
FF80
FF80
E000
E000
E000
E000
E000
E000
E000
E000
E000
E000
E000
E000
E000
E000
E000
FF80
FF80
FF00
ENDCHAR
STARTCHAR $2046
ENCODING 8262
SWIDTH 333 0
DWIDTH 14 0
BBX 9 39 1 -9
BITMAP
FF80
FF80
FF80
0380
0380
0380
0380
0380
0380
0380
0380
0380
0380
0380
0380
0380
0380
0380
FF80
FF80
FF80
0380
0380
0380
0380
0380
0380
0380
0380
0380
0380
0380
0380
0380
0380
0380
FF80
FF80
FF00
ENDCHAR
STARTCHAR $2052
ENCODING 8274
SWIDTH 555 0
DWIDTH 23 0
BBX 19 30 1 0
BITMAP
0000E0
F001C0
F001C0
FC01C0
FC0380
FC0700
F00F00
000E00
000E00
003800
003800
003800
007000
007000
007000
01C000
01C000
01C000
038000
078000
0F8000
0E0000
1E01E0
1E01E0
1C07E0
3807E0
7003E0
7001E0
E00000
E00000
ENDCHAR
STARTCHAR $2054
ENCODING 8276
SWIDTH 518 0
DWIDTH 21 0
BBX 18 4 1 -6
BITMAP
0FF800
3FFF00
7FFF00
E001C0
ENDCHAR
STARTCHAR $2057
ENCODING 8279
SWIDTH 703 0
DWIDTH 29 0
BBX 22 9 3 21
BITMAP
71C71C
71C71C
71C71C
71C71C
E38E38
E38E38
E38E38
E38E38
E38E38
ENDCHAR
STARTCHAR $205F
ENCODING 8287
SWIDTH 222 0
DWIDTH 9 0
BBX 0 0 0 0
BITMAP
ENDCHAR
STARTCHAR $2060
ENCODING 8288
SWIDTH 0 0
DWIDTH 0 0
BBX 0 0 0 0
BITMAP
ENDCHAR
STARTCHAR $2061
ENCODING 8289
SWIDTH 1111 0
DWIDTH 45 0
BBX 39 39 3 -9
BITMAP
0F87078380
0F87078380
0F87078380
0000000000
0000000000
0000000000
E00000000E
E00000000E
E00000000E
E00000000E
0000000000
0000000000
000E1C7000
E01038300C
E03038100E
E078201C0E
E060600C0E
E040E00C0C
0040C00C00
0040C00C00
0040C00C00
E040E00C0E
E040200C0E
E04020080E
E18038100E
0000187000
0000007000
0000006000
0000000000
0000000000
E00000000E
E00000000E
E00000000E
E00000000E
0000000000
0000000000
0F87078380
0F87078380
0703078300
ENDCHAR
STARTCHAR $2062
ENCODING 8290
SWIDTH 0 0
DWIDTH 0 0
BBX 0 0 0 0
BITMAP
ENDCHAR
STARTCHAR $2063
ENCODING 8291
SWIDTH 0 0
DWIDTH 0 0
BBX 0 0 0 0
BITMAP
ENDCHAR
STARTCHAR $2064
ENCODING 8292
SWIDTH 0 0
DWIDTH 0 0
BBX 0 0 0 0
BITMAP
ENDCHAR
STARTCHAR $20A1
ENCODING 8353
SWIDTH 814 0
DWIDTH 33 0
BBX 28 36 1 -3
BITMAP
00070000
00070000
00070000
003FF800
00FFFE00
01FFFF00
0FC707E0
1F0701F0
1E0700F0
1C070070
38070000
70070000
70070000
F0070000
F0070000
E0070000
E0070000
E0070000
E0070000
E0070000
E0070000
70070000
70070000
78070000
7C070000
1E070070
1F070070
0F8700E0
03C707E0
03E78FC0
01FFFF00
003FF800
001FF000
00070000
00070000
00030000
ENDCHAR
STARTCHAR $20A4
ENCODING 8356
SWIDTH 555 0
DWIDTH 23 0
BBX 24 30 0 0
BITMAP
007F00
03FFE0
03FFE0
0F80F8
0F0078
0E0038
1C001C
1C001C
1C001C
1C0000
FFFF80
FFFFC0
FFFFC0
0F0000
070000
038000
FFFFC0
FFFFC0
FFFFC0
007007
007007
007007
007007
007007
00701F
00703C
00703C
1FFFF8
1FFFC0
1FFF80
ENDCHAR
STARTCHAR $20A6
ENCODING 8358
SWIDTH 740 0
DWIDTH 30 0
BBX 27 30 1 0
BITMAP
7C000380
7E000380
7E000380
7F800380
7B800380
73800380
71C00380
FFFFFFC0
FFFFFFE0
FFFFFFE0
783C0380
70380380
703E0380
700E0380
700E0380
700F0380
FFFFFFC0
FFFFFFE0
FFFFFFE0
7801E380
7001E380
7000E380
70003B80
70003B80
70003F80
70001F80
70000F80
70000780
70000380
30000180
ENDCHAR
STARTCHAR $20A9
ENCODING 8361
SWIDTH 962 0
DWIDTH 39 0
BBX 39 30 0 0
BITMAP
E000380038
7000380038
7000380038
7000FC0038
7000FC0038
3000FC0038
1C00FC0070
FFFFFFFFFC
FFFFFFFFFE
FFFFFFFFFE
1F01CF01C0
1E01C701C0
0E01C701C0
0E038701C0
0E070701C0
0E070381C0
FFFFFFFFFC
FFFFFFFFFE
FFFFFFFFFE
038E03E780
038E03E380
038E00E380
01CE00EE00
01CE00EE00
01CE00EE00
01F8007E00
01F8007E00
01F8007C00
0078007C00
0078007800
ENDCHAR
STARTCHAR $20AB
ENCODING 8363
SWIDTH 666 0
DWIDTH 27 0
BBX 21 33 3 -3
BITMAP
0000E0
0000E0
0000E0
000FF8
0000F0
0000E0
03F8E0
1FFFE0
1FFFE0
7007E0
6001E0
6001E0
E000E0
E000E0
E000E0
8000E0
8000E0
C000E0
E000E0
E000E0
E000E0
7001E0
1C07E0
1C07E0
0FFEE0
004000
004000
000000
000000
000000
FFFFF8
FFFFF8
FFFFF0
ENDCHAR
STARTCHAR $20AC
ENCODING 8364
SWIDTH 555 0
DWIDTH 23 0
BBX 24 30 -1 0
BITMAP
000FE0
007FFC
007FFC
01F01F
03800F
038007
038003
070000
0E0000
0E0000
3FFFF0
7FFFF8
FFFFF8
0F0000
0E0000
0E0000
3FFFE0
7FFFE0
FFFFC0
0F0000
0E0000
0E0000
038000
038000
038004
01F004
00F00C
007FFC
003FE0
001FE0
ENDCHAR
STARTCHAR $20B1
ENCODING 8369
SWIDTH 703 0
DWIDTH 29 0
BBX 24 30 1 0
BITMAP
7FFF00
7FFFE0
7FFFE0
7C00F8
7C0078
7C0038
FFFFFF
7C001E
7C001C
7C001C
FFFFFE
FFFFFF
7C0038
7C0078
7C00F8
7FFFE0
7FFE00
7FFE00
7C0000
7C0000
7C0000
7C0000
7C0000
7C0000
7C0000
7C0000
7C0000
7C0000
7C0000
3C0000
ENDCHAR
STARTCHAR $20B2
ENCODING 8370
SWIDTH 888 0
DWIDTH 36 0
BBX 31 36 1 -3
BITMAP
0001C000
0001C000
0001C000
003FF800
00FFFF80
01FFFF80
03C007E0
078001F0
0F8000F0
1C00007C
3C00003C
7C00001C
70000000
70000000
70000000
E0000000
E0000000
E0000000
E0000000
E00FFFFE
E00FFFFE
F00FFFFE
7000000E
7800000E
7C00001C
1C00001C
1C000038
0F8000F0
03C003E0
03E003C0
01FFFF80
003FF800
001FF000
0001C000
0001C000
00018000
ENDCHAR
STARTCHAR $20BD
ENCODING 8381
SWIDTH 666 0
DWIDTH 27 0
BBX 22 30 3 0
BITMAP
1FFF00
1FFFE0
1FFFE0
1C00F8
1C007C
1C003C
1C001C
1C001C
1C001C
1C001C
1C001C
1C001C
1C003C
1C0078
1C00F8
1FFFE0
FFFE00
FFFE00
1C0000
1C0000
1C0000
FFF800
1C0000
1C0000
1C0000
1C0000
1C0000
1C0000
1C0000
1C0000
ENDCHAR
STARTCHAR $20BF
ENCODING 8383
SWIDTH 592 0
DWIDTH 24 0
BBX 19 36 3 -3
BITMAP
023800
023800
023800
FFF800
FFFC00
FFFE00
E00F00
E00700
E00700
E007C0
E001C0
E001C0
E00700
E00700
E00700
E00F00
FFFE00
FFFE00
FFFF00
E007C0
E003C0
E001C0
E000E0
E000E0
E000E0
E000E0
E000E0
E001C0
E007C0
E00780
FFFF00
FFF800
FFF800
023800
023800
021800
ENDCHAR
STARTCHAR $20D0
ENCODING 8400
SWIDTH 0 0
DWIDTH 0 0
BBX 16 7 -16 31
BITMAP
0380
0780
0F80
7C00
FFFF
FFFF
FFFF
ENDCHAR
STARTCHAR $20D1
ENCODING 8401
SWIDTH 0 0
DWIDTH 0 0
BBX 16 9 -16 28
BITMAP
0200
0300
0380
01F0
00FC
007E
FFFF
FFFF
FFFF
ENDCHAR
STARTCHAR $20D2
ENCODING 8402
SWIDTH 0 0
DWIDTH 0 0
BBX 3 33 -10 -6
BITMAP
E0
E0
E0
E0
E0
E0
E0
E0
E0
E0
E0
E0
E0
E0
E0
E0
E0
E0
E0
E0
E0
E0
E0
E0
E0
E0
E0
E0
E0
E0
E0
E0
E0
ENDCHAR
STARTCHAR $20D3
ENCODING 8403
SWIDTH 0 0
DWIDTH 0 0
BBX 3 19 -10 1
BITMAP
E0
E0
E0
E0
E0
E0
E0
E0
E0
E0
E0
E0
E0
E0
E0
E0
E0
E0
E0
ENDCHAR
STARTCHAR $20D4
ENCODING 8404
SWIDTH 0 0
DWIDTH 0 0
BBX 19 10 -18 32
BITMAP
1C0000
1C0000
1C0000
11F000
3FFC00
7FFE00
7E0F00
FFF380
FFF1C0
FFF0E0
ENDCHAR
STARTCHAR $20D5
ENCODING 8405
SWIDTH 0 0
DWIDTH 0 0
BBX 19 12 -18 30
BITMAP
000600
000600
000600
000700
00C700
01C700
1FFF00
3C0F80
7C0FC0
71FFC0
E3FFE0
E3FFE0
ENDCHAR
STARTCHAR $20D6
ENCODING 8406
SWIDTH 0 0
DWIDTH 0 0
BBX 16 12 -16 25
BITMAP
0380
1F80
1F80
7C00
FFFF
FFFF
FFFF
7F00
3E00
0F80
0180
0180
ENDCHAR
STARTCHAR $20D7
ENCODING 8407
SWIDTH 0 0
DWIDTH 0 0
BBX 16 13 -16 25
BITMAP
0200
0300
0380
01F0
00FC
007E
FFFF
FFFF
FFFF
0078
03F0
03F0
0380
ENDCHAR
STARTCHAR $20D8
ENCODING 8408
SWIDTH 0 0
DWIDTH 0 0
BBX 15 15 -16 3
BITMAP
0FC0
1FF8
1FF8
7C3E
F81E
F00E
E00E
E00E
E00E
F00E
7C1E
3C3E
1FF8
0FE0
07C0
ENDCHAR
STARTCHAR $20DB
ENCODING 8411
SWIDTH 0 0
DWIDTH 0 0
BBX 18 4 -18 26
BITMAP
E1C1C0
E1C1C0
E1C1C0
E1C1C0
ENDCHAR
STARTCHAR $20DC
ENCODING 8412
SWIDTH 0 0
DWIDTH 0 0
BBX 25 4 -21 26
BITMAP
E1C1C380
E1C1C380
E1C1C380
E1C1C380
ENDCHAR
STARTCHAR $20DD
ENCODING 8413
SWIDTH 0 0
DWIDTH 0 0
BBX 34 34 -25 -6
BITMAP
000FFC0000
007FFF8000
007FFF8000
03F007E000
078001F000
0F8000F000
1E00007C00
1C00003E00
1C00001E00
7000000E00
7000000700
7000000380
E000000380
E000000380
E000000380
E0000003C0
E0000001C0
E0000001C0
E0000003C0
E000000380
E000000380
E000000380
7000000380
7000000700
7000000E00
1C00000E00
1C00000E00
1E00001C00
0F8000F000
078001F000
03F007E000
007FFF8000
007FFF8000
000FFC0000
ENDCHAR
STARTCHAR $20DE
ENCODING 8414
SWIDTH 0 0
DWIDTH 0 0
BBX 33 33 -25 -6
BITMAP
FFFFFFFF80
FFFFFFFF80
FFFFFFFF80
E000000380
E000000380
E000000380
E000000380
E000000380
E000000380
E000000380
E000000380
E000000380
E000000380
E000000380
E000000380
E000000380
E000000380
E000000380
E000000380
E000000380
E000000380
E000000380
E000000380
E000000380
E000000380
E000000380
E000000380
E000000380
E000000380
E000000780
FFFFFFFF80
FFFFFFFF80
FFFFFFFF00
ENDCHAR
STARTCHAR $20DF
ENCODING 8415
SWIDTH 0 0
DWIDTH 0 0
BBX 47 47 -33 -12
BITMAP
000003800000
000007C00000
000007E00000
00001FF00000
00003E780000
00003C7C0000
0000F81E0000
0001F00F0000
0001E00F8000
0007C003C000
000F8001E000
000F0001F000
003E00007800
007C00003C00
007800003E00
01F000000F00
03E000000780
03C0000007C0
0F80000001E0
1F00000000F0
1E00000000F8
7C000000007C
F8000000001E
F0000000001E
F0000000000E
7C000000001E
3C000000001E
1E000000007C
0F80000000F8
0780000000F0
03C0000001E0
01F0000007C0
00F000000780
007800000F00
003E00003E00
001E00003C00
000F00007800
0007C001F000
0003C001E000
0001E003C000
0000F80F8000
00007C1F0000
00003C1E0000
00001F7C0000
00000FF80000
000007F00000
000003E00000
ENDCHAR
STARTCHAR $20E1
ENCODING 8417
SWIDTH 0 0
DWIDTH 0 0
BBX 24 12 -21 25
BITMAP
01C1C0
07C1E0
0FC1E0
7E003C
FFFFFE
FFFFFF
FFFFFF
1F00FE
1E00FC
03C1E0
01C180
01C100
ENDCHAR
STARTCHAR $20E4
ENCODING 8420
SWIDTH 0 0
DWIDTH 0 0
BBX 41 37 -30 -8
BITMAP
00001C000000
00001E000000
00001F000000
00003F000000
00007B800000
0000FB800000
0000E3E00000
0001E1E00000
0001E0E00000
0001C0F00000
000380700000
000700700000
0007001C0000
000E001E0000
000E001E0000
003E000E0000
003C000F0000
0038000F8000
007800038000
00700001C000
00700001C000
01C00001C000
01C00000E000
01C000007000
038000007800
078000003800
0F8000003800
0E0000003E00
1E0000001E00
1E0000000E00
1C0000000700
380000000700
700000000700
F00000000180
FFFFFFFFFF80
FFFFFFFFFF80
FFFFFFFFFF80
ENDCHAR
STARTCHAR $20E5
ENCODING 8421
SWIDTH 0 0
DWIDTH 0 0
BBX 15 33 -16 -6
BITMAP
F000
7000
7000
7000
7C00
3C00
1C00
1C00
1C00
0E00
0E00
0E00
0E00
0380
0380
0380
0380
0380
01C0
01C0
01C0
01C0
0070
0070
0070
0070
0070
0038
0038
003C
003E
000E
000C
ENDCHAR
STARTCHAR $20E6
ENCODING 8422
SWIDTH 0 0
DWIDTH 0 0
BBX 10 33 -13 -6
BITMAP
E1C0
E1C0
E1C0
E1C0
E1C0
E1C0
E1C0
E1C0
E1C0
E1C0
E1C0
E1C0
E1C0
E1C0
E1C0
E1C0
E1C0
E1C0
E1C0
E1C0
E1C0
E1C0
E1C0
E1C0
E1C0
E1C0
E1C0
E1C0
E1C0
E1C0
E1C0
E1C0
E0C0
ENDCHAR
STARTCHAR $20E8
ENCODING 8424
SWIDTH 0 0
DWIDTH 0 0
BBX 18 4 -18 -6
BITMAP
E1C1C0
E1C1C0
E1C1C0
E1C1C0
ENDCHAR
STARTCHAR $20E9
ENCODING 8425
SWIDTH 0 0
DWIDTH 0 0
BBX 30 4 -24 29
BITMAP
FFFFFFFC
FFFFFFFC
FFFFFFFC
E000001C
ENDCHAR
STARTCHAR $20EA
ENCODING 8426
SWIDTH 0 0
DWIDTH 0 0
BBX 31 15 -24 3
BITMAP
00400000
03C00000
03C00000
0FC00000
3F000000
7E000000
FFFFFFFE
FFFFFFFE
FFFFFFFE
7E000000
0FC00000
07C00000
03C00000
00400000
00400000
ENDCHAR
STARTCHAR $20EB
ENCODING 8427
SWIDTH 0 0
DWIDTH 0 0
BBX 22 33 -19 -6
BITMAP
00383C
003838
003838
003838
007078
0070F8
0070E0
0070E0
0070E0
01C1E0
01C1C0
01C1C0
01C1C0
038380
038700
038700
038700
038700
0E0E00
0E0E00
0E0E00
1E0E00
1C1800
1C3800
1C3800
3C3800
7C3800
707000
707000
707000
F07000
E1C000
E0C000
ENDCHAR
STARTCHAR $20EC
ENCODING 8428
SWIDTH 0 0
DWIDTH 0 0
BBX 16 7 -16 -14
BITMAP
FFFF
FFFF
FFFF
0078
03F0
03F0
0380
ENDCHAR
STARTCHAR $20ED
ENCODING 8429
SWIDTH 0 0
DWIDTH 0 0
BBX 16 7 -16 -14
BITMAP
FFFF
FFFF
FFFF
7E00
0F00
0F80
0180
ENDCHAR
STARTCHAR $20EE
ENCODING 8430
SWIDTH 0 0
DWIDTH 0 0
BBX 16 12 -16 -13
BITMAP
0380
1F80
1F80
7C00
FFFF
FFFF
FFFF
7F00
3E00
0F80
0180
0180
ENDCHAR
STARTCHAR $20EF
ENCODING 8431
SWIDTH 0 0
DWIDTH 0 0
BBX 16 13 -16 -14
BITMAP
0200
0300
0380
01F0
00FC
007E
FFFF
FFFF
FFFF
0078
03F0
03F0
0380
ENDCHAR
STARTCHAR $20F0
ENCODING 8432
SWIDTH 0 0
DWIDTH 0 0
BBX 10 10 -13 25
BITMAP
1C00
1C00
1D80
FFC0
7F00
7E00
FFC0
FD80
FD80
1C00
ENDCHAR
STARTCHAR $2103
ENCODING 8451
SWIDTH 1148 0
DWIDTH 46 0
BBX 43 30 1 0
BITMAP
0F80007FC000
3FE007FFFC00
7FF007FFFE00
60701F000F00
E0303E000780
E0303C0007C0
E030E00001E0
6071E0000000
6071E0000000
7FF1C0000000
1F81C0000000
1F81C0000000
0001C0000000
0001C0000000
0001C0000000
0001C0000000
0001C0000000
0001C0000000
0001C0000000
0001E0000000
0001E0000000
0000E00000E0
0000F80001C0
000078000380
00003C000780
00001F803F00
00000F803F00
000007FFF800
0000007FC000
0000007FC000
ENDCHAR
STARTCHAR $2107
ENCODING 8455
SWIDTH 555 0
DWIDTH 23 0
BBX 19 30 1 0
BITMAP
03FE00
07FF80
0FFFC0
1E01C0
1C0000
1C0000
1C0000
1C0000
1C0000
1C0000
1E0000
1E0000
0FF000
0FF000
0FF000
1C0000
380000
700000
700000
E00000
E00000
E00000
700000
700000
700000
1C01E0
1C01E0
1FFFC0
03FE00
03FE00
ENDCHAR
STARTCHAR $2109
ENCODING 8457
SWIDTH 851 0
DWIDTH 35 0
BBX 31 30 1 0
BITMAP
0F80FFFE
3FE0FFFE
7FF0FFFE
6070E000
E030E000
E030E000
E030E000
6070E000
6070E000
7FF0E000
1F80E000
1F80E000
0000E000
0000FFFE
0000FFFE
0000FFFE
0000E000
0000E000
0000E000
0000E000
0000E000
0000E000
0000E000
0000E000
0000E000
0000E000
0000E000
0000E000
0000E000
00006000
ENDCHAR
STARTCHAR $210F
ENCODING 8463
SWIDTH 592 0
DWIDTH 24 0
BBX 22 30 0 0
BITMAP
1C0000
1C4000
1C4000
1D8000
1E0000
1E0000
1C0000
3C7F00
7C7F00
9FFFE0
1F80F0
1F80F8
1E0038
1C0038
1C0038
1C001C
1C001C
1C001C
1C001C
1C001C
1C001C
1C001C
1C001C
1C001C
1C001C
1C001C
1C001C
1C001C
1C001C
1C000C
ENDCHAR
STARTCHAR $2113
ENCODING 8467
SWIDTH 481 0
DWIDTH 20 0
BBX 13 30 3 0
BITMAP
0FC0
1FE0
1FF0
1C70
1C70
1C70
7070
7070
7070
7070
7070
7070
71C0
71C0
71C0
7380
7F80
7F80
7E00
7C00
7C00
F000
F018
F838
7C38
1C70
1C70
1FF0
0FC0
07C0
ENDCHAR
STARTCHAR $2116
ENCODING 8470
SWIDTH 1148 0
DWIDTH 46 0
BBX 40 30 3 0
BITMAP
F000070000
F800070000
FC00070000
FC00070000
EE00070000
EE00070000
EF80070000
E3800703F8
E3800703F8
E1C0070FFE
E1F0071C07
E1F0071C07
E070071C07
E038071003
E038071001
E03E071001
E00E071807
E00E071C07
E007071C07
E001C70FFE
E001C70FFC
E001E703F8
E000E70000
E000670000
E0003F0000
E0003F0000
E0003F0000
E0001F7FFF
E000077FFF
E000067FFF
ENDCHAR
STARTCHAR $2117
ENCODING 8471
SWIDTH 740 0
DWIDTH 30 0
BBX 28 28 1 1
BITMAP
007FC000
03803000
03803800
0C000700
10000300
10000300
61FFC080
61E7E040
61C7E060
81C03860
81C03860
81C03860
81C03810
81C1F010
81C1E010
81FFC010
81E00060
81C00060
81C00060
E1C00060
E1C00040
61C00080
10000380
10000380
0C000700
03803800
03803000
007FC000
ENDCHAR
STARTCHAR $2118
ENCODING 8472
SWIDTH 703 0
DWIDTH 29 0
BBX 24 33 1 -9
BITMAP
038000
0701E0
0E01E0
1C07FC
380E1C
700E1C
703807
703807
703807
E07007
E07007
E07007
E1C007
71C007
71C007
738007
1F8007
1F8007
1E301F
1E3E1C
1F1E1C
1F8FFC
3B87E0
7383E0
738000
61C000
61C000
E1C000
E1C000
E1C000
7F8000
7E0000
3E0000
ENDCHAR
STARTCHAR $211E
ENCODING 8478
SWIDTH 592 0
DWIDTH 24 0
BBX 21 30 3 0
BITMAP
FFF800
FFFF00
FFFF00
E007C0
E000E0
E000E0
E000E0
E000F0
E000F8
E00038
E00078
E000F8
E000E0
E000E0
E000E0
E007C0
E3FF80
E3FF00
E1F000
E07000
E07000
E03838
E03FE0
E01FE0
E00FC0
E00F00
E00F80
E079C0
E031E0
E011E0
ENDCHAR
STARTCHAR $2120
ENCODING 8480
SWIDTH 1037 0
DWIDTH 42 0
BBX 36 16 3 14
BITMAP
1F81E00070
3FC1F000F0
7FC1F801F0
E071F801F0
E001DC03B0
E001DC03B0
7001DC03B0
1F81CE0E30
1F81C70E30
01F1C70E30
0071C39C30
0071C39C30
E071C39030
E071C1F030
E071C0F030
7FC1C0E030
ENDCHAR
STARTCHAR $2122
ENCODING 8482
SWIDTH 1000 0
DWIDTH 40 0
BBX 34 16 3 14
BITMAP
FFC7C001C0
0C07C003C0
0C07C003C0
0C07E00240
0C07E00640
0C07200E40
0C07380C40
0C07181C40
0C07181C40
0C071C1040
0C070C7040
0C07047040
0C07076040
0C0703E040
0C0703E040
0C07038040
ENDCHAR
STARTCHAR $2126
ENCODING 8486
SWIDTH 814 0
DWIDTH 33 0
BBX 30 28 1 1
BITMAP
003FE000
00FFFC00
01FFFC00
0FF03F00
1F000F80
1E000780
1C0003E0
380001F0
700000F0
70000070
E0000070
E0000070
E000007C
E000007C
E000007C
E000007C
E0000070
E0000070
F0000070
700000F0
780000F0
7C0000E0
1E0003E0
1F0003C0
0FC01F80
3FF03FE0
7FF03FE0
7FF03FE0
ENDCHAR
STARTCHAR $2127
ENCODING 8487
SWIDTH 814 0
DWIDTH 33 0
BBX 30 27 1 0
BITMAP
7FF03FE0
7FF03FE0
3FF03FE0
0F801F80
1F0003C0
1E0003E0
7C0000E0
780000F0
700000F0
F0000070
E0000078
E000007C
E000007C
E000007C
E000007C
E000007C
F0000070
F0000070
700000F0
7C0000E0
3C0000E0
1E0007E0
0FC01F80
07E01F80
03FFFC00
007FE000
007FE000
ENDCHAR
STARTCHAR $212A
ENCODING 8490
SWIDTH 592 0
DWIDTH 24 0
BBX 19 30 3 0
BITMAP
E000E0
E001E0
E001E0
E007C0
E00F80
E00F00
E00E00
E01C00
E03800
E07800
E0F000
E1F000
E3C000
E38000
E38000
EF8000
FDC000
FCE000
FC7000
F87800
F07C00
E03E00
E00E00
E00E00
E00700
E007C0
E003C0
E001E0
E000E0
E00060
ENDCHAR
STARTCHAR $212B
ENCODING 8491
SWIDTH 740 0
DWIDTH 30 0
BBX 27 40 1 0
BITMAP
000F0000
00130000
00310000
0071C000
0071C000
0071C000
00310000
003F0000
003F0000
00000000
000E0000
000E0000
003F0000
003F0000
003F0000
0071C000
0071C000
0071C000
01F1C000
01E0E000
01C0E000
01C0E000
03803800
03803800
03803800
07003C00
0F003C00
0FFFFC00
1FFFFC00
1FFFFE00
1C000700
1C000700
1C000700
70000380
70000380
700003C0
E00003E0
E00000E0
E00000E0
E00000E0
ENDCHAR
STARTCHAR $212E
ENCODING 8494
SWIDTH 851 0
DWIDTH 35 0
BBX 30 30 3 0
BITMAP
007FE000
03801C00
03801C00
0C000300
10000080
10000080
70000060
70000070
70000070
F0000070
F0000070
F0000070
F000007C
F00000FC
F80000FC
FFFFFF00
F8000000
F0000000
F0000000
F0000000
F0000000
70000000
70000060
38000040
1C000080
0E000300
07000200
03801C00
007FE000
007FE000
ENDCHAR
STARTCHAR $2135
ENCODING 8501
SWIDTH 777 0
DWIDTH 32 0
BBX 25 30 3 0
BITMAP
F0000700
70000700
30000700
1C000700
1E000700
1E000700
0F800700
03800700
03800700
03C00700
07F00700
0FF00700
1C780700
38380700
70380700
700E1C00
E00F3C00
E00F3C00
E007F800
E001E000
E001E000
E000E000
E000F800
E0007800
E0003C00
E0001C00
E0000C00
E0000700
E0000780
E0000780
ENDCHAR
STARTCHAR $2136
ENCODING 8502
SWIDTH 666 0
DWIDTH 27 0
BBX 21 30 3 0
BITMAP
FFF000
FFFC00
FFFE00
000F00
000700
000700
0007C0
0003C0
0001C0
0001C0
0001C0
0001C0
0001C0
0001C0
0001C0
0001C0
0001C0
0001C0
0001C0
0001C0
0001C0
0001C0
0001C0
0001C0
0001C0
0001C0
0001C0
FFFFF8
FFFFF8
FFFFF0
ENDCHAR
STARTCHAR $2137
ENCODING 8503
SWIDTH 592 0
DWIDTH 24 0
BBX 18 30 3 0
BITMAP
FE0000
FF0000
FF8000
03C000
01C000
01C000
007000
007000
007000
007000
007800
007800
003800
003800
003800
003800
003E00
003E00
003E00
003E00
003E00
007E00
00F700
01F700
03C700
1F8700
1F8780
FE07C0
F801C0
F00180
ENDCHAR
ENDFONT
